<?xml version="1.0" encoding="utf-8"?>
<!-- Generator: Adobe Illustrator 28.0.0, SVG Export Plug-In . SVG Version: 6.00 Build 0)  -->
<svg version="1.1" id="Layer_1" xmlns="http://www.w3.org/2000/svg" xmlns:xlink="http://www.w3.org/1999/xlink" x="0px" y="0px"
	 viewBox="0 0 255 100" style="enable-background:new 0 0 255 100;" xml:space="preserve">
<style type="text/css">
	.st0{fill:#FFFCF0;}
	.st1{display:none;}
	.st2{display:inline;}
</style>
<g id="Layer_2_00000144307718299572143170000010578217525259509687_">
	<path class="st0" d="M131,76.7V26.2h8.3v50.5H131z"/>
	<path class="st0" d="M178.2,25.4c-3.8,0.2-6.5,1.9-8,4.8c-1.6-3.2-4.1-4.8-8.8-4.8c-2.8,0-6.1,1.7-7,3.9v-3.1h-8v50.5h8.3V39.6
		c0-4.5,1.7-6.7,4.6-6.7c3,0,4.6,2.2,4.6,6.7v37.1h8.3V39.6c0-4.5,1.7-6.7,4.6-6.7c0.5,0,0.9,0.1,1.3,0.2L178.2,25.4L178.2,25.4z"/>
	<path class="st0" d="M191.3,87.6H183V12.2h8.3V87.6z"/>
	<path class="st0" d="M65.3,48.3c2.3-3.6,8.3-5.7,8.3-5.7v-3.1c0-4.5,1.5-6.8,4.6-6.8c3.2,0,4.2,2.7,4.2,6.1c0,5.6-2.5,7.4-8.1,10.2
		c-7.1,3.7-10.4,7.8-10.4,16c0,8.5,5.2,12.4,10.3,12.4c3.8,0,7.1-1.8,8.8-4.7c0.1,1.3,0.3,2.6,0.6,3.9h8.1c-0.8-3.6-0.9-6.8-0.9-18
		v-17c0-9-2-16.2-12.4-16.2c-8.3,0-13,5.5-13,14.2L65.3,48.3z M82.4,62.3c0,5.2-2.3,7.6-5.4,7.6c-2.6,0-4.6-1.7-4.6-6.1
		c0-4.7,1.9-6.9,5.8-9.2c2.2-1.3,3.3-2.3,4.2-3.4V62.3z"/>
	<path class="st0" d="M123.4,39.1c0-8.7-4.7-13.7-12.9-13.7s-12.6,5-12.6,13.4c0,6.3,2.5,9.2,7,12.7l7.7,6.2
		c2.6,2.1,3.2,3.5,3.2,6.3c0,4-2.3,6-5.3,6c-3.1,0-5.2-2.3-5.2-6.8v-3.1c0,0-7.6-5.8-8.3-8.1v11.7c0,8.7,5.1,13.7,13.5,13.7
		c8.2,0,13.5-5,13.5-13.4c0-6.3-2.5-9.4-7-12.9l-7.7-6.2c-2.6-2.1-3.2-3.3-3.2-6.1c0-3.7,1.5-6,4.4-6c3,0,4.5,2.5,4.5,6.8v2.1
		c0,0,7.6,4.4,8.3,6.8L123.4,39.1z"/>
	<g>
		<g class="st1">
			<path class="st2" d="M66,85.6l-0.6,2h-1.3l2.2-6.9h1.6l2.2,6.9h-1.3l-0.6-2H66z M68,84.7L67.5,83c-0.1-0.4-0.2-0.9-0.4-1.3l0,0
				c-0.1,0.4-0.2,0.9-0.3,1.3l-0.5,1.7H68z"/>
			<path class="st2" d="M72.2,87.6v-6.9h1.4l1.8,3c0.5,0.8,0.9,1.6,1.2,2.3l0,0c-0.1-0.9-0.1-1.8-0.1-2.9v-2.4h1.2v6.9h-1.3l-1.8-3
				c-0.4-0.8-0.9-1.6-1.2-2.4l0,0c0.1,0.9,0.1,1.8,0.1,2.9v2.5H72.2z"/>
			<path class="st2" d="M81.5,81.7h-2v-1.1h5.2v1.1h-2v5.9h-1.3v-5.9H81.5z"/>
			<path class="st2" d="M92.7,84.1c0,2.3-1.4,3.6-3.3,3.6c-2,0-3.2-1.5-3.2-3.5c0-2.1,1.3-3.6,3.3-3.6
				C91.5,80.5,92.7,82.1,92.7,84.1z M87.5,84.1c0,1.4,0.7,2.5,1.9,2.5c1.2,0,1.9-1.1,1.9-2.6c0-1.3-0.6-2.5-1.9-2.5
				C88.2,81.6,87.5,82.7,87.5,84.1z"/>
			<path class="st2" d="M94.8,87.6v-6.9h1.4l1.8,3c0.5,0.8,0.9,1.6,1.2,2.3l0,0c-0.1-1-0.1-1.9-0.1-2.9v-2.4h1.2v6.9H99l-1.8-3
				c-0.4-0.8-0.9-1.6-1.2-2.4l0,0c0.1,0.9,0.1,1.8,0.1,2.9v2.5H94.8z"/>
			<path class="st2" d="M102.7,86.2c0.4,0.2,1,0.4,1.7,0.4c0.8,0,1.3-0.4,1.3-0.9s-0.4-0.8-1.2-1.1c-1.1-0.4-1.9-1-1.9-2
				c0-1.1,0.9-2,2.4-2c0.8,0,1.3,0.2,1.7,0.3l-0.3,1c-0.3-0.1-0.7-0.3-1.4-0.3c-0.8,0-1.1,0.4-1.1,0.8c0,0.5,0.4,0.8,1.3,1.1
				c1.2,0.5,1.8,1.1,1.8,2.1c0,1.1-0.8,2.1-2.6,2.1c-0.7,0-1.5-0.2-1.9-0.4L102.7,86.2z"/>
			<path class="st2" d="M110.4,80.7v6.9h-1.3v-6.9H110.4z"/>
			<path class="st2" d="M118.7,84.8c0-0.9-0.1-2-0.1-2.9l0,0c-0.2,0.8-0.5,1.8-0.8,2.7l-1,3h-1l-0.9-3c-0.3-0.9-0.5-1.8-0.7-2.7l0,0
				c0,0.9-0.1,2-0.1,3l-0.2,2.8h-1.2l0.5-6.9h1.7l0.9,2.8c0.2,0.8,0.5,1.6,0.6,2.4l0,0c0.2-0.8,0.4-1.6,0.7-2.4l1-2.8h1.6l0.4,6.9
				h-1.2L118.7,84.8z"/>
			<path class="st2" d="M123.8,85.6l-0.6,2h-1.3l2.2-6.9h1.6l2.2,6.9h-1.4l-0.6-2H123.8z M125.7,84.7l-0.5-1.7
				c-0.1-0.4-0.2-0.9-0.4-1.3l0,0c-0.1,0.4-0.2,0.9-0.3,1.3l-0.5,1.7H125.7z"/>
			<path class="st2" d="M129.9,87.6v-6.9h1.4l1.8,3c0.5,0.8,0.9,1.6,1.2,2.3l0,0c-0.1-0.9-0.1-1.8-0.1-2.9v-2.4h1.2v6.9h-1.3l-1.8-3
				c-0.4-0.8-0.9-1.6-1.2-2.4l0,0c0.1,0.9,0.1,1.8,0.1,2.9v2.5H129.9z"/>
			<path class="st2" d="M144,84.1c0,2.3-1.4,3.6-3.3,3.6c-2,0-3.2-1.5-3.2-3.5c0-2.1,1.3-3.6,3.3-3.6C142.8,80.5,144,82.1,144,84.1z
				 M138.9,84.1c0,1.4,0.7,2.5,1.9,2.5s1.9-1.1,1.9-2.6c0-1.3-0.6-2.5-1.9-2.5C139.5,81.6,138.9,82.7,138.9,84.1z"/>
			<path class="st2" d="M147.7,87.6l-2.2-6.9h1.4l0.9,3.1c0.3,0.9,0.5,1.7,0.7,2.5l0,0c0.2-0.8,0.4-1.7,0.7-2.5l1-3.2h1.3l-2.4,6.9
				L147.7,87.6L147.7,87.6z"/>
			<path class="st2" d="M153.1,86.9c0-0.5,0.3-0.8,0.8-0.8s0.8,0.3,0.8,0.8s-0.3,0.8-0.8,0.8C153.5,87.7,153.1,87.3,153.1,86.9z"/>
			<path class="st2" d="M161.8,87.4c-0.3,0.1-1,0.3-1.8,0.3c-2.2,0-3.5-1.4-3.5-3.5c0-2.3,1.6-3.7,3.7-3.7c0.8,0,1.4,0.2,1.7,0.3
				l-0.3,1c-0.3-0.1-0.8-0.3-1.3-0.3c-1.4,0-2.4,0.9-2.4,2.5c0,1.5,0.9,2.5,2.4,2.5c0.5,0,1-0.1,1.4-0.2L161.8,87.4z"/>
			<path class="st2" d="M170,84.1c0,2.3-1.4,3.6-3.3,3.6c-2,0-3.2-1.5-3.2-3.5c0-2.1,1.3-3.6,3.3-3.6C168.8,80.5,170,82.1,170,84.1z
				 M164.8,84.1c0,1.4,0.7,2.5,1.9,2.5s1.9-1.1,1.9-2.6c0-1.3-0.6-2.5-1.9-2.5C165.5,81.6,164.8,82.7,164.8,84.1z"/>
			<path class="st2" d="M177.9,84.8c0-0.9-0.1-2-0.1-2.9l0,0c-0.2,0.8-0.5,1.8-0.8,2.7l-1,3h-1l-0.9-3c-0.3-0.9-0.5-1.8-0.7-2.7l0,0
				c0,0.9-0.1,2-0.1,3l-0.2,2.8h-1.2l0.5-6.9h1.7l0.9,2.8c0.2,0.8,0.5,1.6,0.6,2.4l0,0c0.2-0.8,0.4-1.6,0.7-2.4l1-2.8h1.6l0.4,6.9
				h-1.2L177.9,84.8z"/>
		</g>
	</g>
</g>
</svg>
