<?xml version="1.0" encoding="utf-8"?>
<!-- Generator: Adobe Illustrator 28.0.0, SVG Export Plug-In . SVG Version: 6.00 Build 0)  -->
<svg version="1.1" id="Layer_1" xmlns="http://www.w3.org/2000/svg" xmlns:xlink="http://www.w3.org/1999/xlink" x="0px" y="0px"
	 viewBox="0 0 200 100" style="enable-background:new 0 0 200 100;" xml:space="preserve">
<style type="text/css">
	.st0{fill:#FFFCF0;}
	.st1{display:none;fill:#FFFFFF;}
	.st2{fill:none;stroke:#FFFCF0;stroke-miterlimit:10;}
</style>
<path class="st0" d="M124.2,38.6h-48c-3.4,0-6.1,2.7-6.1,6.1v48c0,3.4,2.7,6.1,6.1,6.1h48c3.4,0,6.1-2.7,6.1-6.1v-48
	C130.3,41.3,127.5,38.6,124.2,38.6z M121.1,80.2H79.7c-3.4,0-6.1-2.7-6.1-6.1V63.7c0-3.4,2.7-6.1,6.1-6.1h41.4
	c3.4,0,6.1,2.7,6.1,6.1v10.5h0C127.2,77.5,124.5,80.2,121.1,80.2z"/>
<path class="st0" d="M143.5,78c0,1.3-1,2.3-2.3,2.3h-6.6c-1.3,0-2.3-1-2.3-2.3V59.6c0-1.3,1-2.3,2.3-2.3h6.6c1.3,0,2.3,1,2.3,2.3V78
	z"/>
<path class="st0" d="M149.8,72.7c0,0.5-0.4,1-1,1h-2.7c-0.5,0-1-0.4-1-1v-7.6c0-0.5,0.4-1,1-1h2.7c0.5,0,1,0.4,1,1V72.7z"/>
<path class="st0" d="M55.1,72.7c0,0.5-0.4,1-1,1h-2.7c-0.5,0-1-0.4-1-1v-7.6c0-0.5,0.4-1,1-1h2.7c0.5,0,1,0.4,1,1V72.7z"/>
<path class="st0" d="M68.2,78c0,1.3-1,2.3-2.3,2.3h-6.6c-1.3,0-2.3-1-2.3-2.3V59.6c0-1.3,1-2.3,2.3-2.3h6.6c1.3,0,2.3,1,2.3,2.3V78z
	"/>
<path class="st1" d="M127.2,74.1c0,3.4-2.7,6.1-6.1,6.1H79.7c-3.4,0-6.1-2.7-6.1-6.1V63.7c0-3.4,2.7-6.1,6.1-6.1h41.4
	c3.4,0,6.1,2.7,6.1,6.1L127.2,74.1L127.2,74.1z"/>
<rect x="81.3" y="72.2" class="st0" width="3.1" height="22.7"/>
<rect x="77.3" y="75.3" class="st0" width="3.1" height="22.7"/>
<rect x="105.8" y="72.2" class="st0" width="3.1" height="22.7"/>
<rect x="85.4" y="68.7" class="st0" width="3.1" height="22.7"/>
<rect x="101.7" y="68.7" class="st0" width="3.1" height="22.7"/>
<rect x="109.8" y="68.7" class="st0" width="3.1" height="22.7"/>
<rect x="89.5" y="64.6" class="st0" width="3.1" height="22.7"/>
<rect x="97.6" y="64.6" class="st0" width="3.1" height="22.7"/>
<rect x="122" y="64.6" class="st0" width="3.1" height="22.7"/>
<rect x="113.9" y="64.6" class="st0" width="3.1" height="22.7"/>
<rect x="93.5" y="61.5" class="st0" width="3.1" height="22.7"/>
<rect x="118" y="61.5" class="st0" width="3.1" height="22.7"/>
<path class="st2" d="M127.2,74.1c0,3.4-2.7,6.1-6.1,6.1H79.7c-3.4,0-6.1-2.7-6.1-6.1V63.7c0-3.4,2.7-6.1,6.1-6.1h41.4
	c3.4,0,6.1,2.7,6.1,6.1L127.2,74.1L127.2,74.1z"/>
<rect x="61.2" y="24.6" class="st0" width="3.1" height="31.3"/>
<polygon class="st0" points="61.2,25.9 61.2,22.8 90,22.8 86.9,25.9 "/>
<polygon class="st0" points="110.5,25.9 113.6,22.8 139.8,22.8 139.8,25.9 "/>
<rect x="136.4" y="24.6" class="st0" width="3.1" height="31.3"/>
<polygon class="st0" points="113,1.1 90.9,26.2 104.2,23.6 94.1,37 114.6,18.6 101.3,20.4 "/>
</svg>
