<?xml version="1.0" encoding="utf-8"?>
<!-- Generator: Adobe Illustrator 28.0.0, SVG Export Plug-In . SVG Version: 6.00 Build 0)  -->
<svg version="1.1" id="Layer_1" xmlns="http://www.w3.org/2000/svg" xmlns:xlink="http://www.w3.org/1999/xlink" x="0px" y="0px"
	 viewBox="0 0 200 100" style="enable-background:new 0 0 200 100;" xml:space="preserve">
<style type="text/css">
	.st0{fill:#FFFCF0;}
</style>
<path class="st0" d="M45.1,68.1C56,80.8,65.2,82.3,73,76c7.8-6.3,12.1-17.3,18.3-30.5c9.3-19,15-27.9,23.7-34.9
	C128.3-0.3,147.7-2,166.2,23.1l-13,10.5c-9.9-11.7-18.6-15-26.4-8.7c-8,6.5-12.9,16.9-19.7,31c-8.9,18.7-13.5,27.1-22.6,34.4
	C69.6,102.4,49,100.8,32.3,78.5L45.1,68.1z"/>
<path class="st0" d="M112.9,56.7c-12.6-2.9-39.3-10.1-39.3-10.1s2.6-18,18.7-13.9c16.1,4.2,40.1,10.3,40.1,10.3
	S125.5,59.6,112.9,56.7z"/>
<polygon class="st0" points="153.2,33.6 158.8,40.5 157.1,30.9 162.2,35.2 160.7,27.7 165.1,30.7 163.8,24.9 168.1,26.4 166.2,23.1 
	162.5,21 152.5,28.7 "/>
<polygon class="st0" points="45.5,68.5 40.2,61.5 41.6,71.1 36.6,66.7 38,74.2 33.6,71.1 34.8,77 30.9,75.3 32.3,78.3 35.5,81.6 
	46.2,73.4 "/>
<polygon class="st0" points="131.1,45.5 135.4,37.9 127.8,42.1 129.2,38.4 123.1,40.7 123.7,37.9 119.2,39.3 119.4,37.5 111.3,40.1 
	116.8,42.5 128.9,46.3 "/>
<polygon class="st0" points="73.6,46.3 70.9,54.6 77.5,49 76.9,52.9 82.4,49.4 82.3,52.3 86.5,50 86.7,51.8 94,47.7 88.2,46.4 
	75.6,45.1 "/>
</svg>
