<?xml version="1.0" encoding="utf-8"?>
<!-- Generator: Adobe Illustrator 28.0.0, SVG Export Plug-In . SVG Version: 6.00 Build 0)  -->
<svg version="1.1" id="Layer_1" xmlns="http://www.w3.org/2000/svg" xmlns:xlink="http://www.w3.org/1999/xlink" x="0px" y="0px"
	 viewBox="0 0 200 100" style="enable-background:new 0 0 200 100;" xml:space="preserve">
<style type="text/css">
	.st0{fill:#FFFCF0;}
</style>
<path class="st0" d="M187,68.2c-1.2-11.3-8.5-21.2-9.2-22.2c-4.3-6.3-16.8-16-31.4-24.1c-12.7-7.1-37.7-18.9-63.5-18.9
	c-15.2,0-28.4,4.2-39.2,12.3C31.9,24.2,23,38,17.2,56.3h0c-0.1,0.2-0.5,1.4-1.1,3.5l-1.5,5l0.4-0.4c-0.9,4.7-1.8,11.2-1.6,18.6
	c-1.2,0.5-2,1.8-2,3.2c0,1.9,1.6,3.5,3.5,3.5s3.5-1.6,3.5-3.5c0-1.4-0.8-2.6-1.9-3.1c-0.3-9.8,1.4-18,2.5-22.4l0,0
	c0,0,0.1-0.1,0.1-0.3c6-5.6,12.9-8.7,21-9.5c-1.1,2.2-1.9,6-1.8,12.7c-1.2,0.6-2,1.8-2,3.2c0,1.9,1.6,3.5,3.5,3.5
	c1.9,0,3.5-1.6,3.5-3.5c0-1.4-0.8-2.6-2-3.1c-0.2-11.2,2.5-12.7,2.5-12.7c0,0,0,0-0.2,0l-0.1-0.2c0.2,0,0.4,0,0.6,0
	c11.4,0,23.6,4,36.5,8.9c0,0.1,0.1,0.2,0.1,0.3l0.3-0.1c2.5,0.9,5,1.9,7.5,2.9c8.2,3.2,16.6,6.5,24.9,8.9v0
	c0.2,0.1,17.4,6.6,20.2,18.9c-1,0.6-1.7,1.7-1.7,3c0,1.9,1.6,3.5,3.5,3.5c1.9,0,3.5-1.6,3.5-3.5c0-1.5-0.9-2.8-2.3-3.3
	c-1.4-7.1-6.8-12.4-11.9-15.9c4,0.7,8,1.1,11.9,1.1c16.9,0,30.4-7.8,41.1-23.9c2.3,3.8,5.3,10.1,6.1,16.7c-1.1,0.6-1.8,1.7-1.8,3.1
	c0,1.9,1.6,3.5,3.5,3.5c1.9,0,3.5-1.6,3.5-3.5C189.1,69.9,188.2,68.7,187,68.2z M175.3,47.7L175.3,47.7c0,0,0.1,0.1,0.2,0.3
	c0.1,0.1,0.1,0.2,0.2,0.3c-22.2,8.6-45.1,0.2-71.6-9.6c-2.9-1.1-5.9-2.2-8.9-3.3c16.6-11.1,32.1-15.5,45.9-13.2
	C158.5,31.5,171.6,42.2,175.3,47.7z M91.9,34.1l-0.2,0.1c0,0,0,0,0,0c-0.4-0.2-0.9-0.3-1.3-0.5c0,0,0,0,0,0l0,0
	c-3.8-1.3-7.7-2.7-11.8-3.9c-9.5-3-18.9-3.1-27.7-0.5c6.5-7.2,22.3-21.5,45.4-22.5c13.1,1.9,26.1,6.4,37.6,11.8
	c-12.6,0-26.2,4.9-40.7,14.5C92.7,33.6,92.2,34,91.9,34.1z M82.9,5.9c0.1,0,0.2,0,0.3,0c-22.6,5.9-36,23-37.9,25.6
	c-4.5,2-8.9,4.8-13.1,8.4c-3.9,3.4-7.2,7-9.6,10.1C34,20.7,54.2,5.9,82.9,5.9z M44.2,47.9c-7.6,0-14.3,1.7-20.3,5.3
	c2.5-3.3,5.9-7.3,10.2-11c4-3.4,8.1-6.1,12.3-8c3,0.6,23,5.2,32.3,21.6C66.9,51.5,55.1,47.9,44.2,47.9z M82.9,57.4
	c-7.4-16.2-23.6-22.7-31.6-25.1c8.4-2.6,17.2-2.5,26.4,0.4c4.5,1.4,8.9,2.9,13.3,4.5c5.8,3.2,24.1,14.6,27.6,32.8
	c-9.5-2.4-19.3-6.2-28.8-9.9C87.5,59.2,85.2,58.3,82.9,57.4z M136.8,72.6c-4.9,0-10-0.7-15.1-1.8c-2.1-13.4-11.4-23.3-19.3-29.4
	c0.2,0.1,0.5,0.2,0.7,0.3c26,9.5,48.6,17.9,70.8,10.6C164,66.1,152.1,72.6,136.8,72.6z"/>
</svg>
