<?xml version="1.0" encoding="utf-8"?>
<!-- Generator: Adobe Illustrator 28.0.0, SVG Export Plug-In . SVG Version: 6.00 Build 0)  -->
<svg version="1.1" id="Layer_1" xmlns="http://www.w3.org/2000/svg" xmlns:xlink="http://www.w3.org/1999/xlink" x="0px" y="0px"
	 viewBox="0 0 200 100" style="enable-background:new 0 0 200 100;" xml:space="preserve">
<style type="text/css">
	.st0{fill:#FFFCF0;}
</style>
<g>
	<path class="st0" d="M57.2,57.8h-3.7v-1.2l1.2-1.3c0.2-0.2,0.4-0.5,0.6-0.8c0.2-0.3,0.3-0.7,0.3-1.1c0-0.3-0.1-0.6-0.2-0.7
		c-0.1-0.1-0.3-0.2-0.6-0.2c-0.3,0-0.6,0-0.9,0.1c-0.3,0.1-0.4,0.1-0.4,0.1v-1.2c0,0,0.1-0.1,0.4-0.1c0.1,0,0.3-0.1,0.5-0.1
		c0.2,0,0.4,0,0.6,0c1.4,0,2.2,0.6,2.2,2c0,0.7-0.2,1.2-0.4,1.6c-0.3,0.4-0.6,0.8-0.9,1.1l-0.6,0.6h1.9L57.2,57.8z"/>
	<path class="st0" d="M62.2,54.6c0,0.7-0.1,1.3-0.2,1.7c-0.1,0.4-0.2,0.8-0.4,1c-0.2,0.2-0.4,0.4-0.7,0.5c-0.3,0.1-0.6,0.1-0.9,0.1
		c-0.3,0-0.6,0-0.8-0.1c-0.3-0.1-0.5-0.3-0.7-0.5c-0.2-0.2-0.3-0.6-0.4-1c-0.1-0.4-0.2-1-0.2-1.7c0-0.7,0.1-1.3,0.2-1.7
		c0.1-0.4,0.3-0.8,0.5-1c0.2-0.2,0.4-0.4,0.7-0.5c0.3-0.1,0.5-0.1,0.8-0.1c0.3,0,0.6,0,0.8,0.1c0.3,0.1,0.5,0.2,0.7,0.5
		c0.2,0.2,0.3,0.6,0.5,1C62.1,53.3,62.2,53.9,62.2,54.6z M60.5,54.6c0-0.8,0-1.3,0-1.7c0-0.4-0.2-0.5-0.4-0.5
		c-0.2,0-0.4,0.2-0.4,0.5c0,0.4-0.1,0.9-0.1,1.7c0,0.8,0,1.4,0.1,1.7c0.1,0.4,0.2,0.5,0.4,0.5c0.2,0,0.3-0.2,0.4-0.5
		C60.5,56,60.5,55.4,60.5,54.6z"/>
</g>
<g>
	<path class="st0" d="M138.2,54.6c0,0.7-0.1,1.3-0.2,1.7c-0.1,0.4-0.2,0.8-0.4,1c-0.2,0.2-0.4,0.4-0.7,0.5c-0.3,0.1-0.6,0.1-0.9,0.1
		s-0.6,0-0.8-0.1c-0.3-0.1-0.5-0.3-0.7-0.5c-0.2-0.2-0.3-0.6-0.4-1c-0.1-0.4-0.2-1-0.2-1.7c0-0.7,0.1-1.3,0.2-1.7
		c0.1-0.4,0.3-0.8,0.5-1c0.2-0.2,0.4-0.4,0.7-0.5c0.3-0.1,0.5-0.1,0.8-0.1c0.3,0,0.6,0,0.9,0.1c0.3,0.1,0.5,0.2,0.7,0.5
		c0.2,0.2,0.3,0.6,0.5,1C138.2,53.3,138.2,53.9,138.2,54.6z M136.5,54.6c0-0.8,0-1.3,0-1.7c0-0.4-0.2-0.5-0.4-0.5
		c-0.2,0-0.4,0.2-0.4,0.5c0,0.4-0.1,0.9-0.1,1.7c0,0.8,0,1.4,0.1,1.7c0.1,0.4,0.2,0.5,0.4,0.5c0.2,0,0.3-0.2,0.4-0.5
		C136.5,56,136.5,55.4,136.5,54.6z"/>
	<path class="st0" d="M142.8,56.6h-0.4v1.2h-1.7v-1.2h-2.2v-1.3l0.4-4h1.9l-0.7,4h0.6l0.5-2h1.2v2h0.5L142.8,56.6z"/>
</g>
<polygon class="st0" points="133.1,27 126.4,20.3 136.5,10.2 125.2,10.8 117,19 119.1,26.9 74.9,71.1 66.9,69.1 58.7,77.3 
	58.2,88.6 68.3,78.5 75,85.1 64.9,95.2 76,94.5 84.2,86.3 82.1,77.9 81.9,77.8 125.7,34 125.9,34.1 134.3,36.2 142.5,28 143.2,16.9 
	"/>
<g>
	<rect x="60.3" y="25.9" transform="matrix(0.7071 -0.7071 0.7071 0.7071 2.0455 61.593)" class="st0" width="30.1" height="4.9"/>
	<rect x="55.6" y="21.2" transform="matrix(0.7071 -0.7071 0.7071 0.7071 3.9846 56.9118)" class="st0" width="30.1" height="4.9"/>
	<rect x="50.9" y="16.5" transform="matrix(0.7071 -0.7071 0.7071 0.7071 5.9245 52.2301)" class="st0" width="30.1" height="4.9"/>
	<path class="st0" d="M128.9,63.4l-3,3c-1.5,0-3,0.4-4.4,1L94.1,39.6l6.9-6.9L89.3,20.9L68,42.2L79.8,54l7.5-7.5l27.4,27.8
		c-0.5,1.3-0.8,2.7-0.8,4.1l-3.1,3.1L124,94.8l3.7-3.7c2.6-0.3,5.2-1.5,7.3-3.5c2-2,3.2-4.6,3.5-7.3l3.6-3.6L128.9,63.4z M87.6,40.1
		c-1.4,1.4-3.7,1.4-5.1,0c-1.4-1.4-1.4-3.7,0-5.1c1.4-1.4,3.7-1.4,5.1,0C89,36.4,89,38.7,87.6,40.1z M131.7,84.2c-3,3-7.9,3-10.9,0
		c-2.5-2.5-2.9-6.3-1.3-9.3l2.9-2.9c2.9-1.7,6.7-1.2,9.3,1.3C134.7,76.3,134.7,81.2,131.7,84.2z"/>
</g>
</svg>
