<?xml version="1.0" encoding="utf-8"?>
<!-- Generator: Adobe Illustrator 28.0.0, SVG Export Plug-In . SVG Version: 6.00 Build 0)  -->
<svg version="1.1" id="Layer_1" xmlns="http://www.w3.org/2000/svg" xmlns:xlink="http://www.w3.org/1999/xlink" x="0px" y="0px"
	 viewBox="0 0 200 100" style="enable-background:new 0 0 200 100;" xml:space="preserve">
<style type="text/css">
	.st0{fill:#FFFCF0;}
</style>
<path class="st0" d="M131.5,12.1c-0.2,1.5-5.5,2.1-11.8,1.4c-6.4-0.8-11.4-2.6-11.2-4.1c0.2-1.5,5.3-0.8,11.7,0
	C126.5,10.1,131.7,10.6,131.5,12.1z"/>
<path class="st0" d="M128.3,6.1c0.3-2.2-2.3-4.3-5.6-4.7L119.2,1c-3.4-0.4-6.3,1.1-6.5,3.2l0,0c-0.3,2.2-1,6.4,4.3,7l5.6,0.7
	C127.8,12.6,128.1,8.3,128.3,6.1L128.3,6.1z"/>
<path class="st0" d="M125.4,39.6c4.4-1.5,7.8-5,9.3-9.3c2.2,1.3,4.9,1.4,7.8-2.5c0,0-4.9,4-6.8-1.1c-0.1-0.2-0.2-0.4-0.3-0.6
	c0,0,0,0,0,0l0,0c-0.7-1.2-1.6-1.5-2.4-1.4l0.3,0c-1.5,2.2-5.2,11.7-12.2,4.9c0,0,5.5,3.2,6.5-2.2c0.3-1.5,1-2.2,1.8-2.6
	c-0.8-6.2-6.4-10.8-12.7-10.3c-1.7,0.1-3.3,0.6-4.8,1.4c-0.8-0.8-1.9-1.2-3-1.1c-2.1,0.2-3.7,2-3.6,4.2c0.1,1.1,0.6,2,1.4,2.6
	c-3,3.3-10.3,10-25,16.4c-1,0.4-2.1,0.8-3.1,1.3c-0.7,0.3-1.3,0.5-2,0.8l0.3,0.1c-10.4,5.8-17.1,17.4-16,30.1c0.1,1,0.2,1.9,0.4,2.9
	h-3c-0.2,0.6-0.3,1.3-0.2,2.1c0.2,2.8,2.6,5,5.3,5.1c1.4,3.2,3.3,6.2,5.7,8.7c0,0.4-0.1,0.8-0.1,1.1c0,5,4,9,9,9
	c1.8,0,3.4-0.5,4.8-1.4c3.8,1.2,7.9,1.7,12.1,1.4c2.8-0.2,5.5-0.8,8-1.7c1.5,1.1,3.3,1.7,5.3,1.7c5,0,9-4,9-9c0-0.9-0.1-1.7-0.4-2.5
	c3-3.7,5.2-8.1,6.3-12.9c-0.1-2.4-0.3-8.4-1.4-12.6c0,0,2.5,4.7,3.9,10.6c1.8-0.8,3.6-2,5.3-3.3c-1,0.1-1.9,0.2-2.9,0.2
	c1.7-0.5,3.4-1.1,4.9-1.9c1.1-1,2.2-2.1,3.1-3.2c-2.1,0.7-4.3,1-6.4,1c2.2-0.6,4.4-1.5,6.2-2.7c0.2-0.1,0.5-0.2,0.7-0.4
	c0.7-0.4,1.5-0.9,2.1-1.5c0.1-0.1,0.1-0.1,0.2-0.2c0-0.1,0.1-0.1,0.1-0.2c-5.2,1.7-12.6-1.7-18-6c-0.3-0.6-0.6-1.3-0.9-1.9
	c-0.3-0.9-0.6-2.3-0.5-4l5,2.3v-8l-4.1,1.9C121.2,42.9,122.7,41.1,125.4,39.6z M123.3,21.3c1.3-0.1,2.4,0.9,2.5,2.2
	c0.1,1.3-0.9,2.4-2.2,2.5c-1.3,0.1-2.4-0.9-2.5-2.2C121.1,22.5,122,21.4,123.3,21.3z M85.6,62.4c-3.5,6.2-5.4,10.2-3.3,16.5
	c-9.5-5.8-13.4-17.7-7.9-27.4l2.1-2.5c-4.1,5.3-4.9,12.1-2.6,17.9c0-0.3,0-0.6-0.1-0.9c0.2-2.4,0.9-4.6,1.9-6.6
	c-0.4,2.3-0.5,4.6-0.2,6.8c0,0.3,0,0.5,0.1,0.8c0.1,0.9,0.2,1.7,0.5,2.5c0.1,0.4,0.3,0.8,0.4,1.2c0.1,0.2,0.2,0.4,0.3,0.6
	c0,0.1,0.1,0.2,0.1,0.3l0.1,0.1l0.1,0.1l-0.2,0.1c0.1,0.2,0.3,0.3,0.4,0.5c-0.1-0.3-0.1-0.5-0.2-0.8c0-0.1,0-0.2,0-0.3
	c0-0.1,0-0.2,0-0.3c0-0.2,0-0.4-0.1-0.6c0-0.4-0.1-0.7-0.1-1.1c0.2-2.4,0.9-4.6,1.9-6.6c-0.4,2.3-0.5,4.6-0.2,6.8
	c0,0.3,0,0.5,0.1,0.8c0.1,0.9,0.2,1.7,0.5,2.5c0.1,0.2,0.1,0.4,0.2,0.6c1.2-6.2,2.4-8.5,6.1-13.3c2.6-3.4,6.1-5.7,9.9-7
	C91.4,55,88,58.2,85.6,62.4z M117.3,49c-0.6,0-1.2-0.3-1.6-0.7v0l-8,4.2V41.1l7.6,4.1c0.4-0.6,1.2-1,2-1c1.3,0,2.4,1.1,2.4,2.4
	S118.7,49,117.3,49z"/>
</svg>
