<?xml version="1.0" encoding="utf-8"?>
<!-- Generator: Adobe Illustrator 28.0.0, SVG Export Plug-In . SVG Version: 6.00 Build 0)  -->
<svg version="1.1" id="Layer_1" xmlns="http://www.w3.org/2000/svg" xmlns:xlink="http://www.w3.org/1999/xlink" x="0px" y="0px"
	 viewBox="0 0 200 100" style="enable-background:new 0 0 200 100;" xml:space="preserve">
<style type="text/css">
	.st0{fill:#FFFCF0;}
</style>
<path class="st0" d="M31.2,23.9l37.9,39.7V25.9h5.4v50.8L36.7,37.1v32.1h-5.4C31.2,69.2,31.2,23.9,31.2,23.9z"/>
<path class="st0" d="M98.1,68.9c-2.2,0-4.3-0.4-6.2-1.2c-1.9-0.8-3.6-1.9-5.1-3.4c-1.4-1.4-2.6-3.1-3.4-5.1c-0.8-1.9-1.3-4-1.3-6.3
	c0-2.2,0.4-4.3,1.2-6.3s1.9-3.6,3.4-5.1c1.4-1.5,3.1-2.6,5.1-3.4c1.9-0.8,4-1.3,6.3-1.3c2.2,0,4.3,0.4,6.3,1.3
	c1.9,0.8,3.6,2,5.1,3.4c1.4,1.5,2.6,3.2,3.4,5.1s1.2,4,1.2,6.3c0,2.2-0.4,4.3-1.2,6.3c-0.8,1.9-2,3.6-3.4,5.1
	c-1.4,1.4-3.1,2.6-5.1,3.4C102.4,68.4,100.3,68.9,98.1,68.9z M98.1,41.6c-1.6,0-3.1,0.3-4.4,0.9c-1.3,0.6-2.5,1.4-3.4,2.4
	c-0.9,1-1.7,2.2-2.2,3.6c-0.5,1.4-0.8,2.8-0.8,4.4s0.3,3,0.8,4.4c0.5,1.4,1.2,2.5,2.2,3.6c0.9,1,2.1,1.8,3.4,2.4
	c1.3,0.6,2.8,0.9,4.4,0.9s3.1-0.3,4.4-0.9c1.3-0.6,2.5-1.4,3.4-2.4c1-1,1.7-2.2,2.2-3.6c0.5-1.4,0.8-2.8,0.8-4.4s-0.3-3-0.8-4.4
	c-0.5-1.4-1.2-2.5-2.2-3.6c-0.9-1-2.1-1.8-3.4-2.4C101.2,41.9,99.7,41.6,98.1,41.6z"/>
<path class="st0" d="M114.8,74.3H82.5l3.2-3.2h26L114.8,74.3z"/>
<path class="st0" d="M114.1,29.9l2.8-5h10.6v41.5l-5.4-10.5V29.9H114.1z"/>
<path class="st0" d="M74.2,30v29.2l-5.4,10.5V25h43l-2.9,5L74.2,30L74.2,30z"/>
<path class="st0" d="M168.3,69.5v5h-31.5l22.8-21.9c1-1.2,1.8-2.4,2.4-3.7c0.6-1.3,0.9-2.8,0.9-4.4c0-1.3-0.3-2.6-0.8-3.7
	c-0.5-1.2-1.2-2.2-2.1-3c-0.9-0.8-1.9-1.5-3.1-2c-1.2-0.5-2.4-0.7-3.7-0.7c-1.5,0-2.8,0.3-4,0.8c-1.2,0.5-2.2,1.2-3.1,2.1
	c-0.8,0.9-1.5,1.9-2,3.2c-0.5,1.2-0.7,2.5-0.8,4H138c0-2.1,0.4-4.1,1.2-5.9c0.8-1.8,1.8-3.4,3.2-4.8c1.3-1.3,2.9-2.4,4.7-3.2
	c1.8-0.8,3.8-1.2,5.9-1.2c2,0,4,0.4,5.8,1.1c1.8,0.7,3.5,1.7,4.9,3c1.4,1.3,2.5,2.8,3.4,4.5c0.8,1.8,1.2,3.7,1.2,5.8
	c0,4-1.2,7.4-3.7,10.3l-16.8,14.8H168.3z"/>
<path class="st0" d="M127,55.7c-0.6,1.3,0,2.8,0,4.4c0,1.3,0.3,2.6,0.8,3.7c0.5,1.2,1.2,2.2,2.1,3c0.9,0.8,1.9,1.5,3.1,2
	c1.2,0.5,2.4,0.7,3.7,0.7c1.5,0,2.8-0.3,4-0.8c1.2-0.5,2.4-1,3.3-1.8c1.3-1.2,7.5-3.3,6.7-1.5c-0.8,1.9-2.7,3.4-4.1,4.8
	s-2,2.4-3.8,3.2c-1.8,0.8-3.8,1.2-5.9,1.2c-2,0-4-0.4-5.8-1.1c-1.8-0.7-3.5-1.7-4.9-3c-1.4-1.3-2.5-2.8-3.3-4.5
	c-0.8-1.8-1.9-14.5,1.5-16.1C124.4,49.9,127.6,54.3,127,55.7z"/>
<rect x="140.7" y="69.5" class="st0" width="27.8" height="4.9"/>
</svg>
