<?xml version="1.0" encoding="utf-8"?>
<!-- Generator: Adobe Illustrator 27.0.1, SVG Export Plug-In . SVG Version: 6.00 Build 0)  -->
<svg version="1.1" id="Layer_1" xmlns="http://www.w3.org/2000/svg" xmlns:xlink="http://www.w3.org/1999/xlink" x="0px" y="0px"
	 viewBox="0 0 255 100" style="enable-background:new 0 0 255 100;" xml:space="preserve">
<path d="M188.8,84.9c-1-1.5-2-2.9-3-4.3c-2-2.4-4.1-4.7-6.5-6.7c-1-0.8-2.1-1.7-3.2-2.4l-2.3-1.5c-6.3-3.6-13.8-6.1-21-3.9
	c-0.9,0.3-0.7,1.7,0.2,1.7c3.6,0.6,7.2,1.5,10.7,2.6c1.5,0.5,3,1.1,4.5,1.7c-0.5,1.3-1,2.6-1.6,3.8c-0.6-0.5-1.3-1-2-1.5
	c-3.3-2.1-7.1-3.6-11.1-3.2c-0.9,0.1-1.1,1.4-0.2,1.7c0.6,0.2,1.2,0.5,1.9,0.8c1.7,0.7,3.4,1.5,5,2.5c0.7,0.4,1.7,1,2.4,1.4
	c0.7,0.4,1.4,1,2,1.5c-1.2,1.4-2.5,2.2-3.9,2.6c-1-1.3-2.2-2.5-3.5-3.6c-1.9-1.5-4.2-3-6.8-2.4c-0.6,0.1-0.9,1-0.5,1.5
	c0,0,0.3,0.3,0.3,0.3c1.5,1.4,3.4,2,5,3.3c0.5,0.4,1,0.8,1.4,1.2c-0.7-0.1-1.3-0.2-2-0.4c-8.1-2.3-17.4-6.4-24.3-11.9l5.3-2.8
	c1.7-0.9,1.7-2.5,0-3.4l-7-3.8c-1.5-0.8-3.8-0.8-5.2,0l-7,3.8c-1.7,0.9-1.7,2.5,0,3.4l5.4,2.9c-6.9,5.5-15.9,9.5-24,11.8
	c0.3-0.3,0.6-0.5,0.9-0.8c1.6-1.3,3.5-1.9,5-3.3c0.2-0.2,0.4-0.4,0.5-0.7c0.3-1.8-3-1.2-4-0.8c-2.9,1.3-5.3,3.5-7.2,6
	c-1.9-0.2-3.4-1-4.7-2.1c3.6-3,7.8-5.2,12.2-6.9c1-0.3,0.9-1.6-0.1-1.8c-4.1-0.4-7.8,1.1-11.1,3.2C88,75.2,87,76.1,86,77
	c-0.7-1.2-1.3-2.6-1.9-4.2c5.3-2.5,11-4.1,16.7-5c1-0.1,1.2-1.4,0.2-1.7c-4.9-1.5-10.1-0.7-14.8,1C80.3,69.3,75,73,70.6,77.5
	c-2.1,2.3-4,4.7-5.7,7.3c-0.6,0.9,0.6,1.8,1.3,1.1c1.3-1.2,2.5-2.4,3.8-3.6c0.9-0.8,2-1.7,2.9-2.5c2.9-2.3,6-4.5,9.2-6.3
	c0,0,0,0,0,0c-0.1,0.8-0.1,1.5-0.1,2.3c0,1.4,0.2,3,0.7,4.4c-2.3,2.9-4.1,6.2-5.2,9.7c-0.2,0.6-0.4,1.3-0.6,1.9
	c-0.1,0.4,0,0.8,0.4,1c0.4,0.3,1,0.1,1.2-0.3c0.7-1.1,1.3-2.3,2-3.5c1.2-2,2.5-3.8,3.9-5.5c1.3,2,3.1,3.4,5.1,4.3
	c-0.2,0.5-0.4,1-0.6,1.5c-0.7,2.1-1.3,4.4-1.6,6.6c-0.1,0.4,0.2,0.8,0.6,1c0.5,0.2,1-0.1,1.1-0.5c0.4-1,0.8-2.1,1.1-3.1
	c0,0,1.2-3,1.2-3c0.3-0.6,0.5-1.1,0.8-1.6c1.8,0.4,3.8,0.5,5.7,0.2c5.7-0.9,11.8-3.5,17-7.1c1,3.8,5.4,8.7,6.8,9.7
	c0.3,0.2,0.8-0.1,0.7-0.5c-0.2-1-0.1-2.4,1.4-2.4c1.5,0,2.6,2.5,3.2,4.4c0.2,0.5,0.9,0.4,0.9-0.1c0.3-2.3,1-5.4,2.4-5.6
	c1.3-0.1,1.3,1.2,1.1,2.4c-0.1,0.5,0.5,0.8,0.8,0.4c1.7-2.2,3.8-6.8,4.3-8.7c3.3,2.3,6.9,4.2,10.6,5.6c2.4,1,5.3,1.8,8,1.9
	c2.3,0.2,4.3-0.1,6.2-0.7c0.9,1.6,1.6,3.3,2.3,5c0.4,1,0.7,2.1,1.1,3.1c0.4,1,1.9,0.6,1.7-0.5c-0.5-3-1.3-6-2.5-8.9
	c1.9-1.2,3.4-2.8,4.4-4.7c1.2,1.3,2.4,2.8,3.4,4.3c1.3,1.9,2.4,3.9,3.6,5.9c0.5,0.9,1.9,0.3,1.6-0.7c-0.2-0.6-0.4-1.3-0.6-1.9
	c-1.4-4.2-3.6-8-6.6-11.3c0.4-1.9,0.4-4,0-6.1c2.5,1.2,4.9,2.6,7.2,4.2c3.9,2.6,7.2,5.8,10.6,9C188.2,86.7,189.4,85.7,188.8,84.9z
	 M125.6,83.2c-3-0.1-6.4-0.6-8.6-2.7c3-2.4,5.5-5.1,7.3-8.1c0.2-0.3,0.5-0.8,0.7-1.2c0.7,0.1,1.3,0.1,2,0c0.2,0.4,0.5,0.8,0.7,1.3
	c1.8,2.9,4.2,5.5,6.8,7.7C132.4,82.5,128.8,83.1,125.6,83.2z"/>
<path d="M189.9,45.6c-1.2-4-6.8-5.9-11-4.9c-8.7-16.4-25.1-28.2-44.4-30.4c-0.9-1.8,0.6-3.4,1.4-4c0.2-0.1,0.1-0.4-0.1-0.5
	c-2.5-0.6-5.8,0.5-7.9,1.6c-2.5,1.1-2.8-2.2-0.9-4.6c0.1-0.2,0-0.5-0.3-0.4c-6,1.2-9.3,7.7-9.7,8.6c-17.5,3.3-32.1,14.6-40.1,29.8
	c-4.2-1.1-10.1,0.7-11.3,4.8c-1.2,3.9,2.2,8.3,6,10c-0.8,3.9-1.3,7.9-1.3,12c0,0,0,0,0,0c0,1,1,1.6,1.9,1.2
	c15.7-7.5,35-11.9,55.8-11.9c20.8,0,40.1,4.4,55.8,11.9c0.9,0.4,1.9-0.2,1.9-1.2c0,0,0,0,0,0c0-4.2-0.4-8.2-1.3-12.2
	C187.9,53.6,191,49.3,189.9,45.6z M154.5,34.1c0.1-0.1,0.2,0,0.2,0.2c-0.5,1.6,0.3,3.2,1.3,2.2c0.9-0.9,2.3-2.1,3.6-2.2
	c0.1,0,0.2,0.1,0.1,0.2c-0.3,0.5-0.8,1.6,0.1,2.4c0.6,0.5,2-0.1,2.4-0.3c0.1,0,0.2,0,0.2,0.1c0.2,0.5,0.6,2.1-0.3,3.8
	c0,0.1-0.1,0.1-0.1,0.2c0,0,0,0,0,0c0,0,0,0,0,0c-0.2,0.2-0.4,0.2-0.6,0.1c-1.4-0.9-3-1.4-4.8-1.4c-1.8,0-3.4,0.5-4.8,1.4
	c-0.4,0.2-0.8-0.1-0.8-0.5c0,0,0,0,0,0C151.2,40.2,151.6,35.9,154.5,34.1z M90.8,36.6c0-0.1,0.1-0.1,0.2-0.1
	c0.4,0.2,1.8,0.8,2.4,0.3c0.9-0.8,0.4-1.9,0.1-2.4c-0.1-0.1,0-0.2,0.1-0.2c1.4,0.1,2.8,1.3,3.6,2.2c1,1,1.8-0.6,1.3-2.2
	c0-0.1,0.1-0.2,0.2-0.2c2.9,1.8,3.3,6.1,3.3,6.1c0,0,0,0,0,0c0,0.4-0.4,0.7-0.8,0.5c-1.4-0.9-3-1.4-4.8-1.4c-1.8,0-3.4,0.5-4.8,1.4
	c-0.2,0.1-0.5,0.1-0.6-0.1c0,0,0,0,0,0c0,0,0,0,0,0c0,0-0.1-0.1-0.1-0.2C90.1,38.8,90.6,37.1,90.8,36.6z M96.5,56.4
	c-3.4,0-6.2-2.8-6.2-6.2c0-3.4,2.8-6.2,6.2-6.2s6.2,2.8,6.2,6.2C102.7,53.6,99.9,56.4,96.5,56.4z M157,56.4c-3.4,0-6.2-2.8-6.2-6.2
	c0-3.4,2.8-6.2,6.2-6.2s6.2,2.8,6.2,6.2C163.2,53.6,160.4,56.4,157,56.4z"/>
<path d="M123.1,72.2c0,0,3.1-1.9,5.5,0l-0.4-2.9h-4.6L123.1,72.2z"/>
</svg>
