<?xml version="1.0" encoding="utf-8"?>
<!-- Generator: Adobe Illustrator 28.0.0, SVG Export Plug-In . SVG Version: 6.00 Build 0)  -->
<svg version="1.1" xmlns="http://www.w3.org/2000/svg" xmlns:xlink="http://www.w3.org/1999/xlink" x="0px" y="0px"
	 viewBox="0 0 200 100" style="enable-background:new 0 0 200 100;" xml:space="preserve">
<style type="text/css">
	.st0{fill:none;stroke:#FFFCF0;stroke-width:3;stroke-miterlimit:10;}
	.st1{fill:#FFFCF0;}
</style>
<g id="Layer_2">
</g>
<g id="Layer_1">
	<path class="st0" d="M149.7,44.1c-0.1-0.2-0.4,0.4-0.6,0.4h-3.6l1.6-4.8c0.1-0.2,0.1-0.1-0.1-0.3c-0.1-0.2-0.4,0.1-0.6,0.1h-4.8
		l7.5-20.7c0.3-0.7,0.2-1.8-0.3-2.4c-0.4-0.6-1.1-1.2-1.8-1.2L99.5,6.6l-47.6,8.5c-0.7,0-1.4,0.3-1.8,0.9c-0.4,0.6-0.5,2.1-0.3,2.8
		l7.4,20.7h-4.8c-0.2,0-0.5-0.6-0.6-0.4c-0.1,0.2-0.2,0.8-0.1,1l1.6,4.4h-3.6c-0.2,0-0.5-0.6-0.6-0.4c-0.1,0.2-0.2,0.1-0.1,0.3
		l4.7,13c0.1,0.3,0.4,1.1,0.7,1.1h4.1l1.3,3.5c0.1,0.3,0.4,0.5,0.7,0.5h5.1l6.2,15.9c0.2,0.5,0.5,0.4,1,0.7l25.6,14.5
		c0.3,0.2,0.7,0.2,1.1,0.2s0.8-0.2,1.1-0.4l25.1-14.6c0.4-0.3,0.8,0.2,1-0.3l6.4-16.2h5.3c0.3,0,0.6-0.3,0.7-0.5l1.3-3.5h4.1
		c0.3,0,0.6-1,0.7-1.3l4.7-12.4C149.9,44.6,149.9,44.3,149.7,44.1z"/>
	<path class="st1" d="M99.5,48.8c-0.1,0-0.1,0-0.2,0l-29.8-8.7c-0.3-0.1-0.6-0.4-0.5-0.8s0.4-0.6,0.7-0.6h59.6
		c0.4,0,0.7,0.3,0.7,0.6s-0.2,0.7-0.5,0.8l-29.8,8.7C99.6,48.8,99.5,48.8,99.5,48.8z"/>
</g>
</svg>
