<?xml version="1.0" encoding="utf-8"?>
<!-- Generator: Adobe Illustrator 27.0.1, SVG Export Plug-In . SVG Version: 6.00 Build 0)  -->
<svg version="1.1" id="Layer_1" xmlns="http://www.w3.org/2000/svg" xmlns:xlink="http://www.w3.org/1999/xlink" x="0px" y="0px"
	 viewBox="0 0 255 100" style="enable-background:new 0 0 255 100;" xml:space="preserve">
<circle cx="216.3" cy="75.1" r="7.4"/>
<g>
	<path d="M48,16.5H30.9c-0.6,0-1,0.6-0.8,1.2L33.6,28c0.1,0.4,0.5,0.6,0.8,0.6h2.6c0.4,0,0.7,0.2,0.8,0.6l18.1,52.7
		c0.1,0.4,0.5,0.6,0.8,0.6h13.4c0.4,0,0.7-0.2,0.8-0.6l22-64.3c0.2-0.6-0.2-1.2-0.8-1.2H67.7c-0.6,0-1,0.6-0.8,1.2L70.5,28
		c0.1,0.4,0.5,0.6,0.8,0.6h2.4c0.6,0,1,0.6,0.9,1.1L64.5,64.5c-0.2,0.9-1.5,0.9-1.7,0l-14-47.4C48.7,16.8,48.4,16.5,48,16.5z"/>
	<path d="M198.9,82l11.4-30.9c0.1-0.3,0.1-0.6-0.1-0.8l-24.8-33.4c-0.2-0.2-0.4-0.4-0.7-0.4h-26.4c-0.6,0-1,0.6-0.8,1.2L161,28
		c0.1,0.4,0.5,0.6,0.8,0.6h2.9c0.6,0,1,0.6,0.9,1.1l-10.1,34.8c-0.2,0.9-1.5,0.9-1.7,0l-14-47.4c-0.1-0.4-0.5-0.6-0.9-0.6h-26.8
		c-0.6,0-1,0.6-0.8,1.2L115,28c0.1,0.4,0.5,0.6,0.8,0.6h2.8c0.6,0,1,0.6,0.9,1.1l-10,34.6c-0.3,0.9-1.5,0.9-1.7,0l-9.5-37.2
		c-0.2-0.9-1.4-0.9-1.7-0.1l-6.1,18c-0.1,0.2-0.1,0.4,0,0.5L101,81.9c0.1,0.4,0.5,0.6,0.9,0.6h13.3c0.4,0,0.7-0.2,0.8-0.6l14.6-42.9
		c0.3-0.8,1.4-0.8,1.7,0l14.7,42.9c0.1,0.4,0.5,0.6,0.8,0.6h13.4c0.4,0,0.7-0.2,0.8-0.6L179.2,32c0.2-0.7,1.1-0.8,1.5-0.3l16.4,19.5
		c0.2,0.2,0.3,0.6,0.2,0.9l-6.1,17.7c-0.1,0.4-0.5,0.6-0.8,0.6h-4.5c-0.6,0-1-0.6-0.9-1.2l0.3-1c0.2-0.6-0.2-1.2-0.9-1.2h-10
		c-0.4,0-0.7,0.2-0.8,0.6L169,81.4c-0.2,0.6,0.2,1.2,0.8,1.2h28.3C198.5,82.5,198.8,82.3,198.9,82z"/>
</g>
</svg>
