<?xml version="1.0" encoding="utf-8"?>
<!-- Generator: Adobe Illustrator 28.0.0, SVG Export Plug-In . SVG Version: 6.00 Build 0)  -->
<svg version="1.1" xmlns="http://www.w3.org/2000/svg" xmlns:xlink="http://www.w3.org/1999/xlink" x="0px" y="0px"
	 viewBox="0 0 824 928" style="enable-background:new 0 0 824 928;" xml:space="preserve">
<style type="text/css">
	.st0{display:none;}
	.st1{display:inline;fill:#F7C49A;}
	.st2{display:inline;opacity:0.5;fill:#D1D2EA;}
	.st3{display:none;fill:#F15A22;stroke:#000000;stroke-miterlimit:10;}
	.st4{fill:#B3B3B3;stroke:#000000;stroke-miterlimit:10;}
	.st5{display:none;fill:#F58337;stroke:#000000;stroke-miterlimit:10;}
	.st6{fill:#808080;stroke:#000000;stroke-miterlimit:10;}
	.st7{fill:#666666;stroke:#000000;stroke-miterlimit:10;}
	.st8{display:none;fill:#231F20;stroke:#000000;stroke-miterlimit:10;}
	.st9{fill:#1A1A1A;stroke:#000000;stroke-miterlimit:10;}
	.st10{fill:#333333;stroke:#000000;stroke-miterlimit:10;}
	.st11{fill:#4D4D4D;stroke:#000000;stroke-miterlimit:10;}
	.st12{display:none;fill:#3D3356;stroke:#000000;stroke-miterlimit:10;}
	.st13{display:none;fill:#EDE6CE;}
	.st14{display:none;fill:#231F20;}
	.st15{fill:#CCCCCC;stroke:#000000;stroke-miterlimit:10;}
	.st16{fill:#F2F2F2;stroke:#000000;stroke-miterlimit:10;}
	.st17{clip-path:url(#SVGID_00000039824381795713142010000017270234574198603662_);}
	.st18{clip-path:url(#SVGID_00000039824381795713142010000017270234574198603662_);fill:#F2F2F2;}
	.st19{clip-path:url(#SVGID_00000039824381795713142010000017270234574198603662_);fill:#999999;}
	
		.st20{clip-path:url(#SVGID_00000039824381795713142010000017270234574198603662_);fill:none;stroke:#000000;stroke-width:3;stroke-miterlimit:10;}
	.st21{fill:none;stroke:#000000;stroke-width:2;stroke-miterlimit:10;}
	.st22{display:inline;}
	.st23{display:inline;clip-path:url(#SVGID_00000152260553140435486060000008947671815637828791_);}
	.st24{display:inline;clip-path:url(#SVGID_00000152260553140435486060000008947671815637828791_);fill:#FFF4DE;}
	.st25{display:inline;clip-path:url(#SVGID_00000152260553140435486060000008947671815637828791_);fill:#FFE500;}
	
		.st26{display:inline;clip-path:url(#SVGID_00000152260553140435486060000008947671815637828791_);fill:#BA365D;stroke:#000000;stroke-miterlimit:10;}
	.st27{clip-path:url(#SVGID_00000168088769217687231120000014646289475596821900_);}
	
		.st28{clip-path:url(#SVGID_00000168088769217687231120000014646289475596821900_);fill:#CCCCCC;stroke:#000000;stroke-miterlimit:10;}
	.st29{clip-path:url(#SVGID_00000168088769217687231120000014646289475596821900_);fill:#F2F2F2;}
	.st30{clip-path:url(#SVGID_00000168088769217687231120000014646289475596821900_);fill:#999999;}
	
		.st31{clip-path:url(#SVGID_00000168088769217687231120000014646289475596821900_);fill:none;stroke:#000000;stroke-width:3;stroke-miterlimit:10;}
	.st32{clip-path:url(#SVGID_00000044861544504516559430000006739399813718881699_);}
	.st33{clip-path:url(#SVGID_00000044861544504516559430000006739399813718881699_);fill:#F2F2F2;}
	.st34{clip-path:url(#SVGID_00000044861544504516559430000006739399813718881699_);fill:#CCCCCC;}
	
		.st35{clip-path:url(#SVGID_00000044861544504516559430000006739399813718881699_);fill:none;stroke:#000000;stroke-width:2;stroke-miterlimit:10;}
	.st36{fill:#808080;stroke:#000000;stroke-width:2;stroke-miterlimit:10;}
	.st37{display:none;fill:#FFE500;stroke:#000000;stroke-miterlimit:10;}
	.st38{display:inline;fill:#EDE6CE;stroke:#000000;stroke-miterlimit:10;}
	.st39{fill:#231F20;stroke:#000000;stroke-miterlimit:10;}
	.st40{fill:#756468;stroke:#000000;stroke-miterlimit:10;}
	.st41{stroke:#000000;stroke-miterlimit:10;}
	.st42{fill:#4D4D4D;}
	.st43{display:none;fill:#BA365D;stroke:#000000;stroke-miterlimit:10;}
	.st44{display:none;fill:#D9B492;stroke:#000000;stroke-miterlimit:10;}
</style>
<g id="Layer_4_copy" class="st0">
	<path class="st1" d="M575.9,294.8l-14.6,53.2c-0.2,0.7-0.3,1.4-0.3,2.1L552.3,559c-0.2,4.2,2.4,8,6.3,9.4l42.5,15.5
		c1.9,0.7,3.5,2,4.6,3.6l53.6,79c1.1,1.6,1.7,3.5,1.7,5.4v40.7c0,4.4-2.9,8.2-7.1,9.3l-123.7,32.7c-5.1,1.3-8.1,6.5-6.9,11.6
		l3.3,13.4c0.8,3.4,3.4,6,6.8,6.9l90.5,24.6c4.2,1.1,7.1,4.9,7.1,9.3v11c0,5.3-4.3,9.6-9.6,9.6l-124.7-0.9c-5.3,0-9.6,4.3-9.6,9.6
		l0,0c0,5.1,4,9.3,9,9.6l117,8.1c6.1,0.4,10.4,6.3,8.6,12.3l-1.8,6.2c-1.1,3.8-4.4,6.5-8.3,6.9l-140.5,13.9c-3.2,0.3-6,2.2-7.5,5
		l-70.5,103.7c-1.3,2.4-3.6,4.2-6.3,4.8l-237.1,50.4c-6,1.3-11.7-3.2-11.7-9.4V267.6c0-5.3,4.3-9.6,9.6-9.6h366.3
		c1.4,0,2.8,0.3,4.1,0.9l52.7,24.7C574.9,285.6,577.1,290.3,575.9,294.8z"/>
</g>
<g id="Layer_1">
</g>
<g id="Layer_2" class="st0">
	<circle class="st2" cx="379.5" cy="506" r="102.6"/>
	<path class="st2" d="M325,419.1c-0.1,0-0.1,0.1-0.2,0.1l108.9,173.9c0.1,0,0.1-0.1,0.2-0.1c48-30.1,62.5-93.4,32.5-141.4
		S373,389,325,419.1z"/>
</g>
<g id="Layer_3">
</g>
<g id="Layer_5">
</g>
<g id="Layer_14">
</g>
<g id="Layer_9">
	<circle class="st3" cx="428.5" cy="406.1" r="343.8"/>
	<path class="st4" d="M300.4,134.2l237.3,645.2c173.9-67.9,262.2-262.9,197.5-438.9S476.9,73.3,300.4,134.2z"/>
	<path class="st5" d="M343.4,124.8c-6.6-27.2-36.5-41.6-61.9-29.6c-53,25.1-98.6,63.4-132.5,110.6c-40.5,56.4-64.4,125.6-64.4,200.4
		C84.6,596,238.6,750,428.5,750c0,0,0,0,0,0v-88.5c0,0,0,0,0,0c-141,0-255.4-114.3-255.4-255.4c0-101.9,59.7-189.9,146.1-230.9
		C338.2,166.2,348.4,145.2,343.4,124.8L343.4,124.8z"/>
	<path class="st5" d="M428.5,661.5c-141,0-255.4-114.3-255.4-255.4c0-101.9,59.7-189.9,146.1-230.9c19-9,29.2-30.1,24.3-50.5v0
		c-6.6-27.2-36.5-41.6-61.9-29.6c-38.2,18.1-72.5,42.9-101.4,73.1l-40.5,2.4c-3,0.2-5.7,1.4-7.9,3.4l-39.4,37
		c-1.2,1.1-2.5,1.9-4,2.5l-14.3,5.6c-4.5,1.8-7.6,6.1-8,10.9l-0.2,2.6c-0.3,4.2,1.6,8.3,5,10.9l8.6,6.6c4.7,3.6,11.2,3.4,15.7-0.3
		l1.4-1.2c3.1-2.5,4.8-6.4,4.6-10.3l-0.2-4c-0.2-3.5,1.2-7,3.7-9.5l30.6-30.9c2.6-2.6,6.2-4,9.9-3.7l14.6,1.1
		c-3.7,4.7-7.4,9.5-10.9,14.3c-40.5,56.4-64.4,125.6-64.4,200.4C84.6,596,238.6,750,428.5,750c0,0,0,0,0,0L428.5,661.5
		C428.5,661.5,428.5,661.5,428.5,661.5z"/>
	<path class="st6" d="M500.6,699c-132.4,48.7-279.1-19.2-327.8-151.5c-35.2-95.7-9.5-198.8,57.4-267.1c14.7-15,17.1-38.3,5.3-55.8
		l0,0c-15.6-23.3-48.6-26.4-68.3-6.4c-29.6,30.1-53.2,65.3-69.9,103.6l-37.2,16.2c-2.7,1.2-4.9,3.3-6.2,5.9l-24.2,48.3
		c-0.7,1.4-1.7,2.7-2.9,3.8l-11.5,10.2c-3.6,3.3-5.1,8.3-3.7,13l0.7,2.5c1.2,4.1,4.4,7.2,8.4,8.5l10.4,3.2
		c5.6,1.7,11.7-0.6,14.6-5.7l0.9-1.6c2-3.4,2.3-7.6,0.7-11.3l-1.5-3.7c-1.4-3.3-1.3-6.9,0.2-10.1l18.1-39.6c1.5-3.4,4.5-5.9,8-6.9
		l14.1-4c-1.9,5.7-3.7,11.4-5.3,17.2C62.4,434.6,63.9,507.8,89.7,578c65.5,178.2,263.2,269.6,441.4,204c0,0,0,0,0,0L500.6,699
		C500.6,698.9,500.6,698.9,500.6,699z"/>
	<path class="st7" d="M331.5,218.8c-168.4,69.4-222.7,240.3-163.3,402c24.4,66.2,67,120.5,120,159.1c75.3,29.2,161.1,32.2,242.9,2.1
		c2.2-0.8,4.4-1.7,6.6-2.5L331.5,218.8z"/>
	<circle class="st8" cx="446.9" cy="443.9" r="274.4"/>
	<circle class="st9" cx="420.4" cy="450.8" r="255.4"/>
	<circle class="st10" cx="412.4" cy="459.3" r="255.4"/>
	<path class="st6" d="M161.1,378.4l19.6,14.9c2.7,2.5,4.2,6.1,4,9.8l-1.9,43.5c-0.2,3.5-1.8,6.8-4.5,9.1l-3,2.6
		c-3,2.6-4.7,6.4-4.5,10.4l0.1,1.9c0.3,5.9,4.7,10.7,10.4,11.7l10.7,1.9c4.2,0.7,8.4-0.7,11.3-3.7l1.8-1.9c3.4-3.5,4.4-8.7,2.6-13.3
		l-5.5-14.3c-0.6-1.5-0.9-3.1-0.9-4.7l0.4-54.1c0-3-1-5.8-2.9-8.1l-18.2-36.3"/>
	<polygon class="st6" points="323.5,215.5 416.1,69.4 672.2,765.8 576.5,880.8 	"/>
	<polygon class="st9" points="252.5,24.5 394.5,9.5 506.9,316.2 361.5,315.5 	"/>
	<path class="st11" d="M810.2,614.5l-37.9,18.3c-2.5,1.2-5.5,0-6.4-2.6l-0.6-1.5c-0.9-2.4-3.6-3.7-6-2.8l-0.4,0.2
		c-2.1,0.8-3.3,2.8-3,5l2.3,17.2c0.2,1.5-0.3,2.9-1.4,4l-47.3,46.4c-1.1,1.1-2.7,1.6-4.2,1.2l-62-12.8L416.1,69.4l-80.7,29.7
		l241.1,781.7l156,39.7l-78.7-204.8l66.3,6.1c1.5,0.1,2.9-0.4,3.9-1.5L766,674c0.5-0.6,1.2-1,2-1.3l25.3-8.7
		c2.5-0.9,3.8-3.6,2.9-6.1l-5.7-15.1c-0.8-2.1,0-4.4,1.8-5.6l22.6-14.7c1.8-1.2,2.6-3.5,1.8-5.5
		C815.7,614.5,812.7,613.3,810.2,614.5z"/>
	<polygon class="st12" points="480.5,41.5 566.5,41.5 566.5,779.5 428.5,1298.5 	"/>
	<g id="Layer_16">
		<path class="st13" d="M510.8,489.2c0.1-0.1,0.3-0.2,0.4-0.4c45.7-45.7,45.7-119.7,0-165.4c-45.7-45.7-119.7-45.7-165.4,0
			c-0.1,0.1-0.2,0.3-0.4,0.4L510.8,489.2z"/>
		<path class="st14" d="M511.2,488.8c0.1-0.1,0.2-0.2,0.3-0.3L346.1,323.1c-0.1,0.1-0.2,0.2-0.3,0.3c-45.7,45.7-45.7,119.7,0,165.4
			C391.5,534.5,465.5,534.5,511.2,488.8z"/>
		<path class="st9" d="M306.5,409.8c-0.1,0.1-0.1,0.3-0.2,0.4c-13.9,30.1-13.9,63.2-2.7,91.8l-48.5,10.8c-4.5,1-7.3,5.5-6.1,10
			l9.2,35.2c1.1,4.1-1.1,8.2-5.1,9.7l-21.1,7.8c-4.2,1.6-6.4,6.2-4.8,10.4L231,596c1.6,4.2,6.2,6.4,10.4,4.8l37.4-13.8
			c4.2-1.5,6.3-6.1,4.9-10.3l-10.9-31.5c-1.9-5.3,2.2-10.9,7.8-10.8l42.8,0.8c10.6,12.5,24,22.9,39.9,30.2
			c9.7,4.5,19.6,7.5,29.7,9.2l-3.4,41.7c-0.2,2,0.4,4.1,1.5,5.8l24,34.6c2.2,3.1,2.1,7.3-0.2,10.3l-14.9,19.7
			c-2.1,2.8-2.4,6.6-0.6,9.7c3,5.3,14.6,11.9,18.6,7.3l25.4-29.2c2.7-3.1,2.9-7.7,0.5-11L408.5,615c-2-2.8-2.3-6.5-0.6-9.5
			l16.8-29.9c39.5-4.2,75.9-28.5,93.8-67.2c0.1-0.1,0.1-0.3,0.2-0.4L306.5,409.8z"/>
		<g>
			<path class="st7" d="M306.5,409.8c-0.1,0.1-0.1,0.3-0.2,0.4c-13.9,30.1-13.9,63.2-2.7,91.8l-48.5,10.8c-4.5,1-7.3,5.5-6.1,10
				l9.2,35.2c1.1,4.1-1.1,8.2-5.1,9.7l-21.1,7.8c-4.2,1.6-6.4,6.2-4.8,10.4L231,596c1.4,3.7,5.1,5.8,8.9,5.2
				c-0.1-0.1-0.1-0.3-0.2-0.4l-3.7-10.1c-1.6-4.2,0.6-8.9,4.8-10.4l21.1-7.8c3.9-1.4,6.1-5.6,5.1-9.7l-9.2-35.2
				c-1.2-4.5,1.6-9,6.1-10l48.5-10.8c-11.3-28.7-11.2-61.7,2.7-91.8c0.1-0.1,0.1-0.3,0.2-0.4"/>
			<path class="st7" d="M408.2,701.2c-1.7-3.1-1.5-6.9,0.6-9.7l14.9-19.7c2.3-3,2.4-7.2,0.2-10.3l-26.4-41.2
				c-1.2-1.7-1.7-3.7-1.5-5.8l5.9-35.1c-0.8-3.6-5.7-4.2-8.7-5l-3.4,41.9c-0.2,2,0.4,4.1,1.5,5.8l24,34.6c2.2,3.1,2.1,7.3-0.2,10.3
				l-14.9,19.7c-2.1,2.8-2.4,6.6-0.6,9.7c1.9,3.3,7.2,7.2,11.9,8.4C410,703.7,408.8,702.4,408.2,701.2z"/>
		</g>
		<path class="st15" d="M622.5,373.1L591,344.6c-6.1-5.5-15.6-4.4-20.3,2.2l-4.4,6.3c-4,5.7-3.1,13.4,2.1,18l7.1,6.3
			c4.5,4,5.8,10.5,3.3,15.9l-19.4,42.1c-1.9,4.1-5.7,7-10.1,7.7l-20.5,3.5c-4.3-39.4-28.6-75.6-67.2-93.4
			c-43.2-20-92.2-11.4-125.9,18l-23-30c-1.9-2.4-2.2-5.7-0.9-8.5l13.3-28.7c2-4.3,7.1-6,11.3-3.9c3.6,1.8,7.9,0.9,10.4-2.3l6.7-8.7
			c1.7-2.2,2.2-5.2,1.2-7.9l-8.7-23.7c-1.1-3-3.8-5.1-7-5.4l-22.1-2.2c-3-0.3-5.8,1-7.6,3.5l-6.5,9.1c-1.3,1.8-1.8,4-1.4,6.2
			l1.8,10.5c0.2,1.5,0.1,3-0.4,4.3L278.9,345c-1.3,3.5-0.2,7.4,2.8,9.6l40.6,30.1c-6.3,7.6-11.7,16.1-16,25.5
			c-0.1,0.2-0.1,0.3-0.2,0.5l212.3,98.1c0.1-0.2,0.2-0.3,0.2-0.5c3.7-8.1,6.5-16.3,8.2-24.7l38-12.1c3.8-1.2,6.8-4,8.4-7.6l25-58.1
			c1.9-4.4,5.9-7.4,10.6-8.1l6.6-1c3.3-0.5,6.3-2.1,8.4-4.6C628.5,386.5,628,378.1,622.5,373.1z"/>
		<g>
			<path class="st16" d="M569.9,372.5c-0.2-3,0.6-6.1,2.4-8.8l4.4-6.3c4.7-6.7,14.2-7.7,20.3-2.2l29.9,27.1
				c-0.2-3.4-1.7-6.7-4.4-9.1L591,344.6c-6.1-5.5-15.6-4.4-20.3,2.2l-4.4,6.3c-4,5.7-3.1,13.4,2.1,18L569.9,372.5z"/>
			<path class="st16" d="M529.6,459.2l25.6-5.5c4.4-0.7,8.2-3.6,10.1-7.7l19.4-42.1c2.5-5.5,1.2-11.9-3.3-15.9l-1.5-1.3
				c0.2,2.2-0.2,4.5-1.2,6.7l-19.4,42.1c-1.9,4.1-5.7,7-10.1,7.7l-20,3.4C529.3,446.5,523.6,448.6,529.6,459.2z"/>
			<path class="st16" d="M285,355.5l23.6-61.5c0.5-1.4,0.7-2.9,0.4-4.3l-1.8-10.5c-0.4-2.2,0.1-4.4,1.4-6.2l6.5-9.1
				c1.7-2.4,4.6-3.7,7.6-3.5l22.1,2.2c1.2,0.1,2.2,0.5,3.2,1l-2.3-6.2c-1.1-3-3.8-5.1-7-5.4l-22.1-2.2c-3-0.3-5.8,1-7.6,3.5
				l-6.5,9.1c-1.3,1.8-1.8,4-1.4,6.2l1.8,10.5c0.2,1.5,0.1,3-0.4,4.3L278.9,345c-1.3,3.5-0.2,7.4,2.8,9.6l2.9,2.1
				C284.7,356.3,284.8,355.9,285,355.5z"/>
			<path class="st16" d="M353,372.9c33.7-29.3,71.4-29.1,114.5-9.1c21,9.7,37.7,24.9,49.4,43c-11.5-22.8-30.4-42-55.4-53.6
				c-43.2-20-92.2-11.4-125.9,18L353,372.9z"/>
			<path class="st16" d="M328.4,395.3l-6.3-11c-5,6.6-12.1,18.1-15.7,26c-0.1,0.2-0.1,0.3-0.2,0.5l9.2,4.2
				C319,407.8,323.4,401.3,328.4,395.3z"/>
		</g>
		<circle cx="444.8" cy="396.6" r="7.5"/>
		<circle cx="472.7" cy="408.7" r="7.5"/>
		<g id="Layer_17">
			<defs>
				<path id="SVGID_1_" d="M470.9,460.5c4.4,2,9.5-1.1,9.7-5.9c0.8-17.1-8.7-33.7-25.1-41.3c-16.5-7.6-35.3-4-47.8,7.6
					c-3.6,3.3-2.6,9.2,1.8,11.2L470.9,460.5z"/>
			</defs>
			<clipPath id="SVGID_00000090272582543869770210000001367161852379992494_">
				<use xlink:href="#SVGID_1_"  style="overflow:visible;"/>
			</clipPath>
			<path style="clip-path:url(#SVGID_00000090272582543869770210000001367161852379992494_);" d="M470.9,460.5
				c4.4,2,9.5-1.1,9.7-5.9c0.8-17.1-8.7-33.7-25.1-41.3c-16.5-7.6-35.3-4-47.8,7.6c-3.6,3.3-2.6,9.2,1.8,11.2L470.9,460.5z"/>
			<path style="clip-path:url(#SVGID_00000090272582543869770210000001367161852379992494_);fill:#F2F2F2;" d="M457.7,426.7
				L457.7,426.7c2,0.9,4.4,0.1,5.3-2l4.6-10c0.9-2,0.1-4.4-2-5.3l0,0c-2-0.9-4.4-0.1-5.3,2l-4.6,10
				C454.9,423.4,455.7,425.7,457.7,426.7z"/>
			<path style="clip-path:url(#SVGID_00000090272582543869770210000001367161852379992494_);fill:#F2F2F2;" d="M468.1,434.6
				L468.1,434.6c2,0.9,4.4,0.1,5.3-2l4.6-10c0.9-2,0.1-4.4-2-5.3l0,0c-2-0.9-4.4-0.1-5.3,2l-4.6,10
				C465.2,431.3,466.1,433.7,468.1,434.6z"/>
			<path style="clip-path:url(#SVGID_00000090272582543869770210000001367161852379992494_);fill:#F2F2F2;" d="M445,420.8L445,420.8
				c2,0.9,4.4,0.1,5.3-2l4.6-10c0.9-2,0.1-4.4-2-5.3h0c-2-0.9-4.4-0.1-5.3,2l-4.6,10C442.1,417.5,443,419.9,445,420.8z"/>
			<path style="clip-path:url(#SVGID_00000090272582543869770210000001367161852379992494_);fill:#F2F2F2;" d="M431,417.4L431,417.4
				c2,0.9,4.4,0.1,5.3-2l4.6-10c0.9-2,0.1-4.4-2-5.3v0c-2-0.9-4.4-0.1-5.3,2l-4.6,10C428.1,414.1,429,416.5,431,417.4z"/>
			
				<circle style="clip-path:url(#SVGID_00000090272582543869770210000001367161852379992494_);fill:#999999;" cx="410.7" cy="440.1" r="25.5"/>
			
				<path style="clip-path:url(#SVGID_00000090272582543869770210000001367161852379992494_);fill:none;stroke:#000000;stroke-width:3;stroke-miterlimit:10;" d="
				M470.9,460.5c4.4,2,9.5-1.1,9.7-5.9c0.8-17.1-8.7-33.7-25.1-41.3c-16.5-7.6-35.3-4-47.8,7.6c-3.6,3.3-2.6,9.2,1.8,11.2
				L470.9,460.5z"/>
		</g>
		<line class="st21" x1="424.5" y1="445.6" x2="451.1" y2="457.7"/>
	</g>
	<circle cx="551.3" cy="639.8" r="8.9"/>
	<circle cx="579.5" cy="629.4" r="8.9"/>
	<g id="Layer_10" class="st0">
		<defs>
			<path id="SVGID_00000110434453147883644260000007133323385243004311_" d="M514.8,674L514.8,674c8.9,0,16.2,7.2,16.2,16.2l-1,34.3
				c0,3.6-2.9,6.5-6.5,6.5H494c-3.3,0-5-2.7-5-6v-25.2C489,685.6,500.6,674,514.8,674z"/>
		</defs>
		<clipPath id="SVGID_00000155111119874957607900000009201126832516371134_" class="st22">
			<use xlink:href="#SVGID_00000110434453147883644260000007133323385243004311_"  style="overflow:visible;"/>
		</clipPath>
		<path style="display:inline;clip-path:url(#SVGID_00000155111119874957607900000009201126832516371134_);" d="M514.8,674
			L514.8,674c8.9,0,16.2,7.2,16.2,16.2v46.2c0,3.7-3,6.6-6.6,6.6h-29.8c-3.1,0-5.6-2.5-5.6-5.6v-37.5C489,685.6,500.6,674,514.8,674
			z"/>
		<path style="display:inline;clip-path:url(#SVGID_00000155111119874957607900000009201126832516371134_);fill:#FFF4DE;" d="
			M522,685L522,685c2.2,0,4-1.8,4-4v-11c0-2.2-1.8-4-4-4l0,0c-2.2,0-4,1.8-4,4v11C518,683.2,519.8,685,522,685z"/>
		<path style="display:inline;clip-path:url(#SVGID_00000155111119874957607900000009201126832516371134_);fill:#FFE500;" d="
			M508,685L508,685c2.2,0,4-1.8,4-4v-11c0-2.2-1.8-4-4-4l0,0c-2.2,0-4,1.8-4,4v11C504,683.2,505.8,685,508,685z"/>
		
			<path style="display:inline;clip-path:url(#SVGID_00000155111119874957607900000009201126832516371134_);fill:#BA365D;stroke:#000000;stroke-miterlimit:10;" d="
			M491.5,707.8c0-2,1.4-3.7,3.4-4c1.2-0.2,2.4-0.3,3.6-0.3c14.1,0,25.5,11.7,25,26h-29.7c-1.2,0-2.2-1-2.2-2.2V707.8z"/>
	</g>
	<g id="Layer_15">
		<defs>
			<path id="SVGID_00000125570138116364890790000001786355733127687829_" d="M613.4,666.5l-67.6,24.9c-7,2.6-14.8-1-17.3-8v0
				c-2.6-7,1-14.8,8-17.3l67.6-24.9c7-2.6,14.8,1,17.3,8l0,0C623.9,656.2,620.4,664,613.4,666.5z"/>
		</defs>
		<clipPath id="SVGID_00000048475819797576199400000003931735166183244944_">
			<use xlink:href="#SVGID_00000125570138116364890790000001786355733127687829_"  style="overflow:visible;"/>
		</clipPath>
		<path style="clip-path:url(#SVGID_00000048475819797576199400000003931735166183244944_);" d="M613.4,666.5l-67.6,24.9
			c-7,2.6-14.8-1-17.3-8v0c-2.6-7,1-14.8,8-17.3l67.6-24.9c7-2.6,14.8,1,17.3,8l0,0C623.9,656.2,620.4,664,613.4,666.5z"/>
		
			<path style="clip-path:url(#SVGID_00000048475819797576199400000003931735166183244944_);fill:#CCCCCC;stroke:#000000;stroke-miterlimit:10;" d="
			M523.4,692.8c-1.6-4.4,0.1-9.4,4.2-11.6c2.5-1.3,5.1-2.5,7.8-3.5c31.3-11.5,66,5.2,76.4,37.2L546,739c-2.7,1-5.8-0.4-6.8-3.1
			L523.4,692.8z"/>
		<path style="clip-path:url(#SVGID_00000048475819797576199400000003931735166183244944_);fill:#F2F2F2;" d="M581.7,660.1
			L581.7,660.1c2.1-0.8,3.1-3.1,2.4-5.1l-3.8-10.3c-0.8-2.1-3.1-3.1-5.1-2.4l0,0c-2.1,0.8-3.1,3.1-2.4,5.1l3.8,10.3
			C577.3,659.8,579.6,660.8,581.7,660.1z"/>
		<path style="clip-path:url(#SVGID_00000048475819797576199400000003931735166183244944_);fill:#999999;" d="M568.5,664.9
			L568.5,664.9c2.1-0.8,3.1-3.1,2.4-5.1l-3.8-10.3c-0.8-2.1-3.1-3.1-5.1-2.4l0,0c-2.1,0.8-3.1,3.1-2.4,5.1l3.8,10.3
			C564.2,664.6,566.5,665.7,568.5,664.9z"/>
		
			<path style="clip-path:url(#SVGID_00000048475819797576199400000003931735166183244944_);fill:none;stroke:#000000;stroke-width:3;stroke-miterlimit:10;" d="
			M613.4,666.5l-67.6,24.9c-7,2.6-14.8-1-17.3-8v0c-2.6-7,1-14.8,8-17.3l67.6-24.9c7-2.6,14.8,1,17.3,8l0,0
			C623.9,656.2,620.4,664,613.4,666.5z"/>
	</g>
	<line class="st21" x1="564.9" y1="694.6" x2="600.7" y2="681.3"/>
	<circle cx="179" cy="238.7" r="7.5"/>
	<circle cx="202.9" cy="254.4" r="7.5"/>
	<g id="Layer_12">
		<defs>
			<path id="SVGID_00000093882588633442372660000002142834103418828698_" d="M141.3,318L141.3,318c-9.4-6.8-11.6-19.9-4.8-29.3
				l18.1-25.2c6.8-9.4,19.9-11.6,29.3-4.8l0,0c9.4,6.8,11.6,19.9,4.8,29.3l-18.1,25.2C163.9,322.6,150.7,324.8,141.3,318z"/>
		</defs>
		<clipPath id="SVGID_00000171704587818564698490000008002399718121856151_">
			<use xlink:href="#SVGID_00000093882588633442372660000002142834103418828698_"  style="overflow:visible;"/>
		</clipPath>
		<path style="clip-path:url(#SVGID_00000171704587818564698490000008002399718121856151_);" d="M141.3,318L141.3,318
			c-9.4-6.8-11.6-19.9-4.8-29.3l18.1-25.2c6.8-9.4,19.9-11.6,29.3-4.8l0,0c9.4,6.8,11.6,19.9,4.8,29.3l-18.1,25.2
			C163.9,322.6,150.7,324.8,141.3,318z"/>
		<path style="clip-path:url(#SVGID_00000171704587818564698490000008002399718121856151_);fill:#F2F2F2;" d="M168.1,265.9
			L168.1,265.9c-2.2-1.6-2.7-4.7-1.1-6.9l4.3-5.9c1.6-2.2,4.7-2.7,6.9-1.1v0c2.2,1.6,2.7,4.7,1.1,6.9l-4.3,5.9
			C173.4,267,170.3,267.5,168.1,265.9z"/>
		<path style="clip-path:url(#SVGID_00000171704587818564698490000008002399718121856151_);fill:#F2F2F2;" d="M181,273.4L181,273.4
			c-2.2-1.6-2.7-4.7-1.1-6.9l4.3-5.9c1.6-2.2,4.7-2.7,6.9-1.1l0,0c2.2,1.6,2.7,4.7,1.1,6.9l-4.3,5.9
			C186.3,274.5,183.2,275,181,273.4z"/>
		<path style="clip-path:url(#SVGID_00000171704587818564698490000008002399718121856151_);fill:#CCCCCC;" d="M180,296.4
			c1.3-1.9,0.8-4.5-1.2-5.7c-7.5-4.6-17-5.8-25.9-2.5c-7.4,2.7-13.1,8.1-16.4,14.6c-1,1.9-0.9,4.2,0.4,5.9c1.4,1.9,3.2,3.5,5.1,5.1
			c10.7,8.6,22.6,4,29.3-5.4L180,296.4z"/>
		
			<path style="clip-path:url(#SVGID_00000171704587818564698490000008002399718121856151_);fill:none;stroke:#000000;stroke-width:2;stroke-miterlimit:10;" d="
			M141.3,318L141.3,318c-9.4-6.8-11.6-19.9-4.8-29.3l18.1-25.2c6.8-9.4,19.9-11.6,29.3-4.8l0,0c9.4,6.8,11.6,19.9,4.8,29.3
			l-18.1,25.2C163.9,322.6,150.7,324.8,141.3,318z"/>
	</g>
	<path class="st36" d="M127.3,317c0,0,9.3,14.2,23.2,13.5"/>
	<path class="st37" d="M522.2,288.6l15.5-28.6l-0.1-0.1c-0.2-2.1-5.6-9.4-14.4-14.2c-8.8-4.8-17.8-5.3-19.7-4.3l-0.1-0.1L487.7,270
		c-13-5.9-22.5-8.8-23.6-6.7c-1.6,2.9,14.4,14.6,35.8,26.2c21.3,11.6,39.9,18.6,41.5,15.7C542.5,303.1,534.6,296.5,522.2,288.6z"/>
	<g class="st0">
		<path class="st38" d="M493,272.4l16-30.9l0.1,0.1c0.2-0.1,0.5-0.2,0.9-0.3c-3.3-0.5-5.7-0.4-6.6,0.1l-0.1-0.1L488,269.8
			C489.5,270.4,491.3,271.7,493,272.4z"/>
		<path class="st38" d="M505.6,289.7c-21.3-11.6-37.4-23.3-35.8-26.2c0-0.1,0.1-0.1,0.1-0.2c-3.3-0.8-5.4-0.9-5.9,0
			c-1.6,2.9,14.4,14.6,35.8,26.2c20.8,11.3,39,18.2,41.3,15.9C533.8,303.5,520.4,297.7,505.6,289.7z"/>
	</g>
	<path class="st39" d="M254.7,208.1l22.1-23.9l-0.1-0.1c0.3-2.1-3.1-10.5-10.5-17.3c-7.3-6.8-16-9.6-18.1-9.1l-0.1-0.1l-22.1,24
		c-11.1-8.9-19.7-14-21.2-12.3c-2.2,2.4,10.4,17.8,28.2,34.2s34.1,27.8,36.4,25.4C270.9,227.1,264.8,218.8,254.7,208.1z"/>
	<g>
		<path class="st40" d="M230.4,185.2l23.2-26l0.1,0.1c0.2-0.1,0.5-0.1,0.9,0c-3.1-1.3-5.5-1.8-6.5-1.5l-0.1-0.1l-21.8,23.8
			C227.6,182.4,229,184.1,230.4,185.2z"/>
		<path class="st40" d="M238.5,205c-17.8-16.5-30.5-31.8-28.2-34.2c0.1-0.1,0.1-0.1,0.2-0.1c-3-1.6-5-2.2-5.7-1.4
			c-2.2,2.4,10.4,17.8,28.2,34.2c17.4,16.1,33.3,27.3,36.2,25.5C262.4,225.4,250.8,216.4,238.5,205z"/>
	</g>
	<polygon class="st41" points="492.1,275.9 394.5,9.5 308.5,45.5 402.5,316.5 	"/>
	<polygon class="st42" points="308.5,45.5 252.5,24.5 394.5,9.5 	"/>
</g>
<g id="Layer_11">
	<path class="st43" d="M428.6,1100.9c0-224.9-182.3-407.2-407.2-407.2S-385.7,876-385.7,1100.9c0,222.2,178,402.9,399.2,407.1v7.5
		h415v-404C428.6,1108,428.6,1104.5,428.6,1100.9z"/>
	<path class="st44" d="M123.6,1186.9c0-224.9-102.1-313.4-388.1-297.4c-279.6,15.6-410.2,68.5-410.2,293.4
		c0,222.2,178,402.9,399.2,407.1v7.5l399,4v-404C123.6,1194,123.6,1190.5,123.6,1186.9z"/>
	<g id="Layer_13">
	</g>
</g>
<g id="Layer_7">
	<g id="Layer_8">
	</g>
</g>
<g id="Layer_18">
</g>
</svg>
