<?xml version="1.0" encoding="utf-8"?>
<!-- Generator: Adobe Illustrator 28.0.0, SVG Export Plug-In . SVG Version: 6.00 Build 0)  -->
<svg version="1.1" xmlns="http://www.w3.org/2000/svg" xmlns:xlink="http://www.w3.org/1999/xlink" x="0px" y="0px"
	 viewBox="0 0 900 900" style="enable-background:new 0 0 900 900;" xml:space="preserve">
<style type="text/css">
	.st0{display:none;}
	.st1{display:inline;}
	.st2{fill:#100F0F;}
	.st3{fill:#FFFCF0;}
	.st4{fill:#E50093;}
	.st5{fill:#FF9100;}
	.st6{fill:#0ADD78;}
	.st7{fill:none;stroke:#100F0F;stroke-width:3.582;stroke-linecap:round;stroke-miterlimit:10;}
	.st8{fill:none;stroke:#100F0F;stroke-width:9.5519;stroke-miterlimit:10;}
</style>
<g id="Layer_2" class="st0">
	<rect x="0.5" y="0.3" class="st1" width="900" height="900"/>
</g>
<g id="Layer_1">
	<circle class="st2" cx="448.8" cy="450.6" r="430.8"/>
	<path class="st3" d="M450.5,47.2c107.7,0,208.9,41.9,285,118.1c76.1,76.1,118.1,177.4,118.1,285s-41.9,208.9-118.1,285
		c-76.1,76.1-177.4,118.1-285,118.1s-208.9-41.9-285-118.1C89.3,659.2,47.3,558,47.3,450.3s41.9-208.9,118.1-285
		C241.5,89.1,342.8,47.2,450.5,47.2 M450.5,12.2c-241.9,0-438.1,196.1-438.1,438.1s196.1,438.1,438.1,438.1s438.1-196.1,438.1-438.1
		S692.4,12.2,450.5,12.2L450.5,12.2z"/>
	<path class="st3" d="M153.1,239.2c9,10.9,21.2,15.7,36.4,14.5c19.3-1.5,32.2-14.1,38-37.3c17.3,1.9,30.3-4,38.1-20.2
		c-20.6,0-41.2,0-61.6,0L153.1,239.2z"/>
	<circle class="st3" cx="157.4" cy="565.6" r="11.8"/>
	<circle class="st3" cx="607.9" cy="715.6" r="11.8"/>
	<circle class="st3" cx="761.5" cy="466.9" r="18"/>
	<circle class="st3" cx="370.3" cy="156.3" r="11.8"/>
	<path class="st4" d="M458.7,719.6h-5.8c-1.2,0-2.1-0.9-2.1-2.1v-5.8c0-1.2-0.9-2.1-2.1-2.1l0,0c-1.2,0-2.1,0.9-2.1,2.1v5.8
		c0,1.2-0.9,2.1-2.1,2.1h-5.8c-1.2,0-2.1,0.9-2.1,2.1v0c0,1.2,0.9,2.1,2.1,2.1h5.8c1.2,0,2.1,0.9,2.1,2.1v5.8c0,1.2,0.9,2.1,2.1,2.1
		l0,0c1.2,0,2.1-0.9,2.1-2.1v-5.8c0-1.2,0.9-2.1,2.1-2.1h5.8c1.2,0,2.1-0.9,2.1-2.1v0C460.8,720.5,459.9,719.6,458.7,719.6z"/>
	<g>
		<path class="st3" d="M156.6,437h-9.8c-2,0-3.6-1.6-3.6-3.6v-9.8c0-2-1.6-3.6-3.6-3.6l0,0c-2,0-3.6,1.6-3.6,3.6v9.8
			c0,2-1.6,3.6-3.6,3.6h-9.8c-2,0-3.6,1.6-3.6,3.6v0c0,2,1.6,3.6,3.6,3.6h9.8c2,0,3.6,1.6,3.6,3.6v9.8c0,2,1.6,3.6,3.6,3.6l0,0
			c2,0,3.6-1.6,3.6-3.6v-9.8c0-2,1.6-3.6,3.6-3.6h9.8c2,0,3.6-1.6,3.6-3.6v0C160.2,438.6,158.6,437,156.6,437z"/>
	</g>
	<g>
		<path class="st3" d="M474.2,624.4h-9.8c-2,0-3.6-1.6-3.6-3.6V611c0-2-1.6-3.6-3.6-3.6l0,0c-2,0-3.6,1.6-3.6,3.6v9.8
			c0,2-1.6,3.6-3.6,3.6h-9.8c-2,0-3.6,1.6-3.6,3.6v0c0,2,1.6,3.6,3.6,3.6h9.8c2,0,3.6,1.6,3.6,3.6v9.8c0,2,1.6,3.6,3.6,3.6l0,0
			c2,0,3.6-1.6,3.6-3.6v-9.8c0-2,1.6-3.6,3.6-3.6h9.8c2,0,3.6-1.6,3.6-3.6v0C477.8,626.1,476.2,624.4,474.2,624.4z"/>
	</g>
	<g>
		<path class="st3" d="M283.3,694.1h-9.8c-2,0-3.6-1.6-3.6-3.6v-9.8c0-2-1.6-3.6-3.6-3.6h0c-2,0-3.6,1.6-3.6,3.6v9.8
			c0,2-1.6,3.6-3.6,3.6h-9.8c-2,0-3.6,1.6-3.6,3.6v0c0,2,1.6,3.6,3.6,3.6h9.8c2,0,3.6,1.6,3.6,3.6v9.8c0,2,1.6,3.6,3.6,3.6h0
			c2,0,3.6-1.6,3.6-3.6v-9.8c0-2,1.6-3.6,3.6-3.6h9.8c2,0,3.6-1.6,3.6-3.6v0C286.9,695.7,285.3,694.1,283.3,694.1z"/>
	</g>
	<path class="st3" d="M691.8,541.6l-7.8-2.4c-1.6-0.5-2.5-2.2-2-3.7l2.4-7.8c0.5-1.6-0.4-3.2-2-3.7l0,0c-1.6-0.5-3.2,0.4-3.7,2
		l-2.4,7.8c-0.5,1.6-2.2,2.5-3.7,2l-7.8-2.4c-1.6-0.5-3.2,0.4-3.7,2l0,0c-0.5,1.6,0.4,3.2,2,3.7l7.8,2.4c1.6,0.5,2.5,2.2,2,3.7
		l-2.4,7.8c-0.5,1.6,0.4,3.2,2,3.7l0,0c1.6,0.5,3.2-0.4,3.7-2l2.4-7.8c0.5-1.6,2.2-2.5,3.7-2l7.8,2.4c1.6,0.5,3.2-0.4,3.7-2l0,0
		C694.2,543.7,693.3,542.1,691.8,541.6z"/>
	<path class="st5" d="M580.9,599.1h91.1c1.8,0,3.3,1.5,3.3,3.3v25.5c0,27-21.9,48.9-48.9,48.9h0c-27,0-48.9-21.9-48.9-48.9v-25.5
		C577.6,600.6,579.1,599.1,580.9,599.1z"/>
	<path class="st5" d="M691.7,623l-6.7,2.1c-2.7,0.9-5.5-1.2-5.5-4V604c0-2.8,2.8-4.9,5.5-4l6.7,2.1c1.7,0.6,2.9,2.2,2.9,4V619
		C694.6,620.8,693.4,622.4,691.7,623z"/>
	<path class="st5" d="M700.8,611.5l-0.2-7.1c0-0.8,0.3-1.6,0.9-2.2l14.8-14.8c1.1-1.1,3-1.1,4.2,0l5.3,5.3c1.2,1.2,1.1,3.2-0.2,4.3
		l-19.8,16.6C703.7,615.2,700.9,614,700.8,611.5z"/>
	<path class="st5" d="M726.5,559.6l-12.9-12.9v-17c0-1-0.6-1.9-1.5-2.2l-22.9-9.3c-1.6-0.6-3.3,0.5-3.3,2.2v2.9
		c0,1.4,0.7,2.8,1.9,3.6l14.3,9.3c0.7,0.4,1.1,1.2,1.1,2v7.2c0,1-0.6,1.8-1.5,2.2l-14.4,6c-0.9,0.4-1.5,1.2-1.5,2.2v4.1
		c0,1.6,1.5,2.7,3,2.3l15.3-4l11.8,11.8c1.5,1.5,4,1.5,5.5,0l4.9-4.9C728,563.6,728,561.1,726.5,559.6z"/>
	<path class="st5" d="M732.4,570.5c-5,0-9,4-9,9c0,5,4,9,9,9c5,0,9-4,9-9C741.3,574.6,737.3,570.5,732.4,570.5z M732.4,583.5
		c-2.2,0-3.9-1.8-3.9-3.9s1.8-3.9,3.9-3.9c2.2,0,3.9,1.8,3.9,3.9S734.5,583.5,732.4,583.5z"/>
	<path class="st4" d="M231.1,522H243c2.6,0,4.7-2.2,4.5-4.8l-18.9-245.7c-0.2-2.3-2.1-4.2-4.5-4.2h-19.6c-2.3,0-4.2,1.7-4.5,3.9
		l-31.8,245.7c-0.3,2.7,1.7,5.1,4.5,5.1h12.6c2.3,0,4.2-1.7,4.5-4l5-44.5c0.3-2.3,2.2-4,4.5-4h19.9c2.4,0,4.3,1.8,4.5,4.2l3,44.1
		C226.8,520.1,228.7,522,231.1,522z M197.9,445.6l9.4-83.5c0.6-5.5,8.6-5.3,9,0.2l5.6,83.5c0.2,2.6-1.9,4.8-4.5,4.8h-14.9
		C199.7,450.6,197.6,448.3,197.9,445.6z"/>
	<path class="st4" d="M314,517.5V343c0-2.5-2-4.5-4.5-4.5h0c-2.5,0-4.5-2-4.5-4.5l1-111.2c0-2.5-2-4.5-4.5-4.5h-40.1
		c-2.5,0-4.5,2-4.5,4.5l0.3,294.8c0,2.5,2,4.5,4.5,4.5h47.8C312,522,314,519.9,314,517.5z M287.1,241.7V334c0,2.5-2,4.5-4.5,4.5h-2
		c-2.5,0-4.5-2-4.5-4.5v-92.3c0-2.5,2-4.5,4.5-4.5h2C285,237.2,287.1,239.2,287.1,241.7z M290.7,503.1h-10.1c-2.5,0-4.5-2-4.5-4.5
		V361.8c0-2.5,2-4.5,4.5-4.5h10.1c2.5,0,4.5,2,4.5,4.5v136.8C295.2,501.1,293.2,503.1,290.7,503.1z"/>
	<path class="st4" d="M327.7,176v340.8c0,4.1,5,6.1,7.8,3.1l52-55.2c0.8-0.8,1.2-1.9,1.2-3.1V226.4c0-1.2-0.5-2.4-1.4-3.2l-52-50.4
		C332.4,170,327.7,172.1,327.7,176z M368.6,457.5L354.3,473c-2.8,3-7.8,1-7.8-3.1V222.1c0-4,4.8-6,7.7-3.2l14.3,14.3
		c0.8,0.8,1.3,2,1.3,3.2v218C369.8,455.6,369.4,456.6,368.6,457.5z"/>
	<path class="st4" d="M661,271.8v245.1c0,3.7,4.3,5.8,7.3,3.6l51.3-39.6c1.1-0.9,1.8-2.2,1.8-3.6V305.8c0-1.5-0.8-2.9-2-3.8L668,268
		C665,266,661,268.2,661,271.8z M700.7,470.4l-13.6,10.7c-3,2.3-7.3,0.2-7.3-3.5V307.8c0-3.6,4-5.7,7-3.8l13.6,9
		c1.3,0.8,2,2.2,2,3.8v150C702.5,468.2,701.8,469.5,700.7,470.4z"/>
	<path class="st4" d="M403.2,146.8v370.7c0,2.5,2,4.5,4.5,4.5h52.1c2.5,0,4.5-2,4.5-4.5V146.8c0-2.5-2.1-4.5-4.6-4.5l-9.8,0.1
		c-2.5,0-4.4,2-4.4,4.5v350.4c0,2.5-2,4.5-4.5,4.5l-14.4-0.1c-2.5,0-4.5-2-4.5-4.5V146.8c0-2.5-2-4.5-4.5-4.5h-9.9
		C405.2,142.3,403.2,144.3,403.2,146.8z"/>
	<path class="st4" d="M479.9,517.4V146.9c0-2.5,2-4.5,4.5-4.5h43.3c2.5,0,4.5,2,4.5,4.5v66.6c0,2.5-2,4.5-4.5,4.5h-9.9
		c-2.5,0-4.5-2-4.5-4.5v-47.8c0-2.5-2-4.5-4.5-4.5h-5.7c-2.5,0-4.5,2-4.5,4.5v332.8c0,2.5,2,4.5,4.5,4.5h8.2c2.5,0,4.5-2,4.5-4.5
		v-82.8c0-2.5,2-4.5,4.5-4.5h9.8c2.5,0,4.5,2,4.5,4.5v101.8c0,2.5-2,4.5-4.5,4.5h-45.8C481.9,521.9,479.9,519.9,479.9,517.4z"/>
	<path class="st4" d="M559.2,517.5V195.6c0-2.5-2-4.5-4.5-4.5h-11.9c-2.5,0-4.5-2-4.5-4.5v-9.8c0-2.5,2-4.5,4.5-4.5H596
		c2.5,0,4.5,2,4.5,4.5v9.8c0,2.5-2,4.5-4.5,4.5h-13.5c-2.5,0-4.5,2-4.5,4.5v321.8c0,2.5-2,4.5-4.5,4.5l-9.8,0
		C561.2,522,559.2,519.9,559.2,517.5z"/>
	<path class="st4" d="M596.3,517.5v-295c0-2.5,2-4.5,4.5-4.5h48c2.5,0,4.5,2,4.5,4.5v9.8c0,2.5-2,4.5-4.5,4.5h-29.3
		c-2.5,0-4.5,2-4.5,4.5v70c0,2.5,2,4.5,4.5,4.5H639c2.5,0,4.5,2,4.5,4.5v9.8c0,2.5-2,4.5-4.5,4.5h-19.4c-2.5,0-4.5,2-4.5,4.5v159.5
		c0,2.5,2,4.5,4.5,4.5h29.2c2.5,0,4.5,2,4.5,4.5v9.9c0,2.5-2,4.5-4.5,4.5h-48C598.3,522,596.3,520,596.3,517.5z"/>
	<path class="st5" d="M524.1,733.9l10.7-3.1c1.3-0.4,2.1-1.6,2-2.9L522,541.4c-0.1-1.4-1.3-2.5-2.8-2.5h-16.4c-1.4,0-2.6,1-2.7,2.4
		l-24.7,199.5c-0.2,1.8,1.3,3.3,3.1,3.1l11.1-1.6c1.3-0.2,2.2-1.2,2.4-2.4l5.2-48.8c0.2-1.4,1.3-2.5,2.7-2.5h15.1
		c1.5,0,2.7,1.1,2.8,2.6l2.7,40.3C520.7,733.2,522.4,734.4,524.1,733.9z M499.7,666.9l6.8-62.9c0.4-3.4,5.3-3.3,5.5,0.1l4.2,62.9
		c0.1,1.6-1.2,3-2.8,3h-11C500.9,669.9,499.6,668.5,499.7,666.9z"/>
	<path class="st6" d="M370.3,729.3V610.8c0-1.5-1.2-2.8-2.8-2.8h-5.9c-1.5,0-2.8-1.2-2.8-2.8v-63.7c0-1.5-1.2-2.8-2.8-2.8h-44.6
		c-1.5,0-2.8,1.2-2.8,2.8v165.2c0,1.1,0.7,2.1,1.7,2.6l56,22.5C368.3,732.6,370.3,731.2,370.3,729.3z M341,560.4v44.8
		c0,1.5-1.2,2.8-2.8,2.8h-7.9c-1.5,0-2.8-1.2-2.8-2.8v-44.8c0-1.5,1.2-2.8,2.8-2.8h7.9C339.7,557.7,341,558.9,341,560.4z
		 M347.8,701.6l-18.3-6.3c-1.1-0.4-1.9-1.4-1.9-2.6v-63.1c0-1.5,1.2-2.8,2.8-2.8h18.3c1.5,0,2.8,1.2,2.8,2.8V699
		C351.5,700.9,349.6,702.2,347.8,701.6z"/>
	<path class="st6" d="M367.9,542.4l30.8,96.4c0.1,0.3,0.1,0.6,0.1,0.9l-0.4,97.9c0,1.4,1,2.6,2.4,2.8l13.6,1.7
		c1.6,0.2,3.1-1.1,3.1-2.7V639.1c0-0.3,0-0.6,0.1-0.8l30.8-95.8c0.6-1.8-0.8-3.6-2.6-3.6h-13.7c-1.2,0-2.3,0.8-2.7,2l-18.7,67.8
		c-0.7,2.7-4.6,2.7-5.3,0l-19.3-67.8c-0.3-1.2-1.4-2-2.7-2h-13C368.6,538.8,367.3,540.7,367.9,542.4z"/>
	<path class="st5" d="M548.8,724V540.7c0-1.5,1.2-2.8,2.8-2.8h13.3c1.5,0,2.8,1.2,2.8,2.8V719c0,1.2-0.7,2.2-1.8,2.6l-13.3,5
		C550.7,727.3,548.8,725.9,548.8,724z"/>
	<g>
		<path class="st3" d="M394.9,769.5c-19.8-3.4-43.5-10.3-43.5-23.6c0-8.9,10.3-16,30.6-21.1c17.8-4.5,41.4-7.1,66.5-7.1l1.1,0
			c46.3,0,96.1,8.7,96.2,27.7c0,13.3-23.6,20.3-43.4,23.8l-10,1.8l4.4-7.9c-3.6-2.8-19.9-7.5-47.6-7.5l-0.7,0
			c-28.1,0.1-44.6,4.9-48.3,7.8l4.5,7.8L394.9,769.5z"/>
		<path class="st2" d="M449.7,722.3c50.5,0,91.4,10.2,91.4,22.9c0,7.9-15.6,14.9-39.4,19.1c0.3-0.5,0.5-1,0.5-1.6
			c0-6.7-23.6-12.1-52.8-12.1c-0.2,0-0.5,0-0.7,0c-29.5,0.1-53.5,5.6-53.4,12.4c0,0.5,0.2,1.1,0.5,1.6c-23.9-4.1-39.5-11-39.5-18.9
			c0-12.8,41.3-23.3,92.4-23.5C448.9,722.4,449.3,722.3,449.7,722.3 M449.7,712.8l-1.2,0c-25.5,0.1-49.5,2.7-67.7,7.3
			c-9.4,2.4-16.9,5.2-22.3,8.5c-9.9,5.9-11.9,12.7-11.9,17.3c0,7.9,5.5,14.4,16.3,19.5c7.7,3.6,18.2,6.6,31.1,8.8l20,3.5l-7-12.2
			c6.7-2.3,21.1-5,41.6-5.1l0.7,0c20.1,0,34.3,2.6,40.9,4.8l-6.9,12.2l20-3.6c12.9-2.3,23.4-5.3,31.1-9
			c10.8-5.1,16.2-11.7,16.2-19.6c0-4.6-2.1-11.3-11.9-17.1c-5.4-3.2-12.8-6-22.1-8.3C498.7,715.3,474.9,712.8,449.7,712.8
			L449.7,712.8z"/>
	</g>
	<g>
		<g>
			<path class="st3" d="M401.6,714.4c4.4-15.2,24-26.3,46.8-26.4l0.2,0c22.9,0,42.1,10.7,46.7,26l2.1,6.9l-7.1-1.4
				c-12.1-2.4-26.3-3.6-40.8-3.6l-0.9,0c-15,0.1-29.4,1.4-41.9,3.9l-7.1,1.4L401.6,714.4z"/>
			<path class="st2" d="M448.6,692.4c21.1,0,38.6,9.8,42.5,22.9c-12-2.3-26.3-3.7-41.6-3.7c-0.3,0-0.6,0-0.9,0
				c-15.8,0.1-30.5,1.5-42.7,4c3.8-13.1,21.4-23.1,42.6-23.2C448.5,692.4,448.5,692.4,448.6,692.4 M448.6,683.7L448.6,683.7l-0.2,0
				c-25,0.1-46,12.2-51,29.5l-4,13.8l14.1-2.9c12.2-2.5,26.3-3.8,41-3.8l0.9,0c14.3,0,28.1,1.2,40,3.5l14.2,2.7l-4.1-13.8
				C494.4,695.6,473.5,683.7,448.6,683.7L448.6,683.7z"/>
		</g>
	</g>
	<path class="st3" d="M522.5,807.1H376.9l46.3-37.8c7.7-5.7,17-8.7,26.6-8.7h0c9.6,0,18.9,3.1,26.6,8.7L522.5,807.1z"/>
	<path class="st6" d="M285.9,590.4c-1.1-29.3-13.3-52.3-42.1-52.3c-28.8,0-41,23-42.1,52.2c-9.2,8.7-8.8,25.5,1.4,38.6
		c5,6.5,11.6,10.9,18.2,12.9L235,657c4.9,5.4,12.8,5.4,17.6,0l13.8-15.3c6.5-2,13-6.4,18-12.8C294.5,615.8,295,599.1,285.9,590.4z
		 M245.6,632.1c1-0.4,2.4,0.8,3.1,2.6c0.7,1.8,0.4,3.7-0.6,4.1c-1,0.4-2.4-0.8-3.1-2.6C244.4,634.3,244.6,632.5,245.6,632.1z
		 M238.8,634.7c0.7-1.8,2.1-3,3.1-2.6c1,0.4,1.3,2.2,0.6,4.1c-0.7,1.8-2.1,3-3.1,2.6C238.3,638.4,238.1,636.6,238.8,634.7z
		 M233.5,626.3c-5.5,4.3-14.5,2-20-5.2c-5.5-7.1-5.6-16.4,0-20.7c5.5-4.3,14.5-2,20,5.2C239,612.7,239,622,233.5,626.3z
		 M248.4,650.3h-9.6c-1.4,0-2.4-1.4-1.9-2.6c1.1-2.7,3.7-4.6,6.7-4.6c3,0,5.6,1.9,6.7,4.6C250.8,648.9,249.8,650.3,248.4,650.3z
		 M273.9,621.1c-5.5,7.1-14.5,9.5-20,5.2c-5.5-4.3-5.5-13.5,0-20.7c5.5-7.1,14.5-9.5,20-5.2C279.5,604.7,279.5,613.9,273.9,621.1z"
		/>
	<path class="st7" d="M199.7,589.6c0,0,8.9-8,26.2-1.8"/>
	<path class="st7" d="M288,589.6c0,0-8.9-8-26.2-1.8"/>
	<path class="st5" d="M625.7,539.3c-17.8,0.5-31.5,16-31.5,33.8v14.6c0,3.3,1.3,4.6,2.8,4.6H656c1.6,0,2.8-1.3,2.8-2.8v-17.8
		C658.9,553.5,643.9,538.8,625.7,539.3z M611.8,586.7h-3.5c-2.5,0-4.5-2-4.5-4.5c0-2.5,2-4.5,4.5-4.5h3.5V586.7z M611.8,573.2
		c-3.5,0-6.3-2.8-6.3-6.3c0-3.5,2.8-6.3,6.3-6.3c3.5,0,6.3,2.8,6.3,6.3C618.1,570.4,615.3,573.2,611.8,573.2z M624,586.7h-7.2
		c-0.1,0-0.2-0.1-0.2-0.2v-8.7c0-0.1,0.1-0.2,0.2-0.2h7.2c0.1,0,0.2,0.1,0.2,0.2v8.7C624.1,586.6,624.1,586.7,624,586.7z
		 M636.2,586.7h-7.2c-0.1,0-0.2-0.1-0.2-0.2v-8.7c0-0.1,0.1-0.2,0.2-0.2h7.2c0.1,0,0.2,0.1,0.2,0.2v8.7
		C636.4,586.6,636.3,586.7,636.2,586.7z M634.9,566.9c0-3.5,2.8-6.3,6.3-6.3c3.5,0,6.3,2.8,6.3,6.3c0,3.5-2.8,6.3-6.3,6.3
		C637.7,573.2,634.9,570.4,634.9,566.9z M644.7,586.7h-3.5v-9h3.5c2.5,0,4.5,2,4.5,4.5C649.2,584.6,647.2,586.7,644.7,586.7z"/>
	<path class="st3" d="M535,314.3c-9.5-4.4-15.5-14.6-14.6-25.1c0.5-6.3,3.3-11.8,7.3-15.8c-10.2,2.3-18.5,10.8-19.7,22.3
		c-1.2,11.4,5.9,22.5,16.7,26.4c9.9,3.5,20.1,0.7,26.7-6.1C546.1,317.2,540.4,316.8,535,314.3z"/>
	<path class="st3" d="M300.6,120.4c7.7,18.7,20.3,27.3,38,25.9c16.1-1.3,27-12.4,31.8-32.7c14.5,1.7,25.4-3.5,31.9-17.7L300.6,120.4
		z"/>
	<path class="st3" d="M600.5,777c-6.6-16-17.3-23.2-32.3-22c-13.7,1.1-23,10.5-27.1,27.9c-12.4-1.4-21.6,3-27.2,15.1L600.5,777z"/>
	<g>
		<path class="st3" d="M694.4,363.8l-0.6-4.6c-0.9-6.9,1-13.4,5.3-18.4c5.3-6.1,14.1-9.6,24-9.6c1.6,0,3.2,0.1,4.8,0.3
			c5.3-10.8,12.7-17.6,22.2-20.5c-20.3-3.9-28.4-16.3-31.5-26.8c-5.8-19.3,0.8-35.6,19.5-48.4l5.1-3.5l41.7,86.8
			c4.6,4.6,8.1,10.9,10.5,18.6c0.1,0,0.3,0,0.4,0c1.8,0,3.5,0.1,5.2,0.4l3.3,0.5l7.6,25.3H694.4z"/>
		<path class="st2" d="M741,240l39.4,82.1c5,4.7,8.7,11.7,10.9,21c1.5-0.2,3-0.3,4.4-0.3c1.5,0,3,0.1,4.4,0.3l4.6,15.3
			c-35.5,0-70.6,0-105.6,0c-1.8-13,8.9-22,24.1-22c2.5,0,5.2,0.3,8,0.8c6.2-15,16-22.5,29.6-22.5c1,0,2.1,0,3.2,0.1c0,0,0.1,0,0.1,0
			c-0.8-2.5-1.3-5.1-1.6-8c-21-0.5-34-8.8-38.7-24.3C718.6,265.6,724.3,251.5,741,240 M745.2,224.3l-10.2,7
			c-25.9,17.8-26,39.3-21.6,54.3c3.1,10.3,9,18.2,17.7,23.7c1.6,1,3.4,2,5.2,2.8c-4.2,3.2-8.1,7.7-11.6,13.7c-0.6,0-1.1,0-1.7,0
			c-11.4,0-21.6,4.2-28,11.4c-5.4,6.2-7.7,14.2-6.6,22.6l1.2,9.2h9.3h105.6h14.2l-4.1-13.6l-4.6-15.3l-1.9-6.5l-6.7-1
			c-0.8-0.1-1.7-0.2-2.5-0.3c-2.4-6.6-5.8-12.1-9.9-16.5l-38.6-80.5L745.2,224.3L745.2,224.3z"/>
	</g>
	<path class="st3" d="M298.1,777c6.6-16,17.3-23.2,32.3-22c13.7,1.1,23,10.5,27.1,27.9c12.4-1.4,21.6,3,27.2,15.1L298.1,777z"/>
	<path class="st3" d="M595.9,120.5c-6.6,16-17.3,23.2-32.3,22c-13.7-1.1-23-10.5-27.1-27.9c-12.4,1.4-21.6-3-27.2-15.1L595.9,120.5z
		"/>
	<g>
		<path class="st3" d="M544.1,174.5l3.7-7.6c5.6-11.6,14.8-17.5,27.3-17.5c0.1,0,0.2,0,0.3,0c6.4-19.9,19.8-25.2,30.2-26
			c1.2-0.1,2.3-0.1,3.5-0.1c14.2,0,24.9,6.8,31.9,20.4c1.6-0.2,3.1-0.2,4.6-0.2c9.9,0,18.6,3.4,23.7,9.4c4.1,4.7,5.8,10.8,4.9,17.1
			l-0.6,4.6H544.1z"/>
		<path class="st2" d="M609.1,128.7c13.2,0,22.8,6.9,28.8,20.9c2.7-0.5,5.3-0.7,7.7-0.7c14.8,0,25.1,8.4,23.4,20.5
			c-38.6,0-77.2,0-116.5,0c4.8-10,12.5-14.5,22.6-14.5c1.4,0,2.8,0.1,4.2,0.2c4.1-16.3,13.1-25.2,26.7-26.3
			C607.1,128.7,608.1,128.7,609.1,128.7 M609.1,118L609.1,118c-1.3,0-2.6,0.1-3.9,0.2c-9.4,0.7-25.4,5.2-33.6,26.1
			c-12.8,1-22.7,8-28.6,20.3l-7.4,15.2h16.9H669h9.2l1.3-9.1c1.1-7.9-1.1-15.5-6.2-21.3c-6.2-7.1-16.3-11.2-27.7-11.2
			c-0.5,0-1.1,0-1.6,0C634.2,121.8,619.9,118,609.1,118L609.1,118z"/>
	</g>
	<g>
		<path class="st3" d="M459.4,161.6c-19.8,0-34.6-9.8-44.1-29.1c-2.7,0.3-5.3,0.5-7.9,0.5c0,0,0,0,0,0c-13.4,0-25.1-4.6-32.1-12.6
			c-5.4-6.3-7.7-14.1-6.5-22.6l0.6-4.6h178.8l-3.7,7.6c-7.6,15.6-20,23.6-36.9,23.6c-0.7,0-1.4,0-2.1,0c-8.6,28.5-27.1,35.9-41.5,37
			C462.6,161.5,461,161.6,459.4,161.6z"/>
		<path class="st2" d="M539.9,98.5c-6.9,14.3-17.8,20.6-32.1,20.6c-1.9,0-4-0.1-6-0.3c-5.8,23.2-18.7,35.9-38,37.3
			c-1.5,0.1-2.9,0.2-4.4,0.2c-18.8,0-32.4-9.8-40.9-29.7c-3.8,0.7-7.5,1-11,1c-21,0-35.7-12-33.3-29.1
			C429.1,98.5,484.1,98.5,539.9,98.5 M556.8,87.9h-16.9H374.2H365l-1.3,9.1c-1.4,9.9,1.3,19.4,7.7,26.8c7.9,9.2,21.1,14.4,36.1,14.4
			c1.6,0,3.2-0.1,4.8-0.2c13.1,23.6,32.5,28.8,47.1,28.8c1.7,0,3.4-0.1,5.2-0.2c12.2-0.9,22.5-5.5,30.7-13.5
			c6.1-6,10.9-13.9,14.3-23.5c18-0.6,31.7-9.7,39.9-26.5L556.8,87.9L556.8,87.9z"/>
	</g>
	<path class="st3" d="M723.4,210.4c-9,10.9-21.2,15.7-36.4,14.5c-19.3-1.5-32.2-14.1-38-37.3c-17.3,1.9-30.3-4-38.1-20.2
		c20.6,0,41.2,0,61.6,0L723.4,210.4z"/>
	<g>
		<path class="st3" d="M659.7,259.5l-0.6-4.6c-0.8-5.9,0.8-11.6,4.6-15.9c4.6-5.2,12-8.2,20.4-8.2c1.1,0,2.2,0.1,3.4,0.2
			c7.5-14.7,18.9-17.9,27.5-17.9c1,0,2,0,3,0.1c9,0.7,20.5,5.4,26.1,23c10.6,0.1,18.7,5.6,23.5,15.9l3.5,7.5H659.7z"/>
		<path class="st2" d="M715,218.4c0.8,0,1.7,0,2.6,0.1c11.4,0.9,19.1,8.8,22.5,23.2c1.2-0.1,2.4-0.2,3.6-0.2c8.5,0,15,3.9,19,12.8
			c-33.1,0-65.8,0-98.4,0c-1.4-10.6,7.3-18.1,19.8-18.1c2.1,0,4.3,0.2,6.5,0.6C695.7,224.5,703.8,218.4,715,218.4 M715,207.8
			c-9.5,0-21.9,3.3-30.5,17.8c-0.1,0-0.2,0-0.3,0c-10.1,0-18.8,3.6-24.4,10c-4.8,5.5-6.9,12.6-5.9,20.1l1.2,9.2h9.3h98.4h16.6
			l-7-15.1c-5.1-11-13.5-17.4-24.5-18.7c-7.3-18.5-21.2-22.5-29.5-23.2C717.3,207.8,716.1,207.8,715,207.8L715,207.8z"/>
	</g>
	<path class="st3" d="M370.3,807.1c0-14.1,11.4-25.5,25.5-25.5c14.1,0,25.5,11.4,25.5,25.5H370.3z"/>
	<path class="st3" d="M479.7,807.1c0-14.1,11.4-25.5,25.5-25.5s25.5,11.4,25.5,25.5H479.7z"/>
	<circle class="st3" cx="291.2" cy="764.7" r="13.4"/>
	<circle class="st3" cx="266.3" cy="757.3" r="13.4"/>
	<circle class="st3" cx="632.7" cy="757.3" r="13.4"/>
	<circle class="st3" cx="607.9" cy="764.7" r="13.4"/>
	<path class="st3" d="M305,121.1c9.8,16.2,4.7,37.2-11.5,47s-37.2,4.7-47-11.5L305,121.1z"/>
	<g>
		<path class="st3" d="M182.9,200l3.5-7.5c5.7-12.2,15-18.4,27.7-18.4c0.1,0,0.2,0,0.3,0c6.5-21.2,20.1-26.8,30.7-27.6
			c1.2-0.1,2.4-0.1,3.5-0.1c14.5,0,25.4,7.3,32.4,21.6c1.6-0.2,3.1-0.2,4.7-0.2c9.8,0,18.5,3.5,23.7,9.5c4.3,5,6.2,11.4,5.3,18.3
			l-0.6,4.6H182.9z"/>
		<path class="st2" d="M248.6,151.5c13.4,0,23.1,7.3,29.2,22.2c2.7-0.5,5.3-0.8,7.8-0.8c15,0,25.5,9,23.8,21.7
			c-39.2,0-78.4,0-118.3,0c4.9-10.7,12.7-15.4,22.9-15.4c1.4,0,2.8,0.1,4.3,0.3c4.1-17.4,13.4-26.8,27.1-27.9
			C246.6,151.6,247.6,151.5,248.6,151.5 M248.6,140.9L248.6,140.9c-1.3,0-2.6,0.1-4,0.2c-9.6,0.8-25.8,5.5-34.1,27.8
			c-13,1.1-23,8.4-29,21.4l-7,15.1h16.6h118.3h9.3l1.2-9.2c1.1-8.4-1.2-16.3-6.5-22.5c-6.3-7.2-16.4-11.3-27.7-11.3
			c-0.5,0-1.1,0-1.6,0C274.1,144.8,259.6,140.9,248.6,140.9L248.6,140.9z"/>
	</g>
	<g>
		<path class="st3" d="M87.9,363.8l-0.6-4.6c-0.7-4.9,0.7-9.6,3.8-13.2c3.7-4.3,9.8-6.7,16.6-6.7c0.3,0,0.6,0,0.9,0l22.8-47.4
			l2.9-28l0.3-0.7c7.7-18.7,20.4-28.2,37.8-28.2c1.3,0,2.6,0.1,3.9,0.2c11.8,0.9,26.9,7.2,34,31.1c0.3,0,0.6,0,0.9,0
			c14,0,24.3,6.8,30.6,20.4l3.5,7.5h-64.9c-4.1,11.2-14.2,23.4-38.3,25.3c-0.5,2.7-1.3,5.2-2.2,7.6c5.4,1.9,11.5,6.3,15,16.5
			c8.3,0.4,14.6,4.8,18.3,12.9l3.5,7.5H87.9z"/>
		<path class="st2" d="M172.4,240.2c1.1,0,2.3,0,3.5,0.1c15.4,1.2,25.8,11.8,30.5,31.4c1.7-0.2,3.3-0.3,4.8-0.3
			c11.5,0,20.2,5.3,25.7,17.3c-20.3,0-40.5,0-60.6,0c-0.1,0.4-0.2,0.8-0.3,1.3c-4.6,15.5-17.7,23.8-38.7,24.3
			c-0.6,6.7-2.6,12.2-5.9,16.7c0.4,0,0.7,0,1.1,0c0.3,0,0.6,0,0.9,0c8.8,0.7,14.7,6.7,17.3,17.8c0.9-0.1,1.9-0.2,2.8-0.2
			c6.5,0,11.5,3,14.6,9.8c-25.5,0-50.6,0-75.7,0c-1.1-8.2,5.6-13.9,15.2-13.9c1.6,0,3.3,0.2,5,0.5c0.5-1.3,1.1-2.5,1.7-3.6
			c-0.4,0.1-0.7,0.2-1.1,0.3l25.5-53.1c-0.6,0-1.2,0-1.7,0l2.4-23.6C146.4,248.4,157.3,240.2,172.4,240.2 M172.4,229.6
			C172.4,229.6,172.4,229.6,172.4,229.6c-13.5,0-31.9,5.5-42.7,31.5l-0.6,1.4l-0.2,1.5l-2.4,23.6l-0.3,2.8L105.3,334
			c-7.4,0.5-13.9,3.6-18.2,8.5c-4.2,4.8-6,10.9-5.1,17.4l1.2,9.2h9.3h75.7h16.6l-7-15.1c-4-8.7-10.8-14.1-19.3-15.6
			c-3.1-7.2-7.6-11.6-12-14.3c8.5-1.1,15.9-3.6,22-7.5c6.8-4.3,12-10.1,15.3-17.4h53.1h16.6l-7-15.1c-6.6-14.4-17.8-22.4-32.4-23.3
			c-2.8-7.8-6.6-14.2-11.4-19.1c-6.9-7.1-15.7-11.2-26-12C175.2,229.6,173.8,229.6,172.4,229.6L172.4,229.6L172.4,229.6z"/>
	</g>
	<path class="st2" d="M627.4,606.5l-16.3,25.4c-0.7,1,0.4,2.3,1.5,1.8l10.5-4c1.1-0.4,2.1,0.7,1.5,1.8l-16.5,30.3
		c-0.7,1.3,1,2.5,2,1.5l40.2-43c0.8-0.8,0.2-2.1-0.9-2.1l-14,0.3c-1,0-1.6-1.1-1.1-1.9l5.7-8.7c0.5-0.8,0-1.9-1-1.9h-10.5
		C628,605.9,627.7,606.1,627.4,606.5z"/>
	<circle class="st2" cx="448.7" cy="708.5" r="11.8"/>
	<ellipse class="st8" cx="243.5" cy="563.5" rx="18.4" ry="9.8"/>
	<ellipse class="st3" cx="243.5" cy="563.5" rx="18.4" ry="9.8"/>
	<circle class="st2" cx="243.7" cy="563.5" r="8.4"/>
	<path class="st3" d="M450.5,100.4c93.4,0,181.3,36.4,247.4,102.5c66.1,66.1,102.5,153.9,102.5,247.4s-36.4,181.3-102.5,247.4
		c-66.1,66.1-153.9,102.5-247.4,102.5s-181.3-36.4-247.4-102.5C137,631.6,100.6,543.7,100.6,450.3S137,269,203.1,202.9
		C269.1,136.8,357,100.4,450.5,100.4 M450.5,78.1c-205.5,0-372.1,166.6-372.1,372.1s166.6,372.1,372.1,372.1
		s372.1-166.6,372.1-372.1S656,78.1,450.5,78.1L450.5,78.1z"/>
</g>
</svg>
