<?xml version="1.0" encoding="UTF-8"?>
<svg xmlns="http://www.w3.org/2000/svg" version="1.1" viewBox="0 0 1229.7 1091.7">
  <defs>
    <style>
      .cls-1 {
        fill: #f4bb3a;
      }

      .cls-2 {
        fill: #009649;
      }

      .cls-3 {
        fill: #abadb0;
      }

      .cls-4 {
        fill: #d6562b;
      }

      .cls-5 {
        fill: #946562;
      }

      .cls-6 {
        fill: #89a45e;
      }

      .cls-7 {
        fill: #7d7e81;
      }

      .cls-8 {
        fill: #4d4d4d;
      }

      .cls-9 {
        fill: #1c1b1a;
      }

      .cls-10 {
        fill: #6a4542;
      }

      .cls-11 {
        fill: #ed7c31;
      }

      .cls-12 {
        fill: #967448;
      }

      .cls-13 {
        fill: #808285;
      }

      .cls-14 {
        fill: #e46425;
      }

      .cls-15 {
        fill: #bec0c2;
      }

      .cls-16 {
        fill: #a7a9ac;
      }

      .cls-17 {
        fill: #6d6d6d;
      }

      .cls-18 {
        fill: #333;
      }

      .cls-19 {
        fill: #1a1a1a;
      }

      .cls-20 {
        fill: #cb8c84;
      }

      .cls-21 {
        fill: #3a2f2f;
      }

      .cls-22 {
        fill: #58595b;
      }

      .cls-23 {
        fill: #834c3c;
      }

      .cls-24 {
        fill: #ca6a4f;
      }

      .cls-25 {
        fill: #e0e9ed;
      }

      .cls-26 {
        fill: #c5bfb7;
      }

      .cls-27 {
        fill: #b3b3b3;
      }

      .cls-28 {
        fill: #b55232;
      }

      .cls-29 {
        fill: #57744b;
      }

      .cls-30 {
        fill: #ed1c24;
      }

      .cls-31 {
        fill: #995f5c;
      }

      .cls-32 {
        fill: #724822;
      }

      .cls-33 {
        fill: #824737;
      }

      .cls-34 {
        fill: #007042;
      }

      .cls-35 {
        fill: #5f3227;
      }
    </style>
  </defs>
  <!-- Generator: Adobe Illustrator 28.6.0, SVG Export Plug-In . SVG Version: 1.2.0 Build 709)  -->
  <g>
    <g id="Layer_22">
      <polygon class="cls-10" points="202.2 994.9 209.4 1014.4 596.8 1087.8 917 1056 939.6 1031.7 972.6 936.8 918.8 896.3 990.4 934 1047.3 945.6 1222.8 790.1 1222.8 790.1 1222.8 713.8 1163.4 686.1 833.2 748.8 826.7 816.5 812.1 820.6 825.7 886.9 833.5 958.3 616.9 991.7 251.8 918.6 229.1 833.3 92.6 654.8 11.1 689.1 11.1 793.5 117.7 967 202.2 994.9"/>
      <polygon class="cls-6" points="11.1 689.1 117 889.1 201.3 891.5 182.4 939.8 616.9 991.7 917.7 991.7 972.6 936.8 837.4 835.4 878.3 828.6 1075 861.8 1222.8 713.8 1036.7 626.9 350.5 612.5 70.2 658.5 11.1 689.1"/>
      <ellipse class="cls-25" cx="592.8" cy="63" rx="72.4" ry="24.9"/>
      <ellipse class="cls-25" cx="654.7" cy="87.8" rx="72.4" ry="24.9"/>
      <ellipse class="cls-25" cx="329.3" cy="305" rx="65.2" ry="22.4"/>
      <circle class="cls-25" cx="656" cy="54.9" r="25.4"/>
      <polygon class="cls-22" points="294.3 288.1 70.6 661 315.1 740.4 294.3 288.1"/>
      <polygon class="cls-3" points="595.5 4.8 847.3 416.8 595.5 506.6 595.5 4.8"/>
      <polygon class="cls-22" points="366.5 372.6 595.5 4.8 595.5 506.6 366.5 372.6"/>
      <polygon class="cls-15" points="294.3 288.1 760.2 524.6 538.9 591.9 406.1 591.9 294.3 288.1"/>
      <polygon class="cls-7" points="294.3 288.1 438.7 527.9 294.3 673.6 294.3 288.1"/>
      <polygon class="cls-7" points="829.7 692.8 700.1 727 624.2 527.9 715.7 506.6 829.7 692.8"/>
      <polygon class="cls-16" points="188 735.8 230.8 632.9 438.7 527.9 624.2 527.9 624.2 819.2 188 735.8"/>
      <polygon class="cls-22" points="829.7 692.8 715.7 506.6 818.2 440.4 1057.4 534.1 1109.1 692.8 829.7 692.8"/>
      <polygon class="cls-15" points="624.2 819.2 715.7 767.8 624.2 527.9 624.2 819.2"/>
      <polygon class="cls-15" points="1057.4 534.1 833.3 299.5 664.9 299.5 818.2 440.4 1057.4 534.1"/>
      <polygon class="cls-7" points="818.2 440.4 664.9 299.5 504 398.7 715.7 506.6 818.2 440.4"/>
      <path class="cls-12" d="M213.4,202.2c0,7.9-34.4,24.7-76.8,24.7-42.4,0-76.8-16.8-76.8-24.7,0-7.9,34.4-6.1,76.8-6.1,42.4,0,76.8-1.9,76.8,6.1Z"/>
      <path class="cls-25" d="M213.4,202.2c0,7.9-34.4,14.4-76.8,14.4-42.4,0-76.8-6.4-76.8-14.4,0-7.9,34.4-14.4,76.8-14.4,42.4,0,76.8,6.4,76.8,14.4Z"/>
      <path class="cls-12" d="M105.1,201.5s26.5,10,63.3-.5c.6-5-5.2-31.6-30.4-31.1,0,0-32.3-4-32.9,31.6Z"/>
      <path class="cls-25" d="M157,190.4c0,4.2-3.4,7.6-7.6,7.6s-7.6-3.4-7.6-7.6c0-4.2,3.4-7.6,7.6-7.6,4.2,0,7.6,3.4,7.6,7.6Z"/>
      <ellipse class="cls-25" cx="570.9" cy="143.4" rx="65.2" ry="22.4"/>
      <ellipse class="cls-25" cx="515.1" cy="165.8" rx="65.2" ry="22.4"/>
      <ellipse class="cls-25" cx="745.3" cy="239" rx="65.2" ry="22.4"/>
      <ellipse class="cls-25" cx="252.4" cy="366.9" rx="65.2" ry="22.4"/>
      <circle class="cls-25" cx="297.6" cy="354.8" r="22.8"/>
      <circle class="cls-25" cx="514" cy="136.1" r="22.8"/>
      <circle class="cls-25" cx="726.9" cy="218.8" r="22.8"/>
      <ellipse class="cls-29" cx="437.2" cy="819.5" rx="48.5" ry="16.6"/>
      <ellipse class="cls-29" cx="1148.6" cy="727.3" rx="39.8" ry="9.2"/>
      <ellipse class="cls-29" cx="111" cy="731.9" rx="64.4" ry="14.4"/>
      <polygon class="cls-5" points="458 775.1 431.7 775.1 431.7 826.1 458 819.2 458 775.1"/>
      <polygon class="cls-10" points="431.7 826.1 414.4 815.9 414.4 762.3 431.7 775.1 431.7 826.1"/>
      <polygon class="cls-2" points="389.8 794.8 527.5 779.2 498 718.3 414.4 729.4 389.8 794.8"/>
      <polygon class="cls-34" points="389.8 794.8 335 756.5 370.5 710.2 414.4 729.4 389.8 794.8"/>
      <polygon class="cls-2" points="397.6 753.7 521 739.7 494.5 685.2 419.6 695.1 397.6 753.7"/>
      <polygon class="cls-34" points="397.6 753.7 348.5 719.4 380.2 677.9 419.6 695.1 397.6 753.7"/>
      <polygon class="cls-2" points="406.7 711.1 511.1 699.3 488.7 653.1 425.3 661.6 406.7 711.1"/>
      <polygon class="cls-34" points="406.7 711.1 365.1 682.1 392 647 425.3 661.6 406.7 711.1"/>
      <polygon class="cls-2" points="448.1 583.8 418.1 664.7 500 655.5 448.1 583.8"/>
      <polygon class="cls-34" points="448.1 583.8 418.1 664.7 385.4 642 448.1 583.8"/>
      <polygon class="cls-5" points="1162.4 695 1144 695 1144 730.7 1162.4 725.9 1162.4 695"/>
      <polygon class="cls-10" points="1144 730.7 1131.8 723.6 1131.8 686 1144 695 1144 730.7"/>
      <polygon class="cls-2" points="1114.6 708.8 1211.1 697.9 1190.4 655.2 1131.8 663 1114.6 708.8"/>
      <polygon class="cls-34" points="1114.6 708.8 1076.2 682 1101.1 649.6 1131.8 663 1114.6 708.8"/>
      <polygon class="cls-2" points="1120.1 680 1206.5 670.2 1187.9 632 1135.5 639 1120.1 680"/>
      <polygon class="cls-34" points="1120.1 680 1085.7 656 1107.9 626.9 1135.5 639 1120.1 680"/>
      <polygon class="cls-2" points="1126.5 650.2 1199.6 641.9 1183.9 609.6 1139.5 615.5 1126.5 650.2"/>
      <polygon class="cls-34" points="1126.5 650.2 1097.3 629.9 1116.2 605.3 1139.5 615.5 1126.5 650.2"/>
      <polygon class="cls-2" points="1155.5 561 1134.4 617.7 1191.8 611.2 1155.5 561"/>
      <polygon class="cls-34" points="1155.5 561 1134.4 617.7 1111.6 601.8 1155.5 561"/>
      <polygon class="cls-5" points="135.3 684.1 107.3 684.1 107.3 738.2 135.3 731 135.3 684.1"/>
      <polygon class="cls-10" points="107.3 738.2 88.9 727.4 88.9 670.4 107.3 684.1 107.3 738.2"/>
      <polygon class="cls-2" points="62.8 705 209.2 688.4 177.8 623.7 88.9 635.5 62.8 705"/>
      <polygon class="cls-34" points="62.8 705 4.6 664.3 42.3 615.1 88.9 635.5 62.8 705"/>
      <polygon class="cls-2" points="71.1 661.3 202.2 646.4 174.1 588.4 94.4 599 71.1 661.3"/>
      <polygon class="cls-34" points="71.1 661.3 18.8 624.8 52.6 580.7 94.4 599 71.1 661.3"/>
      <polygon class="cls-2" points="80.8 616 191.8 603.5 167.9 554.4 100.5 563.3 80.8 616"/>
      <polygon class="cls-34" points="80.8 616 36.6 585.2 65.2 547.8 100.5 563.3 80.8 616"/>
      <polygon class="cls-2" points="124.8 480.7 92.8 566.7 179.9 556.9 124.8 480.7"/>
      <polygon class="cls-34" points="124.8 480.7 92.8 566.7 58.1 542.5 124.8 480.7"/>
      <ellipse class="cls-29" cx="212.7" cy="786.4" rx="139.1" ry="20.8"/>
      <path class="cls-28" d="M120,781.3c-1.9,3.3-.7,7.5,2.6,9.4s7.5.7,9.4-2.6l62.4-102.1-11.9-6.8-62.4,102.1Z"/>
      <ellipse class="cls-28" cx="188.3" cy="682.6" rx="4" ry="6.9" transform="translate(-498.6 510.7) rotate(-60.5)"/>
      <polygon class="cls-21" points="220.2 789.6 273.3 700.3 318.7 789.6 220.2 789.6"/>
      <path class="cls-33" d="M224.7,784.8c-1.9,3.3-.7,7.5,2.6,9.4,3.3,1.9,7.5.7,9.4-2.6l59.7-105.6-11.9-6.8-59.7,105.6Z"/>
      <ellipse class="cls-33" cx="290.4" cy="682.6" rx="4" ry="6.9" transform="translate(-446.7 599.5) rotate(-60.5)"/>
      <path class="cls-28" d="M224.7,784.8c-1.9,3.3-.7,7.5,2.6,9.4,3.3,1.9,7.5.7,9.4-2.6l59.7-105.6-11.9-6.8-59.7,105.6Z"/>
      <ellipse class="cls-28" cx="290.4" cy="682.6" rx="4" ry="6.9" transform="translate(-446.7 599.5) rotate(-60.5)"/>
      <path class="cls-33" d="M154.3,700.8c-4.3,0-7.7,3.5-7.7,7.7s3.5,7.7,7.7,7.7h142.5v-15.4h-142.5Z"/>
      <path class="cls-28" d="M216.8,783.4c1.9,3.3.7,7.5-2.6,9.4-3.3,1.9-7.5.7-9.4-2.6l-59.7-105.6,11.9-6.8,59.7,105.6Z"/>
      <ellipse class="cls-11" cx="151.2" cy="681.2" rx="6.9" ry="4" transform="translate(-315.6 162.5) rotate(-29.5)"/>
      <ellipse class="cls-11" cx="296.8" cy="708.6" rx="4.5" ry="7.7"/>
      <polygon class="cls-10" points="273.3 700.3 169.5 700.3 113.8 791.5 218.7 794.8 273.3 700.3"/>
      <path class="cls-28" d="M318.9,783.4c1.9,3.3.7,7.5-2.6,9.4-3.3,1.9-7.5.7-9.4-2.6l-59.7-105.6,11.9-6.8,59.7,105.6Z"/>
      <ellipse class="cls-27" cx="253.2" cy="681.2" rx="6.9" ry="4" transform="translate(-302.4 212.7) rotate(-29.5)"/>
      <ellipse class="cls-17" cx="913.1" cy="782.6" rx="43.1" ry="10.1"/>
      <path class="cls-14" d="M909.3,750.2l11.1,5.5,12.9-5.5s9.7-4.9,1.7-15c-3.9-5-8.6-14.1-7-19.2,0,0-12.1,17.9-7.8,25.4,0,0-8.2,4.6-10.9-18,0,0-9.4,22,0,26.7Z"/>
      <path class="cls-14" d="M894.8,750.2l11.1,5.5,12.9-5.5s9.7-4.9,1.7-15c-3.9-5-8.6-14.1-7-19.2,0,0-12.1,17.9-7.8,25.4,0,0-8.2,4.6-10.9-18,0,0-9.4,22,0,26.7Z"/>
      <path class="cls-33" d="M936.2,772.2c3.5,1.6,5,5.7,3.4,9.1s-5.7,5-9.1,3.4l-40.2-18.3,5.7-12.6,40.2,18.3Z"/>
      <path class="cls-4" d="M890.7,756.1c-2.2,2.8-2.9,7-1.5,9.3,1.4,2.3,4.3,1.8,6.5-1,2.2-2.8,2.9-7,1.5-9.3-1.4-2.3-4.3-1.8-6.5,1Z"/>
      <path class="cls-33" d="M890.4,773c-3.4,1.7-4.8,5.8-3.1,9.2,1.7,3.4,5.8,4.8,9.2,3.1l39.5-19.6-6.1-12.4-39.5,19.6Z"/>
      <path class="cls-4" d="M935.1,755.4c2.2,2.8,3,6.9,1.8,9.2-1.2,2.3-3.9,1.9-6.1-.9-2.2-2.8-3-6.9-1.8-9.2,1.2-2.3,3.9-1.9,6.1.9Z"/>
      <path class="cls-30" d="M901.3,750.2l11.1,5.5,12.9-5.5s9.7-4.9,1.7-15-8.6-14.1-7-19.2c0,0-12.1,17.9-7.8,25.4,0,0-8.2,4.6-10.9-18,0,0-9.4,22,0,26.7Z"/>
      <path class="cls-28" d="M1087.6,781.2c1.9,3.3.7,7.5-2.6,9.4-3.3,1.9-7.5.7-9.4-2.6l-62.4-163.6,11.9-6.8,62.4,163.6Z"/>
      <ellipse class="cls-28" cx="1019.2" cy="621" rx="6.9" ry="4" transform="translate(-173.7 581.8) rotate(-29.5)"/>
      <path class="cls-33" d="M834.5,784.7c1.9,3.3.7,7.5-2.6,9.4-3.3,1.9-7.5.7-9.4-2.6l-59.7-167.1,11.9-6.8,59.7,167.1Z"/>
      <ellipse class="cls-33" cx="768.9" cy="621" rx="6.9" ry="4" transform="translate(-206.1 458.7) rotate(-29.5)"/>
      <path class="cls-28" d="M834.5,784.7c1.9,3.3.7,7.5-2.6,9.4-3.3,1.9-7.5.7-9.4-2.6l-59.7-167.1,11.9-6.8,59.7,167.1Z"/>
      <ellipse class="cls-28" cx="768.9" cy="621" rx="6.9" ry="4" transform="translate(-206.1 458.7) rotate(-29.5)"/>
      <path class="cls-33" d="M1053.2,639.3c4.3,0,7.7,3.5,7.7,7.7,0,4.3-3.5,7.7-7.7,7.7h-284.8v-15.4h284.8Z"/>
      <path class="cls-28" d="M990.7,783.4c-1.9,3.3-.7,7.5,2.6,9.4,3.3,1.9,7.5.7,9.4-2.6l59.7-167.1-11.9-6.8-59.7,167.1Z"/>
      <ellipse class="cls-11" cx="1056.4" cy="619.7" rx="4" ry="6.9" transform="translate(-2.9 1234.4) rotate(-60.5)"/>
      <path class="cls-1" d="M750.8,647c0,4.3,15.2,7.7,17.7,7.7s4.5-3.5,4.5-7.7c0-4.3-2-7.7-4.5-7.7s-17.7,3.5-17.7,7.7Z"/>
      <path class="cls-11" d="M750.8,647c0,4.3,15.2,7.7,17.7,7.7s4.5-3.5,4.5-7.7h-22.2Z"/>
      <path class="cls-28" d="M740.4,783.4c-1.9,3.3-.7,7.5,2.6,9.4,3.3,1.9,7.5.7,9.4-2.6l59.7-167.1-11.9-6.8-59.7,167.1Z"/>
      <ellipse class="cls-11" cx="806" cy="619.7" rx="4" ry="6.9" transform="translate(-130 1016.5) rotate(-60.5)"/>
      <rect class="cls-31" x="974.3" y="661.4" width="8.8" height="27.8"/>
      <rect class="cls-31" x="902.8" y="661.4" width="8.8" height="27.8"/>
      <path class="cls-31" d="M873.3,614.7l5-24s16.5,5.8,18.4,29.2l-23.5-5.2Z"/>
      <path class="cls-20" d="M996.4,673.5l-109.1-4.4v-40.4l91.2-18.4c26.3-5.1,26.3,19.2,26.3,27.1v27.6c0,4.6-3.7,8.3-8.3,8.3Z"/>
      <circle class="cls-20" cx="887.3" cy="644" r="33.5"/>
      <polygon class="cls-20" points="831.1 634.8 870 644.4 874.3 620.5 835.1 623.3 831.1 634.8"/>
      <path class="cls-20" d="M834.8,659.9l32.4-8c1.5-.4,3.1.6,3.3,2.2l2.3,12.9c.3,1.6-.9,3.1-2.5,3.2l-30.3,1.8c-1,0-1.9-.4-2.4-1.2l-4.4-6.7c-1-1.6-.2-3.7,1.6-4.1Z"/>
      <rect class="cls-20" x="916.9" y="669.2" width="8.8" height="27.8"/>
      <rect class="cls-20" x="987.7" y="669.2" width="8.8" height="27.8"/>
      <rect class="cls-19" x="875.4" y="627.6" width="3.6" height="14.3" transform="translate(705.8 -434.3) rotate(45)"/>
      <rect class="cls-19" x="875.4" y="627.6" width="3.6" height="14.3" transform="translate(-191.9 806.2) rotate(-45)"/>
      <path class="cls-20" d="M882.3,612.5l5-24s16.5,5.8,18.4,29.2l-23.5-5.2Z"/>
      <rect class="cls-19" x="916.9" y="694.7" width="8.8" height="9.1"/>
      <rect class="cls-19" x="987.7" y="694.7" width="8.8" height="9.1"/>
      <rect class="cls-19" x="974.3" y="685.8" width="8.8" height="9.1"/>
      <rect class="cls-19" x="902.8" y="685.8" width="8.8" height="9.1"/>
      <rect class="cls-20" x="827.4" y="615.6" width="16" height="25.1" rx="5.6" ry="5.6" transform="translate(135.6 -148.2) rotate(11)"/>
      <circle class="cls-31" cx="831.1" cy="627.9" r="2.9"/>
      <circle class="cls-31" cx="838.7" cy="629.8" r="2.9"/>
      <path class="cls-20" d="M847.2,637.8s13.1,6.2,2.1,21.9l10.3-2.7.8-19.2h-13.1Z"/>
      <rect class="cls-20" x="1004.6" y="599.5" width="4.2" height="26.8" rx="2.1" ry="2.1" transform="translate(1056 -564.6) rotate(61.1)"/>
      <circle class="cls-24" cx="618.6" cy="761.8" r="6.4"/>
      <circle class="cls-24" cx="556.8" cy="761.8" r="6.4"/>
      <rect class="cls-23" x="701.1" y="706.3" width="7.9" height="250.5"/>
      <path class="cls-24" d="M633.1,815s28.9,29.3,71.1,13l-3.3-8s-40.8,12.6-58-14.5l-9.8,9.4Z"/>
      <circle class="cls-24" cx="705.1" cy="823.3" r="10.3"/>
      <path class="cls-24" d="M544.4,793.9s-38,15.6-39.1,60.8h8.6s3.8-42.6,35.4-48.2l-5-12.7Z"/>
      <path class="cls-24" d="M633.1,875.5s14.6,40.3-4.1,67.3h-9.3s20.3-40-2.5-65.1l15.9-2.2Z"/>
      <path class="cls-24" d="M629,942.8s0,6.7,12.1,0c12.2-6.7,20.9,16.1,1.5,13.4-19.4-2.7-20.5-1.8-25.5.2-5,2.1-9-10.2,2.5-13.7,11.5-3.5,9.3,0,9.3,0Z"/>
      <path class="cls-24" d="M544.3,881.8s-13.8,34.1,5,61h9.3s-20.3-40,2.5-65.1l-16.8,4.1Z"/>
      <path class="cls-32" d="M548.5,845.8l-17.7,41.5,13.7-7.4,2.3,10,8-8.4,10.2,12.9,9.3-19.4s16-10.3,30.1.4l5.3,16.8,6.5-14.6,10.3,14.2,1.5-14.2,16.4,11.9-13.8-46.1-81.9,2.3Z"/>
      <circle class="cls-32" cx="588.7" cy="817.5" r="49.2"/>
      <circle class="cls-24" cx="587.6" cy="762.3" r="31.3"/>
      <polygon class="cls-9" points="618.3 768.2 598.6 790.5 591.6 784.2 584.6 784.4 578.2 790.5 556.8 768.2 568.6 813.5 588.8 819.6 611.1 811 618.3 768.2"/>
      <circle cx="575.8" cy="762.3" r="3.4"/>
      <circle cx="600.2" cy="762.3" r="3.4"/>
      <polygon class="cls-9" points="556.3 760.3 549.6 710.6 558.8 714.4 565.9 702.2 576.3 704 578 697.6 583.9 705.5 587.6 695.1 592.5 706.5 597.9 698.1 605.2 712.6 612.3 708.3 614.1 716.4 623 710 618.3 756.3 596.8 733.9 576.9 734.4 556.3 760.3"/>
      <rect class="cls-18" x="566" y="751.9" width="18.5" height="5.6" rx="2.8" ry="2.8" transform="translate(216.3 -123.7) rotate(15.1)"/>
      <rect class="cls-18" x="590.9" y="751.9" width="18.5" height="5.6" rx="2.8" ry="2.8" transform="translate(-166.2 169.5) rotate(-14.1)"/>
      <polygon class="cls-32" points="553.8 782.9 525.2 796.7 533.9 797.4 529.3 808.4 537.3 811.4 531.6 819.5 548.9 820.9 553.8 782.9"/>
      <polygon class="cls-32" points="623.6 782.9 652.2 796.7 643.4 797.4 648.1 808.4 640 811.4 645.8 819.5 628.5 820.9 623.6 782.9"/>
      <path class="cls-24" d="M549.3,942.8s0,6.7-12.1,0c-12.2-6.7-20.9,16.1-1.5,13.4,19.4-2.7,20.5-1.8,25.5.2,5,2.1,9-10.2-2.5-13.7-11.5-3.5-9.3,0-9.3,0Z"/>
      <circle class="cls-24" cx="509.4" cy="857.3" r="10.3"/>
      <polygon class="cls-13" points="724.1 737.4 705.1 756.5 686 737.4 705.1 691.7 724.1 737.4"/>
      <polygon class="cls-26" points="705.1 691.7 724.1 737.4 705.1 756.5 705.1 691.7"/>
      <circle class="cls-24" cx="663.1" cy="828.7" r="5.6"/>
      <circle class="cls-24" cx="514.4" cy="825.4" r="5.6"/>
      <circle class="cls-24" cx="541" cy="910.8" r="5.6"/>
      <circle class="cls-24" cx="637.9" cy="910.8" r="5.6"/>
      <path class="cls-27" d="M546.6,870.7s10.2-15.3,10.7-28.1v-13.4s7.7-4.2,13,2.1c0,0-1.1,33.4-23.7,39.4Z"/>
      <path class="cls-35" d="M588.7,850.4c-19.8,0-36.9-5.1-45-12.4.5,10.4,20.5,18.8,45,18.8s44.5-8.4,45-18.8c-8.1,7.3-25.2,12.4-45,12.4Z"/>
      <path class="cls-8" d="M712.2,749v6.7c0,2.8-2.3,5.1-5.1,5.1h-4.4c-2.8,0-5.1-2.3-5.1-5.1v-6.7h14.6Z"/>
      <path class="cls-18" d="M570.3,834.3v-9.7c0-2-1.6-3.7-3.7-3.7h-5.6c-2,0-3.7,1.6-3.7,3.7v9.7h13Z"/>
      <path d="M583.5,781.9c-.9,0-1.6-.8-1.3-1.7.8-2.9,3.4-5,6.5-5s5.8,2.1,6.5,5-.4,1.7-1.3,1.7h-10.4Z"/>
      <ellipse class="cls-17" cx="271.8" cy="874.4" rx="43.1" ry="10.1"/>
      <path class="cls-14" d="M268,842l11.1,5.5,12.9-5.5s9.7-4.9,1.7-15-8.6-14.1-7-19.2c0,0-12.1,17.9-7.8,25.4,0,0-8.2,4.6-10.9-18,0,0-9.4,22,0,26.7Z"/>
      <path class="cls-14" d="M253.5,842l11.1,5.5,12.9-5.5s9.7-4.9,1.7-15-8.6-14.1-7-19.2c0,0-12.1,17.9-7.8,25.4,0,0-8.2,4.6-10.9-18,0,0-9.4,22,0,26.7Z"/>
      <path class="cls-33" d="M294.9,864c3.5,1.6,5,5.7,3.4,9.1s-5.7,5-9.1,3.4l-40.2-18.3,5.7-12.6,40.2,18.3Z"/>
      <path class="cls-4" d="M249.3,847.9c-2.2,2.8-2.9,7-1.5,9.3,1.4,2.3,4.3,1.8,6.5-1,2.2-2.8,2.9-7,1.5-9.3-1.4-2.3-4.3-1.8-6.5,1Z"/>
      <path class="cls-33" d="M249.1,864.8c-3.4,1.7-4.8,5.8-3.1,9.2s5.8,4.8,9.2,3.1l39.5-19.6-6.1-12.4-39.5,19.6Z"/>
      <path class="cls-4" d="M293.8,847.1c2.2,2.8,3,6.9,1.8,9.2-1.2,2.3-3.9,1.9-6.1-.9-2.2-2.8-3-6.9-1.8-9.2s3.9-1.9,6.1.9Z"/>
      <path class="cls-30" d="M259.9,842l11.1,5.5,12.9-5.5s9.7-4.9,1.7-15c-3.9-5-8.6-14.1-7-19.2,0,0-12.1,17.9-7.8,25.4,0,0-8.2,4.6-10.9-18,0,0-9.4,22,0,26.7Z"/>
      <circle class="cls-25" cx="1050.8" cy="293.2" r="88.6"/>
    </g>
  </g>
</svg>