<?xml version="1.0" encoding="utf-8"?>
<!-- Generator: Adobe Illustrator 27.0.1, SVG Export Plug-In . SVG Version: 6.00 Build 0)  -->
<svg version="1.1" xmlns="http://www.w3.org/2000/svg" xmlns:xlink="http://www.w3.org/1999/xlink" x="0px" y="0px"
	 viewBox="0 0 1088 966" style="enable-background:new 0 0 1088 966;" xml:space="preserve">
<style type="text/css">
	.st0{display:none;}
	.st1{display:inline;}
	.st2{fill:url(#SVGID_1_);}
	.st3{opacity:0.25;fill:#895881;}
	.st4{fill:#333333;}
	.st5{fill:#999999;}
	.st6{display:none;opacity:0.3;fill:#F6E8D7;}
	.st7{display:none;opacity:0.2;fill:#F6E8D7;}
	.st8{display:none;opacity:0.1;fill:#F6E8D7;}
	.st9{fill:#E6E6E6;}
	.st10{fill:#808080;}
	.st11{fill:#CCCCCC;}
	.st12{fill:#4D4D4D;}
	.st13{fill:#1A1A1A;}
	.st14{fill:#B3B3B3;}
	.st15{fill:#666666;}
	.st16{fill:#824737;}
	.st17{fill:#F2F2F2;}
	.st18{display:none;fill:#824737;}
	.st19{display:none;fill:#D6562B;}
</style>
<g id="bckaground" class="st0">
	<g class="st1">
		<linearGradient id="SVGID_1_" gradientUnits="userSpaceOnUse" x1="1264.3989" y1="490.8834" x2="3.0178" y2="750.5884">
			<stop  offset="0" style="stop-color:#50A5DC"/>
			<stop  offset="0.5069" style="stop-color:#467AB0"/>
			<stop  offset="1" style="stop-color:#3B4D81"/>
		</linearGradient>
		<rect x="-455" y="-361" class="st2" width="2000" height="2000"/>
	</g>
	<rect x="-455" y="-361" class="st3" width="2000" height="1024.3"/>
</g>
<g id="Lake">
	<polygon class="st4" points="181.1,875.1 187.3,892.2 526.6,956.4 806.9,928.7 826.7,907.3 855.6,824.3 808.5,788.8 871.1,821.8 
		921,832 1074.6,695.8 1074.6,695.8 1074.6,629 1022.6,604.8 733.5,659.7 727.8,718.9 715,722.6 727,780.6 733.8,843.1 544.2,872.4 
		224.5,808.3 204.6,733.6 85.1,577.4 13.7,607.4 13.7,698.8 107.1,850.7 	"/>
</g>
<g id="rock">
	<polygon class="st5" points="13.7,607.4 106.4,782.5 180.2,784.6 163.8,826.9 544.2,872.4 807.5,872.4 855.6,824.3 737.2,735.5 
		773,729.5 945.3,758.6 1074.6,629 911.6,552.9 310.9,540.3 65.5,580.6 	"/>
</g>
<g id="moon">
	<path class="st6" d="M13.7-111.7c-65.7,0-118.9,53.3-118.9,118.9c0,65.7,53.3,118.9,118.9,118.9c65.7,0,118.9-53.3,118.9-118.9
		C132.7-58.4,79.4-111.7,13.7-111.7z M13.7,114.8c-59.4,0-107.5-48.1-107.5-107.5c0-59.4,48.1-107.5,107.5-107.5
		S121.2-52.1,121.2,7.3C121.2,66.6,73.1,114.8,13.7,114.8z"/>
	<path class="st7" d="M13.7-145.9c-84.6,0-153.1,68.6-153.1,153.1c0,84.6,68.6,153.1,153.1,153.1c84.6,0,153.1-68.6,153.1-153.1
		C166.9-77.3,98.3-145.9,13.7-145.9z M13.7,145.6c-76.4,0-138.4-62-138.4-138.4c0-76.4,62-138.4,138.4-138.4s138.4,62,138.4,138.4
		C152.1,83.7,90.2,145.6,13.7,145.6z"/>
	<path class="st8" d="M13.7-192.1c-110.1,0-199.4,89.3-199.4,199.4c0,110.1,89.3,199.4,199.4,199.4c110.1,0,199.4-89.3,199.4-199.4
		C213.1-102.9,123.9-192.1,13.7-192.1z M13.7,187.4c-99.5,0-180.2-80.7-180.2-180.2c0-99.5,80.7-180.2,180.2-180.2
		S193.9-92.3,193.9,7.3C193.9,106.8,113.2,187.4,13.7,187.4z"/>
</g>
<g id="sun">
</g>
<g id="clouds_back">
	<ellipse class="st9" cx="523" cy="59.2" rx="63.4" ry="21.8"/>
	<ellipse class="st9" cx="577.3" cy="81" rx="63.4" ry="21.8"/>
	<ellipse class="st9" cx="292.4" cy="271.1" rx="57.1" ry="19.6"/>
	<circle class="st9" cx="578.4" cy="52.1" r="22.2"/>
</g>
<g id="mountain">
	<polygon class="st4" points="261.7,256.3 65.9,582.8 279.9,652.3 	"/>
	<polygon class="st10" points="525.4,8.3 745.9,369 525.4,447.6 	"/>
	<polygon class="st4" points="324.9,330.3 525.4,8.3 525.4,447.6 	"/>
	<polygon class="st11" points="261.7,256.3 669.6,463.3 475.9,522.3 359.6,522.3 	"/>
	<polygon class="st12" points="261.7,256.3 388.1,466.3 261.7,593.8 	"/>
	<polygon class="st12" points="730.4,610.7 617,640.6 550.5,466.3 630.6,447.6 	"/>
	<polygon class="st5" points="168.7,648.3 206.1,558.2 388.1,466.3 550.5,466.3 550.5,721.3 	"/>
	<polygon class="st4" points="730.4,610.7 630.6,447.6 720.4,389.7 929.8,471.7 975,610.7 	"/>
	<polygon class="st11" points="550.5,721.3 630.6,676.3 550.5,466.3 	"/>
	<polygon class="st11" points="929.8,471.7 733.6,266.3 586.2,266.3 720.4,389.7 	"/>
	<polygon class="st12" points="720.4,389.7 586.2,266.3 445.3,353.1 630.6,447.6 	"/>
</g>
<g id="robot">
</g>
<g id="UFO">
	<path class="st13" d="M359.5,181.1c0,6.9-30.1,21.7-67.2,21.7c-37.1,0-67.2-14.7-67.2-21.7c0-6.9,30.1-5.3,67.2-5.3
		C329.4,175.8,359.5,174.2,359.5,181.1z"/>
	<path class="st9" d="M359.5,181.1c0,6.9-30.1,12.6-67.2,12.6c-37.1,0-67.2-5.6-67.2-12.6c0-6.9,30.1-12.6,67.2-12.6
		C329.4,168.6,359.5,174.2,359.5,181.1z"/>
	<path class="st11" d="M264.6,180.5c0,0,23.2,8.8,55.4-0.4c0.6-4.4-4.5-27.6-26.6-27.2C293.5,152.8,265.2,149.3,264.6,180.5z"/>
	<path class="st13" d="M310,170.8c0,3.7-3,6.6-6.6,6.6c-3.7,0-6.6-3-6.6-6.6s3-6.6,6.6-6.6C307.1,164.2,310,167.1,310,170.8z"/>
</g>
<g id="clouds_front">
	<ellipse class="st9" cx="503.9" cy="129.7" rx="57.1" ry="19.6"/>
	<ellipse class="st9" cx="455" cy="149.3" rx="57.1" ry="19.6"/>
	<ellipse class="st9" cx="656.5" cy="213.3" rx="57.1" ry="19.6"/>
	<ellipse class="st9" cx="225" cy="325.3" rx="57.1" ry="19.6"/>
	<circle class="st9" cx="264.6" cy="314.7" r="20"/>
	<circle class="st9" cx="454" cy="123.3" r="20"/>
	<circle class="st9" cx="640.5" cy="195.7" r="20"/>
</g>
<g id="trees">
	<ellipse class="st12" cx="386.8" cy="721.6" rx="42.5" ry="14.5"/>
	<ellipse class="st12" cx="1009.7" cy="640.8" rx="34.9" ry="8.1"/>
	<ellipse class="st12" cx="101.2" cy="644.8" rx="56.4" ry="12.7"/>
	<polygon class="st14" points="405,682.7 382,682.7 382,727.3 405,721.3 	"/>
	<polygon class="st15" points="382,727.3 366.8,718.4 366.8,671.5 382,682.7 	"/>
	<polygon class="st10" points="345.4,699.9 465.9,686.3 440,633 366.8,642.7 	"/>
	<polygon class="st4" points="345.4,699.9 297.4,666.5 328.4,625.9 366.8,642.7 	"/>
	<polygon class="st10" points="352.1,663.9 460.2,651.7 437,603.9 371.4,612.7 	"/>
	<polygon class="st4" points="352.1,663.9 309.1,633.9 336.9,597.6 371.4,612.7 	"/>
	<polygon class="st10" points="360.1,626.7 451.5,616.3 431.9,575.9 376.4,583.3 	"/>
	<polygon class="st4" points="360.1,626.7 323.7,601.3 347.3,570.5 376.4,583.3 	"/>
	<polygon class="st10" points="396.4,515.2 370,586.1 441.8,578 	"/>
	<polygon class="st4" points="396.4,515.2 370,586.1 341.5,566.1 	"/>
	<polygon class="st14" points="1021.7,612.6 1005.6,612.6 1005.6,643.8 1021.7,639.6 	"/>
	<polygon class="st15" points="1005.6,643.8 995,637.6 995,604.7 1005.6,612.6 	"/>
	<polygon class="st10" points="979.9,624.6 1064.4,615.1 1046.2,577.7 995,584.6 	"/>
	<polygon class="st4" points="979.9,624.6 946.3,601.2 968.1,572.8 995,584.6 	"/>
	<polygon class="st10" points="984.7,599.4 1060.3,590.9 1044.1,557.4 998.2,563.5 	"/>
	<polygon class="st4" points="984.7,599.4 954.5,578.4 974,553 998.2,563.5 	"/>
	<polygon class="st10" points="990.3,573.3 1054.3,566.1 1040.6,537.8 1001.7,542.9 	"/>
	<polygon class="st4" points="990.3,573.3 964.8,555.5 981.3,534 1001.7,542.9 	"/>
	<polygon class="st10" points="1015.7,495.2 997.2,544.9 1047.5,539.2 	"/>
	<polygon class="st4" points="1015.7,495.2 997.2,544.9 977.2,530.9 	"/>
	<polygon class="st14" points="122.5,603 98,603 98,650.4 122.5,644 	"/>
	<polygon class="st15" points="98,650.4 81.9,640.9 81.9,591 98,603 	"/>
	<polygon class="st10" points="59.1,621.3 187.2,606.8 159.7,550.1 81.9,560.5 	"/>
	<polygon class="st4" points="59.1,621.3 8,585.7 41,542.6 81.9,560.5 	"/>
	<polygon class="st10" points="66.2,583 181.1,570 156.4,519.2 86.7,528.5 	"/>
	<polygon class="st4" points="66.2,583 20.5,551.1 50.1,512.5 86.7,528.5 	"/>
	<polygon class="st10" points="74.7,543.4 171.9,532.4 151.1,489.4 92.1,497.3 	"/>
	<polygon class="st4" points="74.7,543.4 36.1,516.4 61.1,483.7 92.1,497.3 	"/>
	<polygon class="st10" points="113.3,424.9 85.3,500.2 161.6,491.6 	"/>
	<polygon class="st4" points="113.3,424.9 85.3,500.2 54.9,479.1 	"/>
</g>
<g id="tent">
	<ellipse class="st4" cx="190.2" cy="692.6" rx="121.8" ry="18.2"/>
	<path class="st13" d="M109.1,688.1c-1.6,2.9-0.6,6.6,2.3,8.2s6.6,0.6,8.2-2.3l54.6-89.4l-10.5-5.9L109.1,688.1z"/>
	<ellipse transform="matrix(0.492 -0.8706 0.8706 0.492 -438.0168 452.6985)" class="st13" cx="168.9" cy="601.7" rx="3.5" ry="6"/>
	<polygon class="st4" points="196.8,695.4 243.4,617.2 283.1,695.4 	"/>
	<path class="st16" d="M200.8,691.2c-1.6,2.9-0.6,6.6,2.3,8.2c2.9,1.6,6.6,0.6,8.2-2.3l52.2-92.4l-10.5-5.9L200.8,691.2z"/>
	<ellipse transform="matrix(0.492 -0.8706 0.8706 0.492 -392.6288 530.4838)" class="st16" cx="258.3" cy="601.7" rx="3.5" ry="6"/>
	<path class="st13" d="M200.8,691.2c-1.6,2.9-0.6,6.6,2.3,8.2c2.9,1.6,6.6,0.6,8.2-2.3l52.2-92.4l-10.5-5.9L200.8,691.2z"/>
	<ellipse transform="matrix(0.492 -0.8706 0.8706 0.492 -392.6288 530.4838)" class="st13" cx="258.3" cy="601.7" rx="3.5" ry="6"/>
	<path d="M139.2,617.7c-3.7,0-6.8,3-6.8,6.8s3,6.8,6.8,6.8h124.7v-13.5H139.2z"/>
	<path class="st13" d="M193.9,690c1.6,2.9,0.6,6.6-2.3,8.2c-2.9,1.6-6.6,0.6-8.2-2.3l-52.2-92.4l10.5-5.9L193.9,690z"/>
	<ellipse transform="matrix(0.8706 -0.492 0.492 0.8706 -277.7975 144.8157)" class="st14" cx="136.4" cy="600.5" rx="6" ry="3.5"/>
	<ellipse class="st14" cx="263.9" cy="624.4" rx="3.9" ry="6.8"/>
	<polygon class="st12" points="243.4,617.2 152.5,617.2 103.7,697 195.5,699.9 	"/>
	<path class="st13" d="M283.2,690c1.6,2.9,0.6,6.6-2.3,8.2s-6.6,0.6-8.2-2.3l-52.2-92.4l10.5-5.9L283.2,690z"/>
	<ellipse transform="matrix(0.8706 -0.492 0.492 0.8706 -266.2352 188.7752)" class="st14" cx="225.7" cy="600.5" rx="6" ry="3.5"/>
</g>
<g id="dinner">
	<g id="fire_copy">
		<ellipse class="st12" cx="803.5" cy="689.3" rx="37.7" ry="8.8"/>
		<path class="st17" d="M800.1,660.9l9.8,4.8l11.3-4.8c0,0,8.5-4.3,1.5-13.1c-3.5-4.3-7.6-12.3-6.1-16.8c0,0-10.6,15.7-6.8,22.3
			c0,0-7.2,4.1-9.5-15.7C800.1,637.5,791.9,656.8,800.1,660.9z"/>
		<path class="st17" d="M787.5,660.9l9.8,4.8l11.3-4.8c0,0,8.5-4.3,1.5-13.1c-3.5-4.3-7.6-12.3-6.1-16.8c0,0-10.6,15.7-6.8,22.3
			c0,0-7.2,4.1-9.5-15.7C787.5,637.5,779.3,656.8,787.5,660.9z"/>
		<path class="st18" d="M799.3,645.1c-3.3,0-6,2.7-6,6c0,3.3,2.7,6,6,6h38.7v-12.1H799.3z"/>
		<circle class="st19" cx="837.9" cy="651.2" r="6"/>
		<path class="st10" d="M823.7,680.2c3,1.4,4.4,5,3,8c-1.4,3-5,4.4-8,3l-35.2-16l5-11L823.7,680.2z"/>
		<ellipse transform="matrix(0.3799 -0.925 0.925 0.3799 -132.0363 1142.3391)" class="st11" cx="786" cy="669.6" rx="6" ry="3.7"/>
		<path class="st10" d="M783.6,680.9c-3,1.5-4.2,5.1-2.7,8.1c1.5,3,5.1,4.2,8.1,2.7l34.6-17.2l-5.4-10.8L783.6,680.9z"/>
		
			<ellipse transform="matrix(0.9285 -0.3713 0.3713 0.9285 -189.7465 352.6397)" class="st11" cx="820.9" cy="669.1" rx="3.5" ry="6"/>
		<path class="st11" d="M793.1,660.9l9.8,4.8l11.3-4.8c0,0,8.5-4.3,1.5-13.1c-3.5-4.3-7.6-12.3-6.1-16.8c0,0-10.6,15.7-6.8,22.3
			c0,0-7.2,4.1-9.5-15.7C793.1,637.5,784.9,656.8,793.1,660.9z"/>
	</g>
	<path class="st13" d="M956.2,688.1c1.6,2.9,0.6,6.6-2.3,8.2s-6.6,0.6-8.2-2.3l-54.6-143.2l10.5-5.9L956.2,688.1z"/>
	<ellipse transform="matrix(0.8706 -0.492 0.492 0.8706 -153.5235 511.9153)" class="st13" cx="896.4" cy="547.8" rx="6" ry="3.5"/>
	<path class="st16" d="M734.7,691.1c1.6,2.9,0.6,6.6-2.3,8.2c-2.9,1.6-6.6,0.6-8.2-2.3L672,550.8l10.5-5.9L734.7,691.1z"/>
	<ellipse transform="matrix(0.8706 -0.492 0.492 0.8706 -181.8884 404.0724)" class="st16" cx="677.2" cy="547.8" rx="6" ry="3.5"/>
	<path class="st13" d="M734.7,691.1c1.6,2.9,0.6,6.6-2.3,8.2c-2.9,1.6-6.6,0.6-8.2-2.3L672,550.8l10.5-5.9L734.7,691.1z"/>
	<ellipse transform="matrix(0.8706 -0.492 0.492 0.8706 -181.8884 404.0724)" class="st13" cx="677.2" cy="547.8" rx="6" ry="3.5"/>
	<path d="M926.1,563.8c3.7,0,6.8,3,6.8,6.8s-3,6.8-6.8,6.8H676.8v-13.5H926.1z"/>
	<path class="st13" d="M871.4,689.9c-1.6,2.9-0.6,6.6,2.3,8.2s6.6,0.6,8.2-2.3l52.2-146.3l-10.5-5.9L871.4,689.9z"/>
	<ellipse transform="matrix(0.492 -0.8706 0.8706 0.492 -4.009 1086.3657)" class="st14" cx="928.9" cy="546.6" rx="3.5" ry="6"/>
	<path class="st14" d="M661.3,570.5c0,3.7,13.3,6.8,15.5,6.8c2.2,0,3.9-3,3.9-6.8c0-3.7-1.8-6.8-3.9-6.8
		C674.6,563.8,661.3,566.8,661.3,570.5z"/>
	<path class="st10" d="M661.3,570.5c0,3.7,13.3,6.8,15.5,6.8c2.2,0,3.9-3,3.9-6.8H661.3z"/>
	<path class="st13" d="M652.2,689.9c-1.6,2.9-0.6,6.6,2.3,8.2s6.6,0.6,8.2-2.3l52.2-146.3l-10.5-5.9L652.2,689.9z"/>
	<ellipse transform="matrix(0.492 -0.8706 0.8706 0.492 -115.3563 895.5406)" class="st14" cx="709.7" cy="546.6" rx="3.5" ry="6"/>
	<g id="pig">
		<rect x="857.1" y="583.1" class="st15" width="7.7" height="24.4"/>
		<rect x="794.5" y="583.1" class="st15" width="7.7" height="24.4"/>
		<path class="st15" d="M768.7,542.3l4.4-21c0,0,14.5,5.1,16.2,25.6L768.7,542.3z"/>
		<path class="st11" d="M876.4,593.8l-95.5-3.8v-35.3l79.8-16.1c23-4.5,23,16.8,23,23.7v24.2C883.7,590.5,880.4,593.8,876.4,593.8z"
			/>
		<circle class="st11" cx="780.9" cy="567.9" r="29.3"/>
		<polygon class="st11" points="731.7,559.8 765.7,568.3 769.5,547.3 735.2,549.8 		"/>
		<path class="st11" d="M734.9,581.8l28.3-7c1.3-0.3,2.7,0.5,2.9,1.9l2,11.3c0.3,1.4-0.8,2.7-2.2,2.8l-26.5,1.6
			c-0.9,0.1-1.7-0.4-2.1-1.1l-3.8-5.9C732.6,584,733.3,582.2,734.9,581.8z"/>
		<rect x="806.8" y="590" class="st11" width="7.7" height="24.4"/>
		<rect x="868.8" y="590" class="st11" width="7.7" height="24.4"/>
		
			<rect x="770.5" y="553.6" transform="matrix(0.7071 0.7071 -0.7071 0.7071 621.9907 -381.9399)" class="st13" width="3.2" height="12.5"/>
		
			<rect x="770.5" y="553.6" transform="matrix(0.7071 -0.7071 0.7071 0.7071 -169.7415 709.8861)" class="st13" width="3.2" height="12.5"/>
		<path class="st11" d="M776.5,540.3l4.4-21c0,0,14.5,5.1,16.2,25.6L776.5,540.3z"/>
		<rect x="806.8" y="612.3" class="st13" width="7.7" height="8"/>
		<rect x="868.8" y="612.3" class="st13" width="7.7" height="8"/>
		<rect x="857.1" y="604.5" class="st13" width="7.7" height="8"/>
		<rect x="794.5" y="604.5" class="st13" width="7.7" height="8"/>
		<path class="st11" d="M735.4,565.2l-4.2-0.8c-2.6-0.5-4.4-3.1-3.9-5.7l2.3-12c0.5-2.6,3.1-4.4,5.7-3.9l4.2,0.8
			c2.6,0.5,4.4,3.1,3.9,5.7l-2.3,12C740.7,564,738.1,565.7,735.4,565.2z"/>
		<circle class="st15" cx="731.7" cy="553.8" r="2.5"/>
		<circle class="st15" cx="738.4" cy="555.5" r="2.5"/>
		<path class="st11" d="M745.8,562.5c0,0,11.5,5.4,1.8,19.2l9-2.3l0.7-16.8H745.8z"/>
		<path class="st11" d="M895.7,535L895.7,535c-0.5-0.9-1.6-1.2-2.5-0.7l-17.4,9.6c-0.9,0.5-1.2,1.6-0.7,2.5l0,0
			c0.5,0.9,1.6,1.2,2.5,0.7l17.4-9.6C895.9,537,896.2,535.9,895.7,535z"/>
	</g>
</g>
<g id="Rog">
	<circle class="st17" cx="545.6" cy="671.1" r="5.6"/>
	<circle class="st17" cx="491.6" cy="671.1" r="5.6"/>
	<rect x="617.9" y="622.4" class="st13" width="6.9" height="219.3"/>
	<path class="st17" d="M558.4,717.6c0,0,25.3,25.6,62.3,11.4l-2.9-7c0,0-35.8,11.1-50.8-12.7L558.4,717.6z"/>
	<circle class="st17" cx="621.3" cy="724.9" r="9"/>
	<path class="st17" d="M480.7,699.2c0,0-33.3,13.6-34.2,53.3h7.5c0,0,3.4-37.3,31-42.2L480.7,699.2z"/>
	<path class="st17" d="M558.4,770.6c0,0,12.8,35.3-3.6,58.9h-8.2c0,0,17.8-35-2.2-57L558.4,770.6z"/>
	<path class="st17" d="M554.7,829.5c0,0,0,5.9,10.6,0c10.7-5.9,18.3,14.1,1.3,11.8c-17-2.3-17.9-1.6-22.3,0.2s-7.9-8.9,2.2-12
		C556.7,826.5,554.7,829.5,554.7,829.5z"/>
	<path class="st17" d="M480.6,776.1c0,0-12.1,29.8,4.4,53.4h8.2c0,0-17.8-35,2.2-57L480.6,776.1z"/>
	<path class="st15" d="M484.2,744.6L468.7,781l12-6.4l2,8.8l7-7.3l8.9,11.3l8.1-17c0,0,14-9,26.3,0.3l4.6,14.7l5.7-12.8l9,12.4
		l1.3-12.4L568,783L556,742.6L484.2,744.6z"/>
	<circle class="st15" cx="519.4" cy="719.8" r="43.1"/>
	<circle class="st17" cx="518.5" cy="671.4" r="27.4"/>
	<polygon class="st4" points="545.4,676.7 528.1,696.1 522,690.6 515.9,690.8 510.3,696.1 491.6,676.7 501.9,716.3 519.5,721.6 
		539,714.1 	"/>
	<circle cx="508.1" cy="671.4" r="2.9"/>
	<circle cx="529.5" cy="671.4" r="2.9"/>
	<polygon class="st4" points="491.1,669.7 485.3,626.2 493.3,629.5 499.5,618.9 508.6,620.4 510.1,614.9 515.3,621.7 518.5,612.6 
		522.8,622.6 527.5,615.3 533.9,628 540.1,624.2 541.7,631.3 549.5,625.7 545.4,666.2 526.6,646.6 509.1,647.1 	"/>
	<path class="st4" d="M512.5,668.7l-10.9-3c-1.3-0.4-2.1-1.7-1.7-3l0,0c0.4-1.3,1.7-2.1,3-1.7l10.9,3c1.3,0.4,2.1,1.7,1.7,3l0,0
		C515.2,668.3,513.8,669,512.5,668.7z"/>
	<path class="st4" d="M535.6,665.8l-11,2.8c-1.3,0.3-2.6-0.5-3-1.8l0,0c-0.3-1.3,0.5-2.6,1.8-3l11-2.8c1.3-0.3,2.6,0.5,3,1.8l0,0
		C537.7,664.2,536.9,665.5,535.6,665.8z"/>
	<polygon class="st15" points="488.9,689.5 463.8,701.6 471.5,702.3 467.4,711.9 474.4,714.5 469.4,721.5 484.6,722.8 	"/>
	<polygon class="st15" points="550,689.5 575,701.6 567.4,702.3 571.4,711.9 564.4,714.5 569.4,721.5 554.3,722.8 	"/>
	<path class="st17" d="M485,829.5c0,0,0,5.9-10.6,0s-18.3,14.1-1.3,11.8c17-2.3,17.9-1.6,22.3,0.2s7.9-8.9-2.2-12
		C483,826.5,485,829.5,485,829.5z"/>
	<circle class="st17" cx="450.1" cy="754.7" r="9"/>
	<polygon class="st10" points="638,649.6 621.3,666.4 604.6,649.6 621.3,609.7 	"/>
	<polygon class="st14" points="621.3,609.7 638,649.6 621.3,666.4 	"/>
	<circle class="st17" cx="584.6" cy="729.6" r="4.9"/>
	<circle class="st17" cx="454.4" cy="726.7" r="4.9"/>
	<circle class="st17" cx="477.7" cy="801.5" r="4.9"/>
	<circle class="st17" cx="562.5" cy="801.5" r="4.9"/>
	<path class="st14" d="M482.6,766.4c0,0,8.9-13.4,9.4-24.6v-11.7c0,0,6.8-3.6,11.4,1.8C503.4,732,502.4,761.2,482.6,766.4z"/>
	<path class="st13" d="M519.5,748.7c-17.3,0-32.3-4.4-39.4-10.9c0.5,9.1,17.9,16.5,39.4,16.5c21.5,0,38.9-7.4,39.4-16.5
		C551.7,744.2,536.8,748.7,519.5,748.7z"/>
	<path class="st12" d="M627.6,659.8v5.9c0,2.5-2,4.4-4.4,4.4h-3.9c-2.5,0-4.4-2-4.4-4.4v-5.9H627.6z"/>
	<path class="st4" d="M503.4,734.5V726c0-1.8-1.4-3.2-3.2-3.2h-4.9c-1.8,0-3.2,1.4-3.2,3.2v8.5H503.4z"/>
	<path d="M514.9,688.6c-0.8,0-1.4-0.7-1.2-1.5c0.7-2.5,3-4.4,5.7-4.4s5.1,1.9,5.7,4.4c0.2,0.8-0.4,1.5-1.2,1.5H514.9z"/>
</g>
<g id="fire">
	<ellipse class="st12" cx="242" cy="769.6" rx="37.7" ry="8.8"/>
	<path class="st17" d="M238.6,741.3l9.8,4.8l11.3-4.8c0,0,8.5-4.3,1.5-13.1c-3.5-4.3-7.6-12.3-6.1-16.8c0,0-10.6,15.7-6.8,22.3
		c0,0-7.2,4.1-9.5-15.7C238.6,717.9,230.5,737.1,238.6,741.3z"/>
	<path class="st17" d="M226,741.3l9.8,4.8l11.3-4.8c0,0,8.5-4.3,1.5-13.1c-3.5-4.3-7.6-12.3-6.1-16.8c0,0-10.6,15.7-6.8,22.3
		c0,0-7.2,4.1-9.5-15.7C226,717.9,217.8,737.1,226,741.3z"/>
	<path class="st18" d="M237.8,725.5c-3.3,0-6,2.7-6,6c0,3.3,2.7,6,6,6h38.7v-12.1H237.8z"/>
	<circle class="st19" cx="276.4" cy="731.5" r="6"/>
	<path class="st10" d="M262.2,760.5c3,1.4,4.4,5,3,8c-1.4,3-5,4.4-8,3l-35.2-16l5-11L262.2,760.5z"/>
	<ellipse transform="matrix(0.3799 -0.925 0.925 0.3799 -554.5433 672.7661)" class="st11" cx="224.5" cy="750" rx="6" ry="3.7"/>
	<path class="st10" d="M222.1,761.2c-3,1.5-4.2,5.1-2.7,8.1c1.5,3,5.1,4.2,8.1,2.7l34.6-17.2l-5.4-10.8L222.1,761.2z"/>
	
		<ellipse transform="matrix(0.9285 -0.3713 0.3713 0.9285 -259.7185 149.8973)" class="st11" cx="259.4" cy="749.4" rx="3.5" ry="6"/>
	<path class="st11" d="M231.6,741.3l9.8,4.8l11.3-4.8c0,0,8.5-4.3,1.5-13.1c-3.5-4.3-7.6-12.3-6.1-16.8c0,0-10.6,15.7-6.8,22.3
		c0,0-7.2,4.1-9.5-15.7C231.6,717.9,223.4,737.1,231.6,741.3z"/>
</g>
<g id="texture" class="st0">
	<defs>
		<rect id="SVGID_00000021814479142871292030000000385813253931556782_" x="-454" y="-360" width="2000" height="2000"/>
	</defs>
	<clipPath id="SVGID_00000098203285706491784570000001468847229792470936_" class="st1">
		<use xlink:href="#SVGID_00000021814479142871292030000000385813253931556782_"  style="overflow:visible;"/>
	</clipPath>
	<g style="clip-path:url(#SVGID_00000098203285706491784570000001468847229792470936_);">
		
			<image style="display:inline;overflow:visible;" width="2005" height="3000" xlink:href="F268C1A9.jpg"  transform="matrix(0 1.0114 1.0189 0 -970.8588 -364.13)">
		</image>
	</g>
	<g style="display:inline;clip-path:url(#SVGID_00000098203285706491784570000001468847229792470936_);">
		
			<image style="overflow:visible;" width="12739" height="8451" xlink:href="F268C1AB.jpg"  transform="matrix(0.24 0 0 0.24 -1007 -370.12)">
		</image>
	</g>
</g>
</svg>
