<?xml version="1.0" encoding="utf-8"?>
<!-- Generator: Adobe Illustrator 28.0.0, SVG Export Plug-In . SVG Version: 6.00 Build 0)  -->
<svg version="1.1" xmlns="http://www.w3.org/2000/svg" xmlns:xlink="http://www.w3.org/1999/xlink" x="0px" y="0px"
	 viewBox="0 0 1229.7 966" style="enable-background:new 0 0 1229.7 966;" xml:space="preserve">
<style type="text/css">
	.st0{display:none;}
	.st1{display:inline;fill:url(#SVGID_1_);}
	.st2{display:none;opacity:0.25;fill:#895881;}
	.st3{display:inline;}
	.st4{fill:#100F0F;}
	.st5{fill:#1C1B1A;}
	.st6{fill:#6F6E69;}
	.st7{display:none;opacity:0.3;fill:#F6E8D7;}
	.st8{display:none;opacity:0.2;fill:#F6E8D7;}
	.st9{display:none;opacity:0.1;fill:#F6E8D7;}
	.st10{fill:#CECDC3;}
	.st11{fill:#403E3C;}
	.st12{fill:#878580;}
	.st13{fill:#282726;}
	.st14{fill:#343331;}
	.st15{fill:#1A1A1A;}
	.st16{fill:#824737;}
	.st17{fill:#B3B3B3;}
	.st18{display:none;fill:#824737;}
	.st19{display:none;fill:#D6562B;}
	.st20{fill:#F2F0E5;}
	.st21{fill:#808080;}
	.st22{display:none;fill:#D069A9;}
</style>
<g id="bckaground">
	<g class="st0">
		<linearGradient id="SVGID_1_" gradientUnits="userSpaceOnUse" x1="1331.4691" y1="490.8834" x2="70.088" y2="750.5884">
			<stop  offset="0" style="stop-color:#50A5DC"/>
			<stop  offset="0.5069" style="stop-color:#467AB0"/>
			<stop  offset="1" style="stop-color:#3B4D81"/>
		</linearGradient>
		<rect x="-387.9" y="-361" class="st1" width="2000" height="2000"/>
	</g>
	<rect x="-387.9" y="-361" class="st2" width="2000" height="1024.3"/>
	<g id="Layer_21" class="st0">
		<g class="st3">
			<rect x="0.5" y="-4.5" class="st4" width="1228.7" height="970"/>
			<path d="M1228.7-4v969H1V-4H1228.7 M1229.7-5H0v971h1229.7V-5L1229.7-5z"/>
		</g>
	</g>
</g>
<g id="Lake">
	<polygon class="st5" points="248.2,875.1 254.4,892.2 593.7,956.4 874,928.7 893.7,907.3 922.7,824.3 875.6,788.8 938.2,821.8 
		988.1,832 1141.7,695.8 1141.7,695.8 1141.7,629 1089.7,604.8 800.6,659.7 794.9,718.9 782.1,722.6 794,780.6 800.8,843.1 
		611.2,872.4 291.6,808.3 271.7,733.6 152.2,577.4 80.8,607.4 80.8,698.8 174.2,850.7 	"/>
</g>
<g id="rock">
	<polygon class="st6" points="80.8,607.4 173.5,782.5 247.3,784.6 230.8,826.9 611.2,872.4 874.6,872.4 922.7,824.3 804.3,735.5 
		840.1,729.5 1012.3,758.6 1141.7,629 978.7,552.9 378,540.3 132.6,580.6 	"/>
</g>
<g id="moon">
	<path class="st7" d="M80.8-111.7C15.1-111.7-38.1-58.4-38.1,7.3c0,65.7,53.3,118.9,118.9,118.9c65.7,0,118.9-53.3,118.9-118.9
		C199.8-58.4,146.5-111.7,80.8-111.7z M80.8,114.8C21.4,114.8-26.7,66.6-26.7,7.3c0-59.4,48.1-107.5,107.5-107.5
		S188.3-52.1,188.3,7.3C188.3,66.6,140.2,114.8,80.8,114.8z"/>
	<path class="st8" d="M80.8-145.9C-3.8-145.9-72.3-77.3-72.3,7.3c0,84.6,68.6,153.1,153.1,153.1c84.6,0,153.1-68.6,153.1-153.1
		C233.9-77.3,165.4-145.9,80.8-145.9z M80.8,145.6c-76.4,0-138.4-62-138.4-138.4c0-76.4,62-138.4,138.4-138.4s138.4,62,138.4,138.4
		C219.2,83.7,157.2,145.6,80.8,145.6z"/>
	<path class="st9" d="M80.8-192.1c-110.1,0-199.4,89.3-199.4,199.4c0,110.1,89.3,199.4,199.4,199.4c110.1,0,199.4-89.3,199.4-199.4
		C280.2-102.9,190.9-192.1,80.8-192.1z M80.8,187.4c-99.5,0-180.2-80.7-180.2-180.2c0-99.5,80.7-180.2,180.2-180.2S261-92.3,261,7.3
		C261,106.8,180.3,187.4,80.8,187.4z"/>
</g>
<g id="sun">
</g>
<g id="clouds_back">
	<ellipse class="st10" cx="590.1" cy="59.2" rx="63.4" ry="21.8"/>
	<ellipse class="st10" cx="644.3" cy="81" rx="63.4" ry="21.8"/>
	<ellipse class="st10" cx="359.4" cy="271.1" rx="57.1" ry="19.6"/>
	<circle class="st10" cx="645.4" cy="52.1" r="22.2"/>
</g>
<g id="mountain">
	<polygon class="st5" points="328.7,256.3 133,582.8 347,652.3 	"/>
	<polygon class="st11" points="592.5,8.3 813,369 592.5,447.6 	"/>
	<polygon class="st5" points="391.9,330.3 592.5,8.3 592.5,447.6 	"/>
	<polygon class="st12" points="328.7,256.3 736.7,463.3 543,522.3 426.7,522.3 	"/>
	<polygon class="st13" points="328.7,256.3 455.2,466.3 328.7,593.8 	"/>
	<polygon class="st14" points="797.5,610.7 684.1,640.6 617.6,466.3 697.7,447.6 	"/>
	<polygon class="st11" points="235.7,648.3 273.2,558.2 455.2,466.3 617.6,466.3 617.6,721.3 	"/>
	<polygon class="st13" points="797.5,610.7 697.7,447.6 787.5,389.7 996.9,471.7 1042.1,610.7 	"/>
	<polygon class="st12" points="617.6,721.3 697.7,676.3 617.6,466.3 	"/>
	<polygon class="st12" points="996.9,471.7 800.6,266.3 653.3,266.3 787.5,389.7 	"/>
	<polygon class="st14" points="787.5,389.7 653.3,266.3 512.4,353.1 697.7,447.6 	"/>
</g>
<g id="robot">
</g>
<g id="UFO">
	<path class="st12" d="M258,181.1c0,6.9-30.1,21.7-67.2,21.7c-37.1,0-67.2-14.7-67.2-21.7c0-6.9,30.1-5.3,67.2-5.3
		C227.9,175.8,258,174.2,258,181.1z"/>
	<path class="st10" d="M258,181.1c0,6.9-30.1,12.6-67.2,12.6c-37.1,0-67.2-5.6-67.2-12.6c0-6.9,30.1-12.6,67.2-12.6
		C227.9,168.6,258,174.2,258,181.1z"/>
	<path class="st12" d="M163.1,180.5c0,0,23.2,8.8,55.4-0.4c0.6-4.4-4.5-27.6-26.6-27.2C192,152.8,163.7,149.3,163.1,180.5z"/>
	<path class="st15" d="M208.5,170.8c0,3.7-3,6.6-6.6,6.6c-3.7,0-6.6-3-6.6-6.6s3-6.6,6.6-6.6C205.6,164.2,208.5,167.1,208.5,170.8z"
		/>
</g>
<g id="clouds_front">
	<ellipse class="st10" cx="571" cy="129.7" rx="57.1" ry="19.6"/>
	<ellipse class="st10" cx="522.1" cy="149.3" rx="57.1" ry="19.6"/>
	<ellipse class="st10" cx="723.6" cy="213.3" rx="57.1" ry="19.6"/>
	<ellipse class="st10" cx="292" cy="325.3" rx="57.1" ry="19.6"/>
	<circle class="st10" cx="331.7" cy="314.7" r="20"/>
	<circle class="st10" cx="521.1" cy="123.3" r="20"/>
	<circle class="st10" cx="707.5" cy="195.7" r="20"/>
</g>
<g id="trees">
	<ellipse class="st11" cx="453.9" cy="721.6" rx="42.5" ry="14.5"/>
	<ellipse class="st11" cx="1076.8" cy="640.8" rx="34.9" ry="8.1"/>
	<ellipse class="st11" cx="168.3" cy="644.8" rx="56.4" ry="12.7"/>
	<polygon class="st10" points="472.1,682.7 449.1,682.7 449.1,727.3 472.1,721.3 	"/>
	<polygon class="st12" points="449.1,727.3 433.9,718.4 433.9,671.5 449.1,682.7 	"/>
	<polygon class="st14" points="412.4,699.9 533,686.3 507.1,633 433.9,642.7 	"/>
	<polygon class="st5" points="412.4,699.9 364.4,666.5 395.5,625.9 433.9,642.7 	"/>
	<polygon class="st14" points="419.2,663.9 527.2,651.7 504,603.9 438.4,612.7 	"/>
	<polygon class="st5" points="419.2,663.9 376.2,633.9 404,597.6 438.4,612.7 	"/>
	<polygon class="st14" points="427.2,626.7 518.6,616.3 499,575.9 443.5,583.3 	"/>
	<polygon class="st5" points="427.2,626.7 390.8,601.3 414.3,570.5 443.5,583.3 	"/>
	<polygon class="st14" points="463.4,515.2 437.1,586.1 508.8,578 	"/>
	<polygon class="st5" points="463.4,515.2 437.1,586.1 408.6,566.1 	"/>
	<polygon class="st10" points="1088.8,612.6 1072.7,612.6 1072.7,643.8 1088.8,639.6 	"/>
	<polygon class="st12" points="1072.7,643.8 1062,637.6 1062,604.7 1072.7,612.6 	"/>
	<polygon class="st14" points="1047,624.6 1131.5,615.1 1113.3,577.7 1062,584.6 	"/>
	<polygon class="st5" points="1047,624.6 1013.4,601.2 1035.1,572.8 1062,584.6 	"/>
	<polygon class="st14" points="1051.7,599.4 1127.4,590.9 1111.2,557.4 1065.2,563.5 	"/>
	<polygon class="st5" points="1051.7,599.4 1021.6,578.4 1041.1,553 1065.2,563.5 	"/>
	<polygon class="st14" points="1057.3,573.3 1121.4,566.1 1107.6,537.8 1068.8,542.9 	"/>
	<polygon class="st5" points="1057.3,573.3 1031.8,555.5 1048.3,534 1068.8,542.9 	"/>
	<polygon class="st14" points="1082.7,495.2 1064.3,544.9 1114.5,539.2 	"/>
	<polygon class="st5" points="1082.7,495.2 1064.3,544.9 1044.3,530.9 	"/>
	<polygon class="st10" points="189.6,603 165.1,603 165.1,650.4 189.6,644 	"/>
	<polygon class="st12" points="165.1,650.4 149,640.9 149,591 165.1,603 	"/>
	<polygon class="st14" points="126.1,621.3 254.3,606.8 226.8,550.1 149,560.5 	"/>
	<polygon class="st5" points="126.1,621.3 75.1,585.7 108.1,542.6 149,560.5 	"/>
	<polygon class="st14" points="133.3,583 248.2,570 223.5,519.2 153.8,528.5 	"/>
	<polygon class="st5" points="133.3,583 87.6,551.1 117.2,512.5 153.8,528.5 	"/>
	<polygon class="st14" points="141.8,543.4 239,532.4 218.1,489.4 159.1,497.3 	"/>
	<polygon class="st5" points="141.8,543.4 103.1,516.4 128.2,483.7 159.1,497.3 	"/>
	<polygon class="st14" points="180.3,424.9 152.4,500.2 228.6,491.6 	"/>
	<polygon class="st5" points="180.3,424.9 152.4,500.2 122,479.1 	"/>
</g>
<g id="tent">
	<ellipse class="st11" cx="257.3" cy="692.6" rx="121.8" ry="18.2"/>
	<path class="st5" d="M176.1,688.1c-1.6,2.9-0.6,6.6,2.3,8.2c2.9,1.6,6.6,0.6,8.2-2.3l54.6-89.4l-10.5-5.9L176.1,688.1z"/>
	<ellipse transform="matrix(0.492 -0.8706 0.8706 0.492 -403.9456 511.0893)" class="st5" cx="236" cy="601.7" rx="3.5" ry="6"/>
	<g>
		<polygon class="st4" points="264.8,694.9 310.4,618.2 349.3,694.9 		"/>
		<path d="M310.4,619.3l38.2,75.2h-82.9L310.4,619.3 M310.4,617.2l-46.5,78.2h86.3L310.4,617.2L310.4,617.2z"/>
	</g>
	<path class="st16" d="M267.9,691.2c-1.6,2.9-0.6,6.6,2.3,8.2c2.9,1.6,6.6,0.6,8.2-2.3l52.2-92.4l-10.5-5.9L267.9,691.2z"/>
	<ellipse transform="matrix(0.492 -0.8706 0.8706 0.492 -358.5576 588.8745)" class="st16" cx="325.3" cy="601.7" rx="3.5" ry="6"/>
	<path class="st5" d="M267.9,691.2c-1.6,2.9-0.6,6.6,2.3,8.2c2.9,1.6,6.6,0.6,8.2-2.3l52.2-92.4l-10.5-5.9L267.9,691.2z"/>
	<ellipse transform="matrix(0.492 -0.8706 0.8706 0.492 -358.5576 588.8745)" class="st5" cx="325.3" cy="601.7" rx="3.5" ry="6"/>
	<path d="M206.2,617.7c-3.7,0-6.8,3-6.8,6.8s3,6.8,6.8,6.8H331v-13.5H206.2z"/>
	<path class="st5" d="M260.9,690c1.6,2.9,0.6,6.6-2.3,8.2c-2.9,1.6-6.6,0.6-8.2-2.3l-52.2-92.4l10.5-5.9L260.9,690z"/>
	<ellipse transform="matrix(0.8706 -0.492 0.492 0.8706 -269.118 177.8146)" class="st17" cx="203.5" cy="600.5" rx="6" ry="3.5"/>
	<ellipse class="st17" cx="331" cy="624.4" rx="3.9" ry="6.8"/>
	<polygon class="st13" points="310.4,617.2 219.5,617.2 170.8,697 262.6,699.9 	"/>
	<path class="st5" d="M350.3,690c1.6,2.9,0.6,6.6-2.3,8.2c-2.9,1.6-6.6,0.6-8.2-2.3l-52.2-92.4l10.5-5.9L350.3,690z"/>
	<ellipse transform="matrix(0.8706 -0.492 0.492 0.8706 -257.5558 221.7741)" class="st17" cx="292.8" cy="600.5" rx="6" ry="3.5"/>
</g>
<g id="dinner">
	<g id="fire_copy">
		<ellipse class="st11" cx="870.5" cy="689.3" rx="37.7" ry="8.8"/>
		<path class="st10" d="M867.2,660.9l9.8,4.8l11.3-4.8c0,0,8.5-4.3,1.5-13.1c-3.5-4.3-7.6-12.3-6.1-16.8c0,0-10.6,15.7-6.8,22.3
			c0,0-7.2,4.1-9.5-15.7C867.2,637.5,859,656.8,867.2,660.9z"/>
		<path class="st10" d="M854.6,660.9l9.8,4.8l11.3-4.8c0,0,8.5-4.3,1.5-13.1c-3.5-4.3-7.6-12.3-6.1-16.8c0,0-10.6,15.7-6.8,22.3
			c0,0-7.2,4.1-9.5-15.7C854.6,637.5,846.4,656.8,854.6,660.9z"/>
		<path class="st18" d="M866.3,645.1c-3.3,0-6,2.7-6,6c0,3.3,2.7,6,6,6H905v-12.1H866.3z"/>
		<circle class="st19" cx="905" cy="651.2" r="6"/>
		<path class="st12" d="M890.7,680.2c3,1.4,4.4,5,3,8c-1.4,3-5,4.4-8,3l-35.2-16l5-11L890.7,680.2z"/>
		
			<ellipse transform="matrix(0.3799 -0.925 0.925 0.3799 -90.4439 1204.3818)" class="st10" cx="853.1" cy="669.6" rx="6" ry="3.7"/>
		<path class="st12" d="M850.6,680.9c-3,1.5-4.2,5.1-2.7,8.1c1.5,3,5.1,4.2,8.1,2.7l34.6-17.2l-5.4-10.8L850.6,680.9z"/>
		
			<ellipse transform="matrix(0.9285 -0.3713 0.3713 0.9285 -184.9514 377.5438)" class="st10" cx="888" cy="669.1" rx="3.5" ry="6"/>
		<path class="st20" d="M860.2,660.9l9.8,4.8l11.3-4.8c0,0,8.5-4.3,1.5-13.1c-3.5-4.3-7.6-12.3-6.1-16.8c0,0-10.6,15.7-6.8,22.3
			c0,0-7.2,4.1-9.5-15.7C860.2,637.5,852,656.8,860.2,660.9z"/>
	</g>
	<path class="st5" d="M1023.3,688.1c1.6,2.9,0.6,6.6-2.3,8.2c-2.9,1.6-6.6,0.6-8.2-2.3l-54.6-143.2l10.5-5.9L1023.3,688.1z"/>
	<ellipse transform="matrix(0.8706 -0.492 0.492 0.8706 -144.844 544.9142)" class="st5" cx="963.5" cy="547.8" rx="6" ry="3.5"/>
	<path class="st16" d="M801.7,691.1c1.6,2.9,0.6,6.6-2.3,8.2c-2.9,1.6-6.6,0.6-8.2-2.3L739,550.8l10.5-5.9L801.7,691.1z"/>
	<ellipse transform="matrix(0.8706 -0.492 0.492 0.8706 -173.209 437.0714)" class="st16" cx="744.3" cy="547.8" rx="6" ry="3.5"/>
	<path class="st5" d="M801.7,691.1c1.6,2.9,0.6,6.6-2.3,8.2c-2.9,1.6-6.6,0.6-8.2-2.3L739,550.8l10.5-5.9L801.7,691.1z"/>
	<ellipse transform="matrix(0.8706 -0.492 0.492 0.8706 -173.209 437.0714)" class="st5" cx="744.3" cy="547.8" rx="6" ry="3.5"/>
	<path d="M993.2,563.8c3.7,0,6.8,3,6.8,6.8s-3,6.8-6.8,6.8H743.9v-13.5H993.2z"/>
	<path class="st5" d="M938.5,689.9c-1.6,2.9-0.6,6.6,2.3,8.2s6.6,0.6,8.2-2.3l52.2-146.3l-10.5-5.9L938.5,689.9z"/>
	<ellipse transform="matrix(0.492 -0.8706 0.8706 0.492 30.0623 1144.7565)" class="st17" cx="996" cy="546.6" rx="3.5" ry="6"/>
	<path class="st17" d="M728.4,570.5c0,3.7,13.3,6.8,15.5,6.8c2.2,0,3.9-3,3.9-6.8c0-3.7-1.8-6.8-3.9-6.8
		C741.7,563.8,728.4,566.8,728.4,570.5z"/>
	<path class="st21" d="M728.4,570.5c0,3.7,13.3,6.8,15.5,6.8c2.2,0,3.9-3,3.9-6.8H728.4z"/>
	<path class="st5" d="M719.3,689.9c-1.6,2.9-0.6,6.6,2.3,8.2s6.6,0.6,8.2-2.3L782,549.6l-10.5-5.9L719.3,689.9z"/>
	<ellipse transform="matrix(0.492 -0.8706 0.8706 0.492 -81.285 953.9313)" class="st17" cx="776.8" cy="546.6" rx="3.5" ry="6"/>
	<g id="pig">
		<rect x="924.1" y="583.1" class="st12" width="7.7" height="24.4"/>
		<rect x="861.5" y="583.1" class="st12" width="7.7" height="24.4"/>
		<path class="st12" d="M835.7,542.3l4.4-21c0,0,14.5,5.1,16.2,25.6L835.7,542.3z"/>
		<path class="st10" d="M943.5,593.8L848,590v-35.3l79.8-16.1c23-4.5,23,16.8,23,23.7v24.2C950.8,590.5,947.5,593.8,943.5,593.8z"/>
		<circle class="st10" cx="848" cy="567.9" r="29.3"/>
		<polygon class="st10" points="798.7,559.8 832.8,568.3 836.5,547.3 802.3,549.8 		"/>
		<path class="st10" d="M802,581.8l28.3-7c1.3-0.3,2.7,0.5,2.9,1.9l2,11.3c0.3,1.4-0.8,2.7-2.2,2.8l-26.5,1.6
			c-0.9,0.1-1.7-0.4-2.1-1.1l-3.8-5.9C799.7,584,800.4,582.2,802,581.8z"/>
		<rect x="873.9" y="590" class="st10" width="7.7" height="24.4"/>
		<rect x="935.8" y="590" class="st10" width="7.7" height="24.4"/>
		
			<rect x="837.5" y="553.6" transform="matrix(0.7071 0.7071 -0.7071 0.7071 641.6351 -429.3657)" class="st5" width="3.2" height="12.5"/>
		
			<rect x="837.5" y="553.6" transform="matrix(0.7071 -0.7071 0.7071 0.7071 -150.0972 757.3119)" class="st5" width="3.2" height="12.5"/>
		<path class="st10" d="M843.6,540.3l4.4-21c0,0,14.5,5.1,16.2,25.6L843.6,540.3z"/>
		<rect x="873.9" y="612.3" class="st5" width="7.7" height="8"/>
		<rect x="935.8" y="612.3" class="st5" width="7.7" height="8"/>
		<rect x="924.1" y="604.5" class="st5" width="7.7" height="8"/>
		<rect x="861.5" y="604.5" class="st5" width="7.7" height="8"/>
		<path class="st10" d="M802.5,565.2l-4.2-0.8c-2.6-0.5-4.4-3.1-3.9-5.7l2.3-12c0.5-2.6,3.1-4.4,5.7-3.9l4.2,0.8
			c2.6,0.5,4.4,3.1,3.9,5.7l-2.3,12C807.7,564,805.2,565.7,802.5,565.2z"/>
		<circle class="st12" cx="798.7" cy="553.8" r="2.5"/>
		<circle class="st12" cx="805.4" cy="555.5" r="2.5"/>
		<path class="st10" d="M812.8,562.5c0,0,11.5,5.4,1.8,19.2l9-2.3l0.7-16.8H812.8z"/>
		<path class="st10" d="M962.8,535L962.8,535c-0.5-0.9-1.6-1.2-2.5-0.7l-17.4,9.6c-0.9,0.5-1.2,1.6-0.7,2.5l0,0
			c0.5,0.9,1.6,1.2,2.5,0.7l17.4-9.6C962.9,537,963.2,535.9,962.8,535z"/>
	</g>
</g>
<g id="Rog">
	<circle class="st10" cx="612.7" cy="671.1" r="5.6"/>
	<circle class="st10" cx="558.6" cy="671.1" r="5.6"/>
	<rect x="684.9" y="622.4" class="st5" width="6.9" height="219.3"/>
	<path class="st10" d="M625.4,717.6c0,0,25.3,25.6,62.3,11.4l-2.9-7c0,0-35.8,11.1-50.8-12.7L625.4,717.6z"/>
	<circle class="st10" cx="688.4" cy="724.9" r="9"/>
	<path class="st10" d="M547.8,699.2c0,0-33.3,13.6-34.2,53.3h7.5c0,0,3.4-37.3,31-42.2L547.8,699.2z"/>
	<path class="st10" d="M625.4,770.6c0,0,12.8,35.3-3.6,58.9h-8.2c0,0,17.8-35-2.2-57L625.4,770.6z"/>
	<path class="st10" d="M621.8,829.5c0,0,0,5.9,10.6,0c10.7-5.9,18.3,14.1,1.3,11.8c-17-2.3-17.9-1.6-22.3,0.2s-7.9-8.9,2.2-12
		C623.7,826.5,621.8,829.5,621.8,829.5z"/>
	<path class="st10" d="M547.7,776.1c0,0-12.1,29.8,4.4,53.4h8.2c0,0-17.8-35,2.2-57L547.7,776.1z"/>
	<path class="st14" d="M551.3,744.6L535.8,781l12-6.4l2,8.8l7-7.3l8.9,11.3l8.1-17c0,0,14-9,26.3,0.3l4.6,14.7l5.7-12.8l9,12.4
		l1.3-12.4l14.3,10.4L623,742.6L551.3,744.6z"/>
	<circle class="st14" cx="586.5" cy="719.8" r="43.1"/>
	<circle class="st10" cx="585.5" cy="671.4" r="27.4"/>
	<polygon class="st5" points="612.4,676.7 595.2,696.1 589.1,690.6 582.9,690.8 577.4,696.1 558.6,676.7 568.9,716.3 586.6,721.6 
		606.1,714.1 	"/>
	<circle cx="575.2" cy="671.4" r="2.9"/>
	<circle cx="596.6" cy="671.4" r="2.9"/>
	<polygon class="st5" points="558.1,669.7 552.3,626.2 560.3,629.5 566.5,618.9 575.7,620.4 577.1,614.9 582.3,621.7 585.5,612.6 
		589.9,622.6 594.6,615.3 601,628 607.2,624.2 608.8,631.3 616.5,625.7 612.4,666.2 593.7,646.6 576.2,647.1 	"/>
	<path class="st5" d="M579.6,668.7l-10.9-3c-1.3-0.4-2.1-1.7-1.7-3l0,0c0.4-1.3,1.7-2.1,3-1.7l10.9,3c1.3,0.4,2.1,1.7,1.7,3l0,0
		C582.2,668.3,580.9,669,579.6,668.7z"/>
	<path class="st5" d="M602.7,665.8l-11,2.8c-1.3,0.3-2.6-0.5-3-1.8l0,0c-0.3-1.3,0.5-2.6,1.8-3l11-2.8c1.3-0.3,2.6,0.5,3,1.8l0,0
		C604.8,664.2,604,665.5,602.7,665.8z"/>
	<polygon class="st14" points="555.9,689.5 530.9,701.6 538.5,702.3 534.5,711.9 541.5,714.5 536.5,721.5 551.6,722.8 	"/>
	<polygon class="st14" points="617,689.5 642.1,701.6 634.4,702.3 638.5,711.9 631.5,714.5 636.5,721.5 621.3,722.8 	"/>
	<path class="st10" d="M552,829.5c0,0,0,5.9-10.6,0c-10.7-5.9-18.3,14.1-1.3,11.8c17-2.3,17.9-1.6,22.3,0.2s7.9-8.9-2.2-12
		C550.1,826.5,552,829.5,552,829.5z"/>
	<circle class="st10" cx="517.1" cy="754.7" r="9"/>
	<polygon class="st11" points="705.1,649.6 688.4,666.4 671.7,649.6 688.4,609.7 	"/>
	<polygon class="st12" points="688.4,609.7 705.1,649.6 688.4,666.4 	"/>
	<circle class="st10" cx="651.6" cy="729.6" r="4.9"/>
	<circle class="st10" cx="521.5" cy="726.7" r="4.9"/>
	<circle class="st10" cx="544.7" cy="801.5" r="4.9"/>
	<circle class="st10" cx="629.6" cy="801.5" r="4.9"/>
	<path class="st17" d="M549.7,766.4c0,0,8.9-13.4,9.4-24.6v-11.7c0,0,6.8-3.6,11.4,1.8C570.4,732,569.4,761.2,549.7,766.4z"/>
	<path class="st15" d="M586.5,748.7c-17.3,0-32.3-4.4-39.4-10.9c0.5,9.1,17.9,16.5,39.4,16.5c21.5,0,38.9-7.4,39.4-16.5
		C618.8,744.2,603.8,748.7,586.5,748.7z"/>
	<path class="st14" d="M694.6,659.8v5.9c0,2.5-2,4.4-4.4,4.4h-3.9c-2.5,0-4.4-2-4.4-4.4v-5.9H694.6z"/>
	<path class="st5" d="M570.4,734.5V726c0-1.8-1.4-3.2-3.2-3.2h-4.9c-1.8,0-3.2,1.4-3.2,3.2v8.5H570.4z"/>
	<path d="M581.9,688.6c-0.8,0-1.4-0.7-1.2-1.5c0.7-2.5,3-4.4,5.7-4.4c2.7,0,5.1,1.9,5.7,4.4c0.2,0.8-0.4,1.5-1.2,1.5H581.9z"/>
</g>
<g id="fire">
	<ellipse class="st11" cx="309" cy="769.6" rx="37.7" ry="8.8"/>
	<path class="st10" d="M305.7,741.3l9.8,4.8l11.3-4.8c0,0,8.5-4.3,1.5-13.1c-3.5-4.3-7.6-12.3-6.1-16.8c0,0-10.6,15.7-6.8,22.3
		c0,0-7.2,4.1-9.5-15.7C305.7,717.9,297.5,737.1,305.7,741.3z"/>
	<path class="st10" d="M293.1,741.3l9.8,4.8l11.3-4.8c0,0,8.5-4.3,1.5-13.1c-3.5-4.3-7.6-12.3-6.1-16.8c0,0-10.6,15.7-6.8,22.3
		c0,0-7.2,4.1-9.5-15.7C293.1,717.9,284.9,737.1,293.1,741.3z"/>
	<path class="st18" d="M304.9,725.5c-3.3,0-6,2.7-6,6c0,3.3,2.7,6,6,6h38.7v-12.1H304.9z"/>
	<circle class="st19" cx="343.5" cy="731.5" r="6"/>
	<path class="st12" d="M329.3,760.5c3,1.4,4.4,5,3,8c-1.4,3-5,4.4-8,3l-35.2-16l5-11L329.3,760.5z"/>
	<ellipse transform="matrix(0.3799 -0.925 0.925 0.3799 -512.951 734.8087)" class="st10" cx="291.6" cy="750" rx="6" ry="3.7"/>
	<path class="st12" d="M289.2,761.2c-3,1.5-4.2,5.1-2.7,8.1c1.5,3,5.1,4.2,8.1,2.7l34.6-17.2l-5.4-10.8L289.2,761.2z"/>
	
		<ellipse transform="matrix(0.9285 -0.3713 0.3713 0.9285 -254.9235 174.8015)" class="st10" cx="326.5" cy="749.4" rx="3.5" ry="6"/>
	<path class="st20" d="M298.7,741.3l9.8,4.8l11.3-4.8c0,0,8.5-4.3,1.5-13.1c-3.5-4.3-7.6-12.3-6.1-16.8c0,0-10.6,15.7-6.8,22.3
		c0,0-7.2,4.1-9.5-15.7C298.7,717.9,290.5,737.1,298.7,741.3z"/>
</g>
<g id="Layer_19">
	<circle class="st22" cx="151.9" cy="171.6" r="22.9"/>
	<path class="st22" d="M134.1,186l9.1,13.1c0,1,4,1.8,8.8,1.8s8.8-0.8,8.8-1.8l8.5-12.9L134.1,186z"/>
</g>
<g id="Layer_20">
	<circle class="st10" cx="991.1" cy="260.8" r="77.6"/>
</g>
<g id="texture" class="st0">
	<defs>
		<rect id="SVGID_00000002385669191910779560000010593920868386782855_" x="-386.9" y="-360" width="2000" height="2000"/>
	</defs>
	<clipPath id="SVGID_00000029743355069336491460000009125529255369715861_" class="st3">
		<use xlink:href="#SVGID_00000002385669191910779560000010593920868386782855_"  style="overflow:visible;"/>
	</clipPath>
	<g style="clip-path:url(#SVGID_00000029743355069336491460000009125529255369715861_);">
		
			<image style="display:inline;overflow:visible;" width="2005" height="3000" xlink:href="5CDF5D71.jpg"  transform="matrix(0 1.0114 1.0189 0 -903.7886 -364.13)">
		</image>
	</g>
	<g style="display:inline;clip-path:url(#SVGID_00000029743355069336491460000009125529255369715861_);">
		
			<image style="overflow:visible;" width="12739" height="8451" xlink:href="5CDF5D72.jpg"  transform="matrix(0.24 0 0 0.24 -939.9298 -370.12)">
		</image>
	</g>
</g>
</svg>
