<?xml version="1.0" encoding="UTF-8"?>
<svg xmlns="http://www.w3.org/2000/svg" version="1.1" viewBox="0 0 129.6 77.3">
  <defs>
    <style>
      .cls-1, .cls-2 {
        fill: #100f0f;
      }

      .cls-3 {
        fill: #fff;
      }

      .cls-4 {
        fill: #e41d3d;
      }

      .cls-5 {
        fill: #1b1b1b;
      }

      .cls-6, .cls-2 {
        display: none;
      }
    </style>
  </defs>
  <!-- Generator: Adobe Illustrator 28.6.0, SVG Export Plug-In . SVG Version: 1.2.0 Build 709)  -->
  <g>
    <g id="Layer_1">
      <g id="Layer_1-2" data-name="Layer_1">
        <g id="Layer_1-2">
          <g id="Layer_3" class="cls-6">
            <g id="Layer_2">
              <rect class="cls-5" x="-16.7" y="-30.3" width="160.2" height="144"/>
            </g>
          </g>
          <g id="Layer_1-2-2" data-name="Layer_1-2" class="cls-6">
            <path class="cls-3" d="M21.6,65.5c-.3-1.3-.5-2.6-.6-3.9-1.8,2.9-5,4.7-8.8,4.7s-10.3-4-10.3-12.5,3.3-12.3,10.5-15.9c5.6-2.8,8.1-4.6,8.1-10.2s-1-6.1-4.2-6.1-4.6,2.3-4.6,6.8v2.9H3.4v-2.9c0-8.7,4.7-14.2,13.1-14.2s12.4,7.2,12.4,16.2v17.1c0,11.3.1,14.4.9,18,0,0-8.2,0-8.2,0ZM20.4,40.1c-.9,1.2-2.1,2.2-4.2,3.4-3.9,2.4-5.8,4.5-5.8,9.2s2,6.1,4.6,6.1,5.4-2.4,5.4-7.6v-11.1Z"/>
            <path class="cls-3" d="M21.6,65.5c-.3-1.3-.5-2.6-.6-3.9-1.8,2.9-5,4.7-8.8,4.7s-10.3-4-10.3-12.5,3.3-12.3,10.5-15.9c5.6-2.8,8.1-4.6,8.1-10.2s-1-6.1-4.2-6.1-4.6,2.3-4.6,6.8v2.9H3.4v-2.9c0-8.7,4.7-14.2,13.1-14.2s12.4,7.2,12.4,16.2v17.1c0,11.3.1,14.4.9,18,0,0-8.2,0-8.2,0ZM20.4,40.1c-.9,1.2-2.1,2.2-4.2,3.4-3.9,2.4-5.8,4.5-5.8,9.2s2,6.1,4.6,6.1,5.4-2.4,5.4-7.6v-11.1Z"/>
            <path class="cls-3" d="M47.5,66.2c-8.4,0-13.5-5-13.5-13.7v-3.3h8.3v2.8c0,4.5,2.1,6.8,5.2,6.8s5.3-2,5.3-6-.6-4.2-3.2-6.3l-7.7-6.2c-4.4-3.5-7-6.5-7-12.7s4.4-13.4,12.6-13.4,12.8,5,12.8,13.7v3.4h-8.3v-2.9c0-4.2-1.5-6.8-4.5-6.8s-4.4,2.3-4.4,6,.6,4,3.2,6.1l7.7,6.2c4.4,3.5,7,6.7,7,12.9s-5.3,13.4-13.5,13.4Z"/>
            <path class="cls-3" d="M68,65.5V15h8.3v50.5h-8.3Z"/>
            <path class="cls-3" d="M115.2,14.2c-3.8.2-6.5,1.9-8,4.8-1.6-3.2-4.1-4.8-8.8-4.8s-6.1,1.7-7,3.9v-3.1h-8v50.5h8.3V28.4c0-4.5,1.7-6.7,4.6-6.7s4.6,2.2,4.6,6.7v37.1h8.3V28.4c0-4.5,1.7-6.7,4.6-6.7s.9.1,1.3.2v-7.7h0Z"/>
            <path class="cls-4" d="M128.3,76.4h-8.3V-2.4h8.3v78.8Z"/>
            <path class="cls-3" d="M11.7,31.3v2.1s-6.1,2.1-8.3,5.7v-7.8h8.3Z"/>
            <path class="cls-3" d="M52,31.3v1.1s7.6,4.4,8.3,6.8v-7.9s-8.3,0-8.3,0Z"/>
            <path class="cls-3" d="M42.3,49.4v-1.1s-7.6-5.8-8.3-8.1v9.2s8.3,0,8.3,0Z"/>
          </g>
          <g id="Layer_2-2">
            <rect class="cls-2" x="66" y="13" width="12.3" height="54.5"/>
            <path class="cls-2" d="M68,65.5V15h8.3v50.5h-8.3Z"/>
            <path class="cls-2" d="M98.9,67.5V28.4c0-4.7-1.8-4.7-2.6-4.7s-2.6,0-2.6,4.7v39.1h-12.3V13h12v.5c1.6-.8,3.4-1.3,5-1.3,3.9,0,6.8,1.1,8.8,3.3,1.9-2,4.6-3.1,7.8-3.3h2.1c0-.1-.2,12.3-.2,12.3l-2.5-.6c-.4,0-.6-.1-.8-.1-.7,0-2.6,0-2.6,4.7v39.1h-12.3.2Z"/>
            <path class="cls-2" d="M115.2,14.2c-3.8.2-6.5,1.9-8,4.8-1.6-3.2-4.1-4.8-8.8-4.8s-6.1,1.7-7,3.9v-3.1h-8v50.5h8.3V28.4c0-4.5,1.7-6.7,4.6-6.7s4.6,2.2,4.6,6.7v37.1h8.3V28.4c0-4.5,1.7-6.7,4.6-6.7s.9.1,1.3.2v-7.7h0Z"/>
            <rect class="cls-2" x="118" y="-1" width="12.3" height="79.4"/>
            <path class="cls-2" d="M128.3,76.4h-8.3V1h8.3v75.4Z"/>
            <path class="cls-2" d="M11.2,68.2c-5.9,0-12.3-4.5-12.3-14.4s4.6-14.2,11.5-17.8c5.6-2.8,7-4.1,7-8.4s-1.5-4.1-2.2-4.1-2.6,0-2.6,4.8v4.5l-1.3.5s-4.2,1.7-7.6,5.2l-3.5,3.7.2-13.8c0-10,5.7-16.2,15-16.2,14.4,0,14.4,13.2,14.4,18.2v17c0,11,0,14.1.9,17.6l.5,2.4h-12.2l-.4-1.5c-2.1,1.5-4.6,2.3-7.5,2.3,0,0,.1,0,0,0ZM17.4,44.3c-.4.2-.8.5-1.2.7-3.7,2.2-4.8,3.9-4.8,7.5s1.9,4.1,2.6,4.1c3,0,3.4-3.5,3.4-5.6,0,0,0-6.7,0-6.7Z"/>
            <g class="cls-6">
              <path class="cls-1" d="M2.3,37.1c3.7-3.9,8.3-5.7,8.3-5.7v-3.1c0-4.5,1.5-6.8,4.6-6.8s4.2,2.7,4.2,6.1c0,5.6-2.5,7.4-8.1,10.2-7.1,3.7-10.4,7.8-10.4,16s5.2,12.4,10.3,12.4,7.1-1.8,8.8-4.7c.1,1.3.3,2.6.6,3.9h8.1c-.8-3.6-.9-6.8-.9-18v-17c0-9-2-16.2-12.4-16.2S2.4,19.7,2.4,28.4v8.7h-.1ZM19.4,51.1c0,5.2-2.3,7.6-5.4,7.6s-4.6-1.7-4.6-6.1,1.9-6.9,5.8-9.2c2.2-1.3,3.3-2.3,4.2-3.4v11.1Z"/>
            </g>
            <path class="cls-2" d="M47.5,68.2c-9.6,0-15.5-6-15.5-15.7v-17l3.5,3.9c5.3,6,7.9,7.7,7.9,7.8l.9.6v4.2c0,2.2.6,4.8,3.2,4.8s3.3-2.2,3.3-4-.3-3-2.5-4.7l-7.7-6.2c-5-3.9-7.7-7.3-7.7-14.3s5.5-15.4,14.6-15.4,14.9,5.9,14.9,15.7l-.2,14.9-3.5-4.2c-3.3-4-7.6-6.3-7.7-6.3l-1.1-.6v-3.3c0-4.8-1.9-4.8-2.5-4.8s-2.4,0-2.4,4,.2,2.7,2.5,4.5l7.7,6.2c4.9,3.8,7.7,7.4,7.7,14.5s-6.1,15.4-15.5,15.4h0Z"/>
            <path class="cls-2" d="M60.4,27.9c0-8.7-4.7-13.7-12.9-13.7s-12.6,5-12.6,13.4,2.5,9.2,7,12.7l7.7,6.2c2.6,2.1,3.2,3.5,3.2,6.3,0,4-2.3,6-5.3,6s-5.2-2.3-5.2-6.8v-3.1s-2.7-1.8-8.3-8.1v11.7c0,8.7,5.1,13.7,13.5,13.7s13.5-5,13.5-13.4-2.5-9.4-7-12.9l-7.7-6.2c-2.6-2.1-3.2-3.3-3.2-6.1s1.5-6,4.4-6,4.5,2.5,4.5,6.8v2.1s4.7,2.5,8.3,6.8v-9.4h0Z"/>
            <path class="cls-1" d="M128.3,76.4h-8.3V1h8.3v75.4Z"/>
            <rect class="cls-1" x="68" y="15" width="8.3" height="50.5"/>
            <path class="cls-1" d="M115.2,14.2c-3.8.2-6.5,1.9-8,4.8-1.6-3.2-4.1-4.8-8.8-4.8s-6.1,1.7-7,3.9v-3.1h-8v50.5h8.3V28.4c0-4.5,1.7-6.7,4.6-6.7s4.6,2.2,4.6,6.7v37.1h8.3V28.4c0-4.5,1.7-6.7,4.6-6.7s.9.1,1.3.2v-7.7h0Z"/>
            <path class="cls-1" d="M2.3,37.1c2.3-3.6,8.3-5.7,8.3-5.7v-3.1c0-4.5,1.5-6.8,4.6-6.8s4.2,2.7,4.2,6.1c0,5.6-2.5,7.4-8.1,10.2-7.1,3.7-10.4,7.8-10.4,16s5.2,12.4,10.3,12.4,7.1-1.8,8.8-4.7c.1,1.3.3,2.6.6,3.9h8.1c-.8-3.6-.9-6.8-.9-18v-17c0-9-2-16.2-12.4-16.2S2.4,19.7,2.4,28.4v8.7h-.1ZM19.4,51.1c0,5.2-2.3,7.6-5.4,7.6s-4.6-1.7-4.6-6.1,1.9-6.9,5.8-9.2c2.2-1.3,3.3-2.3,4.2-3.4v11.1Z"/>
            <path class="cls-1" d="M60.4,27.9c0-8.7-4.7-13.7-12.9-13.7s-12.6,5-12.6,13.4,2.5,9.2,7,12.7l7.7,6.2c2.6,2.1,3.2,3.5,3.2,6.3,0,4-2.3,6-5.3,6s-5.2-2.3-5.2-6.8v-3.1s-7.6-5.8-8.3-8.1v11.7c0,8.7,5.1,13.7,13.5,13.7s13.5-5,13.5-13.4-2.5-9.4-7-12.9l-7.7-6.2c-2.6-2.1-3.2-3.3-3.2-6.1s1.5-6,4.4-6,4.5,2.5,4.5,6.8v2.1s7.6,4.4,8.3,6.8v-9.4h0Z"/>
            <g class="cls-6">
              <path class="cls-3" d="M3,74.4l-.6,2h-1.3l2.2-6.9h1.6l2.2,6.9h-1.3l-.6-2h-2.2ZM5,73.5l-.5-1.7c0-.4-.2-.9-.4-1.3h0c0,.4-.2.9-.3,1.3l-.5,1.7h1.7Z"/>
              <path class="cls-3" d="M9.2,76.4v-6.9h1.4l1.8,3c.5.8.9,1.6,1.2,2.3h0c-.1-.9-.1-1.8-.1-2.9v-2.4h1.2v6.9h-1.3l-1.8-3c-.4-.8-.9-1.6-1.2-2.4h0c.1.9.1,1.8.1,2.9v2.5s-1.3,0-1.3,0Z"/>
              <path class="cls-3" d="M18.5,70.5h-2v-1.1h5.2v1.1h-2v5.9h-1.3v-5.9s.1,0,0,0h0Z"/>
              <path class="cls-3" d="M29.7,72.9c0,2.3-1.4,3.6-3.3,3.6s-3.2-1.5-3.2-3.5,1.3-3.6,3.3-3.6,3.2,1.5,3.2,3.5ZM24.5,72.9c0,1.4.7,2.5,1.9,2.5s1.9-1.1,1.9-2.6-.6-2.5-1.9-2.5-1.9,1.2-1.9,2.6Z"/>
              <path class="cls-3" d="M31.8,76.4v-6.9h1.4l1.8,3c.5.8.9,1.6,1.2,2.3h0v-5.3h1.2v6.9h-1.3l-1.8-3c-.4-.8-.9-1.6-1.2-2.4h0v5.4h-1.3Z"/>
              <path class="cls-3" d="M39.7,75c.4.2,1,.4,1.7.4s1.3-.4,1.3-.9-.4-.8-1.2-1.1c-1.1-.4-1.9-1-1.9-2s.9-2,2.4-2,1.3.2,1.7.3l-.3,1c-.3,0-.7-.3-1.4-.3s-1.1.4-1.1.8.4.8,1.3,1.1c1.2.5,1.8,1.1,1.8,2.1s-.8,2.1-2.6,2.1-1.5-.2-1.9-.4l.2-1.1Z"/>
              <path class="cls-3" d="M47.4,69.5v6.9h-1.3v-6.9h1.3Z"/>
              <path class="cls-3" d="M55.7,73.6v-2.9h0c-.2.8-.5,1.8-.8,2.7l-1,3h-1l-.9-3c-.3-.9-.5-1.8-.7-2.7h0v3l-.2,2.8h-1.2l.5-6.9h1.7l.9,2.8c.2.8.5,1.6.6,2.4h0c.2-.8.4-1.6.7-2.4l1-2.8h1.6l.4,6.9h-1.2l-.2-2.9s-.2,0-.2,0Z"/>
              <path class="cls-3" d="M60.8,74.4l-.6,2h-1.3l2.2-6.9h1.6l2.2,6.9h-1.4l-.6-2h-2.1ZM62.7,73.5l-.5-1.7c0-.4-.2-.9-.4-1.3h0c0,.4-.2.9-.3,1.3l-.5,1.7h1.7Z"/>
              <path class="cls-3" d="M66.9,76.4v-6.9h1.4l1.8,3c.5.8.9,1.6,1.2,2.3h0v-5.3h1.2v6.9h-1.3l-1.8-3c-.4-.8-.9-1.6-1.2-2.4h0v5.4s-1.3,0-1.3,0Z"/>
              <path class="cls-3" d="M81,72.9c0,2.3-1.4,3.6-3.3,3.6s-3.2-1.5-3.2-3.5,1.3-3.6,3.3-3.6,3.2,1.5,3.2,3.5ZM75.9,72.9c0,1.4.7,2.5,1.9,2.5s1.9-1.1,1.9-2.6-.6-2.5-1.9-2.5-1.9,1.2-1.9,2.6Z"/>
              <path class="cls-3" d="M84.7,76.4l-2.2-6.9h1.4l.9,3.1c.3.9.5,1.7.7,2.5h0c.2-.8.4-1.7.7-2.5l1-3.2h1.3l-2.4,6.9h-1.4Z"/>
              <path class="cls-3" d="M90.1,75.7c0-.5.3-.8.8-.8s.8.3.8.8-.3.8-.8.8-.8-.4-.8-.8Z"/>
              <path class="cls-3" d="M98.8,76.2c-.3,0-1,.3-1.8.3-2.2,0-3.5-1.4-3.5-3.5s1.6-3.7,3.7-3.7,1.4.2,1.7.3l-.3,1c-.3,0-.8-.3-1.3-.3-1.4,0-2.4.9-2.4,2.5s.9,2.5,2.4,2.5,1,0,1.4-.2v1.1h.1Z"/>
              <path class="cls-3" d="M107,72.9c0,2.3-1.4,3.6-3.3,3.6s-3.2-1.5-3.2-3.5,1.3-3.6,3.3-3.6,3.2,1.5,3.2,3.5ZM101.8,72.9c0,1.4.7,2.5,1.9,2.5s1.9-1.1,1.9-2.6-.6-2.5-1.9-2.5-1.9,1.2-1.9,2.6Z"/>
              <path class="cls-3" d="M114.9,73.6v-2.9h0c-.2.8-.5,1.8-.8,2.7l-1,3h-1l-.9-3c-.3-.9-.5-1.8-.7-2.7h0v3l-.2,2.8h-1.2l.5-6.9h1.7l.9,2.8c.2.8.5,1.6.6,2.4h0c.2-.8.4-1.6.7-2.4l1-2.8h1.6l.4,6.9h-1.2l-.2-2.9h-.2Z"/>
            </g>
          </g>
        </g>
      </g>
    </g>
  </g>
</svg>