<?xml version="1.0" encoding="UTF-8"?>
<svg xmlns="http://www.w3.org/2000/svg" version="1.1" xmlns:xlink="http://www.w3.org/1999/xlink" viewBox="0 0 151 151">
  <defs>
    <style>
      .cls-1 {
        fill: #5bc0de;
      }

      .cls-2, .cls-3, .cls-4, .cls-5, .cls-6, .cls-7, .cls-8 {
        fill: none;
      }

      .cls-2, .cls-9, .cls-5, .cls-6, .cls-8 {
        stroke-miterlimit: 10;
      }

      .cls-2, .cls-6 {
        stroke: #37424a;
      }

      .cls-10 {
        fill: #ffdf57;
      }

      .cls-3, .cls-9, .cls-8 {
        stroke: #100f0f;
      }

      .cls-3, .cls-7 {
        stroke-miterlimit: 10;
        stroke-width: 3px;
      }

      .cls-11 {
        fill: #100f0f;
      }

      .cls-12, .cls-9 {
        fill: #fffcf0;
      }

      .cls-13 {
        fill: #fff;
      }

      .cls-14 {
        clip-path: url(#clippath-1);
      }

      .cls-15 {
        isolation: isolate;
      }

      .cls-9 {
        stroke-width: 1.4px;
      }

      .cls-16 {
        clip-path: url(#clippath-3);
      }

      .cls-5, .cls-6, .cls-8 {
        stroke-width: 3px;
      }

      .cls-5, .cls-7 {
        stroke: #fff;
      }

      .cls-17 {
        fill: #d0a215;
      }

      .cls-18 {
        display: none;
      }

      .cls-19 {
        fill: #37424a;
      }

      .cls-20 {
        fill: #879a39;
      }

      .cls-21 {
        clip-path: url(#clippath-2);
      }

      .cls-22 {
        fill: #ff853a;
      }

      .cls-23 {
        clip-path: url(#clippath);
      }
    </style>
    <clipPath id="clippath">
      <path class="cls-4" d="M145.4,14.8c8.2,8.6-29.4,53.8-35.7,59.8-6.3,6-18.1,3.9-26.2-4.7-8.2-8.6-9.7-20.4-3.4-26.4,6.3-6,57.1-37.3,65.3-28.7Z"/>
    </clipPath>
    <clipPath id="clippath-1">
      <path class="cls-4" d="M145.4,14.8c8.2,8.6-29.4,53.8-35.7,59.8-6.3,6-18.1,3.9-26.2-4.7-8.2-8.6-9.7-20.4-3.4-26.4,6.3-6,57.1-37.3,65.3-28.7Z"/>
    </clipPath>
    <clipPath id="clippath-2">
      <path class="cls-4" d="M145.4,14.8c8.2,8.6-29.4,53.8-35.7,59.8-6.3,6-18.1,3.9-26.2-4.7-8.2-8.6-9.7-20.4-3.4-26.4,6.3-6,57.1-37.3,65.3-28.7Z"/>
    </clipPath>
    <clipPath id="clippath-3">
      <path class="cls-4" d="M145.4,14.8c8.2,8.6-29.4,53.8-35.7,59.8-6.3,6-18.1,3.9-26.2-4.7-8.2-8.6-9.7-20.4-3.4-26.4,6.3-6,57.1-37.3,65.3-28.7Z"/>
    </clipPath>
  </defs>
  <!-- Generator: Adobe Illustrator 28.6.0, SVG Export Plug-In . SVG Version: 1.2.0 Build 709)  -->
  <g>
    <g id="Layer_1">
      <g id="Layer_1-2" data-name="Layer_1" class="cls-18">
        <rect class="cls-11" y="0" width="151" height="151"/>
        <rect class="cls-2" y="0" width="151" height="151"/>
      </g>
      <g id="Layer_5" class="cls-18">
        <image class="cls-15" width="160" height="151" transform="translate(-4.4 -.2)" xlink:href="happy-pixels-1.png"/>
      </g>
      <g id="identity-page" class="cls-18">
        <path class="cls-10" d="M115.5,61.5c0-21.8-17.8-39.4-39.5-39.4s-39.5,17.7-39.5,39.4c-1.2,15.3,12.1,33.1,24.9,50.3,4.9,6.5,9.4,12.7,12.9,18.3.4.6,1,.9,1.7.9s1.3-.4,1.7-.9c3.5-5.6,8.1-11.8,12.9-18.3,12.9-17.2,26.2-35.1,24.9-50.3ZM87.4,109.5c-3.4,4.6-6.7,8.9-9.6,13.1l-15.8-76.8c-.2-1.1-1.2-1.7-2.3-1.5-1.1.2-1.7,1.3-1.5,2.3l15.5,75.6c-2.8-4.1-6-8.3-9.3-12.8-11.9-15.9-25.3-33.9-24.2-47.7,0,0,0-.1,0-.2,0-19.6,16-35.6,35.6-35.6s35.6,16,35.6,35.6,0,.1,0,.2c1.2,13.8-12.3,31.8-24.2,47.7Z"/>
        <path class="cls-1" d="M73.8,72.8c-.3,0-.5,0-.8,0-.7,0-1.3-.6-1.3-1.3l-5.3-23.9c0-.7.5-1.3,1.2-1.3.2,0,20.8,1.7,26.9-4.3.2-.2.6-.4.9-.4s.3,0,.5,0c.5.2.8.7.8,1.2v21.2c0,.4-.2.7-.4,1-.3.3-8.8,7.7-22.5,7.7Z"/>
        <g>
          <path class="cls-13" d="M30.4,75.8c0-.9-.7-1.6-1.6-1.6H3.9c-.9,0-1.6.7-1.6,1.6s.7,1.6,1.6,1.6h25c.9,0,1.6-.7,1.6-1.6Z"/>
          <path class="cls-13" d="M33.2,83.2H11.5c-.9,0-1.6.7-1.6,1.6s.7,1.6,1.6,1.6h21.7c.9,0,1.6-.7,1.6-1.6,0-.9-.7-1.6-1.6-1.6Z"/>
          <path class="cls-13" d="M11.5,68.3h15.4c.9,0,1.6-.7,1.6-1.6s-.7-1.6-1.6-1.6h-15.4c-.9,0-1.6.7-1.6,1.6s.7,1.6,1.6,1.6Z"/>
          <path class="cls-13" d="M148.4,74.2h-25c-.9,0-1.6.7-1.6,1.6s.7,1.6,1.6,1.6h25c.9,0,1.6-.7,1.6-1.6,0-.9-.7-1.6-1.6-1.6Z"/>
          <path class="cls-13" d="M140.8,83.2h-21.7c-.9,0-1.6.7-1.6,1.6s.7,1.6,1.6,1.6h21.7c.9,0,1.6-.7,1.6-1.6,0-.9-.7-1.6-1.6-1.6Z"/>
          <path class="cls-13" d="M125.4,68.3h15.4c.9,0,1.6-.7,1.6-1.6s-.7-1.6-1.6-1.6h-15.4c-.9,0-1.6.7-1.6,1.6s.7,1.6,1.6,1.6Z"/>
        </g>
      </g>
      <g id="design" class="cls-18">
        <path class="cls-19" d="M108.5,62.4c0-20.5-16.7-37.1-37.2-37.1s-37.1,16.6-37.2,37.1c-1.2,14.4,11.4,31.1,23.5,47.3,4.6,6.1,8.9,11.9,12.2,17.2.3.5.9.9,1.6.9s1.2-.3,1.6-.9c3.3-5.3,7.6-11.1,12.2-17.2,12.1-16.2,24.6-33,23.5-47.3ZM82.1,107.5c-3.2,4.3-6.3,8.4-9,12.4l-14.8-72.2c-.2-1-1.2-1.6-2.2-1.4-1,.2-1.6,1.2-1.4,2.2l14.6,71.1c-2.7-3.8-5.6-7.8-8.8-12-11.2-15-23.8-31.9-22.7-44.9,0,0,0-.1,0-.2,0-18.5,15-33.5,33.5-33.5s33.5,15,33.5,33.5,0,.1,0,.2c1.1,13-11.6,29.9-22.7,44.9Z"/>
        <path class="cls-10" d="M69.3,73c-.2,0-.5,0-.8,0-.7,0-1.2-.6-1.2-1.2l-5-22.5c0-.6.5-1.2,1.2-1.2.1,0,19.6,1.6,25.3-4.1.2-.2.5-.4.9-.4s.3,0,.5,0c.5.2.8.6.8,1.1v20c0,.3-.1.7-.4.9-.3.3-8.2,7.3-21.2,7.3Z"/>
        <g>
          <path class="cls-1" d="M28.5,75.9c0-.8-.7-1.5-1.5-1.5H3.6c-.8,0-1.5.7-1.5,1.5s.7,1.5,1.5,1.5h23.5c.8,0,1.5-.7,1.5-1.5Z"/>
          <path class="cls-1" d="M31.1,82.8H10.7c-.8,0-1.5.7-1.5,1.5s.7,1.5,1.5,1.5h20.4c.8,0,1.5-.7,1.5-1.5,0-.8-.7-1.5-1.5-1.5Z"/>
          <path class="cls-1" d="M10.7,68.8h14.5c.8,0,1.5-.7,1.5-1.5s-.7-1.5-1.5-1.5h-14.5c-.8,0-1.5.7-1.5,1.5,0,.8.7,1.5,1.5,1.5Z"/>
          <path class="cls-1" d="M139.6,74.4h-23.5c-.8,0-1.5.7-1.5,1.5s.7,1.5,1.5,1.5h23.5c.8,0,1.5-.7,1.5-1.5s-.7-1.5-1.5-1.5Z"/>
          <path class="cls-1" d="M132.4,82.8h-20.4c-.8,0-1.5.7-1.5,1.5s.7,1.5,1.5,1.5h20.4c.8,0,1.5-.7,1.5-1.5,0-.8-.7-1.5-1.5-1.5Z"/>
          <path class="cls-1" d="M117.9,68.8h14.5c.8,0,1.5-.7,1.5-1.5s-.7-1.5-1.5-1.5h-14.5c-.8,0-1.5.7-1.5,1.5,0,.8.7,1.5,1.5,1.5Z"/>
        </g>
      </g>
      <g id="illu-page" class="cls-18">
        <path class="cls-10" d="M48.2,106.5s.2,9.5-2.6,12.1c-2.8,2.6-7.9-.4-12.6,3.4,0,0,2.2-12.6,6.8-12.8"/>
        <path class="cls-10" d="M39.9,98.1s-9.4-1.7-12.4.6c-3,2.3-.9,7.9-5.3,11.9,0,0,12.8-.2,13.7-4.7"/>
        <path class="cls-10" d="M42,107.8s-10.1-1.8-14,.7c-3.9,2.5-2.9,8.1-8.9,12.5,0,0,9.2,1.8,14.7-4.1"/>
        <polygon class="cls-13" points="55.1 79.5 35.6 69.5 4.5 96 38 80.4 48.9 87 55.1 79.5"/>
        <polygon class="cls-10" points="53.8 80.4 35.2 72.1 4.5 96 38 80.4 48.9 87 53.8 80.4"/>
        <polygon class="cls-13" points="67.5 94.5 73.1 115.7 40.5 140.4 62.9 111 58.8 99 67.5 94.5"/>
        <polygon class="cls-10" points="66.4 95.6 70.5 115.5 40.5 140.4 62.9 111 58.8 99 66.4 95.6"/>
        <path class="cls-10" d="M39.5,102.6c-1.7,1.4-4.2,1.2-5.6-.5h0c-1.4-1.7-1.2-4.2.5-5.6l19.4-16.2c1.7-1.4,4.2-1.2,5.6.5h0c1.4,1.7,1.2,4.2-.5,5.6l-19.4,16.2Z"/>
        <path class="cls-10" d="M49.8,110.4c-1.7,1.4-4.2,1.2-5.6-.5h0c-1.4-1.7-1.2-4.2.5-5.6l19.4-16.2c1.7-1.4,4.2-1.2,5.6.5h0c1.4,1.7,1.2,4.2-.5,5.6l-19.4,16.2Z"/>
        <path class="cls-19" d="M49.6,110.7c-1.7,1.4-4.2,1.2-5.6-.5h0c-1.4-1.7-1.2-4.2.5-5.6l.9-.7c1.7-1.4.3,1.9,1.8,3.6h0c1.4,1.7,5,1.1,3.3,2.5l-.9.7Z"/>
        <path class="cls-19" d="M39.4,102.6c-1.7,1.4-4.2,1.2-5.6-.5h0c-1.4-1.7-1.2-4.2.5-5.6l.9-.7c1.7-1.4.3,1.9,1.8,3.6h0c1.4,1.7,5,1.1,3.3,2.5l-.9.7Z"/>
        <path class="cls-10" d="M41.9,110.1c-1.7,1.4-4.2,1.2-5.6-.5h0c-1.4-1.7-1.2-4.2.5-5.6l19.4-16.2c1.7-1.4,4.2-1.2,5.6.5h0c1.4,1.7,1.2,4.2-.5,5.6l-19.4,16.2Z"/>
        <path class="cls-19" d="M41.8,110.3c-1.7,1.4-4.2,1.2-5.6-.5h0c-1.4-1.7-1.2-4.2.5-5.6l.9-.7c1.7-1.4.3,1.9,1.8,3.6h0c1.4,1.7,5,1.1,3.3,2.5l-.9.7Z"/>
        <path class="cls-6" d="M117,62.7c-.3,12.4-43.1,32.9-50.5,32.9s-13.4-6-13.4-13.4,26.1-42.8,39.7-42.5c13.6.3,24.4,10.6,24.2,23Z"/>
        <path class="cls-10" d="M117,62.7c-.3,12.4-43.1,32.9-50.5,32.9s-13.4-6-13.4-13.4,26.1-42.8,39.7-42.5c13.6.3,24.4,10.6,24.2,23Z"/>
        <path class="cls-6" d="M145.4,14.8c8.2,8.6-29.4,53.8-35.7,59.8-6.3,6-18.1,3.9-26.2-4.7-8.2-8.6-9.7-20.4-3.4-26.4S137.2,6.2,145.4,14.8Z"/>
        <g id="Layer_4">
          <g class="cls-23">
            <path class="cls-10" d="M145.4,14.8c8.2,8.6-29.4,53.8-35.7,59.8-6.3,6-18.1,3.9-26.2-4.7-8.2-8.6-9.7-20.4-3.4-26.4S137.2,6.2,145.4,14.8Z"/>
          </g>
          <g class="cls-14">
            <path class="cls-1" d="M126.1,15.8s1.1,14.7,19,17.3l9.4-14.7-4.7-8.5-15.4.4-8.3,5.5Z"/>
          </g>
          <g class="cls-21">
            <path class="cls-2" d="M94.9,28.8s-7.9,33.3,34.6,33.3"/>
          </g>
          <g class="cls-16">
            <path class="cls-2" d="M125.1,7.4s-8.1,27.1,26.9,29.1"/>
          </g>
        </g>
        <circle class="cls-19" cx="73.4" cy="90.9" r="1.3"/>
        <circle class="cls-19" cx="81.5" cy="86.6" r="2"/>
        <circle class="cls-19" cx="109" cy="46.1" r="8.2"/>
        <circle class="cls-1" cx="109" cy="46.1" r="6.9"/>
        <circle class="cls-4" cx="109" cy="46.1" r="6.9"/>
      </g>
      <g id="work-page">
        <rect class="cls-20" x="61.3" y="21.1" width="1.6" height="1.6"/>
        <rect class="cls-20" x="41.4" y="30" width="1.6" height="1.6"/>
        <rect class="cls-13" x="124.2" y="115.2" width="1.6" height="1.6"/>
        <rect class="cls-20" x="104.3" y="124.1" width="1.6" height="1.6"/>
        <rect class="cls-13" x="47.5" y="6.5" width="1.6" height="1.6"/>
        <rect class="cls-13" x="56.4" y="54.8" width="1.2" height="1.2"/>
        <rect class="cls-20" x="126.6" y="16.7" width="1.2" height="1.2"/>
        <rect class="cls-13" x="7.6" y="126.2" width="1.2" height="1.2"/>
        <g>
          <polygon class="cls-9" points="97.1 57.9 108 47 97.1 36.1 90.5 42.8 84.4 36.7 73.5 47.6 77.7 51.7 68.8 60.5 65.8 57.5 47.2 76.1 65.8 94.7 84.4 76.1 79.7 71.4 89.1 62 85 57.9 91 51.8 97.1 57.9"/>
          <rect class="cls-9" x="87" y="18" width="6.2" height="6.2" transform="translate(11.5 69.8) rotate(-45)"/>
        </g>
        <polygon class="cls-8" points="105.2 21.1 103.4 22.9 97.5 17.1 86.6 27.9 92.5 33.8 86.6 39.7 105.2 58.3 123.8 39.7 105.2 21.1"/>
        <polygon class="cls-17" points="105.2 21.1 103.4 22.9 97.5 17.1 86.6 27.9 92.5 33.8 86.6 39.7 105.2 58.3 123.8 39.7 105.2 21.1"/>
        <g>
          <rect class="cls-3" x="74.2" y="60.6" width="26.3" height="26.3" transform="translate(-26.6 83.4) rotate(-45)"/>
          <polygon class="cls-8" points="122.3 42.3 127 37.6 117.8 28.4 116.3 30 112.2 25.8 106.7 31.3 110.8 35.4 108.7 37.6 112.9 41.8 103.6 51.1 99.6 47.1 96 50.7 92.1 46.8 86.6 52.3 90.5 56.2 90.4 56.2 99.6 65.4 103.9 61 117.4 74.5 136 55.9 122.3 42.3"/>
        </g>
        <g>
          <rect class="cls-20" x="74.2" y="60.6" width="26.3" height="26.3" transform="translate(-26.6 83.4) rotate(-45)"/>
          <polygon class="cls-20" points="122.3 42.3 127 37.6 117.8 28.4 116.3 30 112.2 25.8 106.7 31.3 110.8 35.4 108.7 37.6 112.9 41.8 103.6 51.1 99.6 47.1 96 50.7 92.1 46.8 86.6 52.3 90.5 56.2 90.4 56.2 99.6 65.4 103.9 61 117.4 74.5 136 55.9 122.3 42.3"/>
        </g>
        <polygon class="cls-8" points="137.9 72.5 141.8 68.6 137.9 64.6 137.1 65.5 133.9 62.4 140.1 55.9 129.6 45 125.4 49.4 123.2 47.1 120.6 49.8 116.3 45.4 109.6 52.3 114 56.9 107.6 63.3 102.1 57.6 92.9 67.1 90.1 64.2 86.3 68.1 86.5 68.4 75.3 68.4 71 68.4 71.2 68.1 67.4 64.2 63.5 68.1 63.7 68.4 36.9 68.4 33.3 64.5 30.8 67.1 24.4 60.4 17.7 67.3 18.7 68.4 18.3 68.4 18.5 68.1 14.7 64.2 10.8 68.1 11 68.4 10.8 68.4 13.9 71.5 12.1 73.4 14.7 76.1 16.6 74.1 23.8 81.4 21.8 83.6 25.5 87.4 23.8 89.2 34.3 100.1 37 97.4 39.6 100.1 41 98.6 43.9 101.5 40.5 105.1 44.3 109 46.5 106.7 48.8 109 50.1 107.7 51.4 109 46.9 113.6 53.6 120.5 58.2 115.8 60.3 117.9 57.5 120.8 68 131.7 71 128.6 75.3 132.9 78.4 129.8 83.4 135 93.9 124.1 89.1 119.1 90.3 117.9 92.8 120.5 99.5 113.5 97.1 111.1 98.9 109.3 99.9 110.3 103.7 106.3 102.8 105.4 105 103.2 107.9 106.2 111.8 102.2 109.9 100.3 112.4 97.7 117.1 102.6 123.8 95.7 120.4 92.1 123.2 89.2 121.1 87.1 123 85.1 125 87.1 128.8 83.2 127 81.2 136.8 71.4 137.9 72.5"/>
        <polygon class="cls-12" points="137.9 72.5 141.8 68.6 137.9 64.6 137.1 65.5 133.9 62.4 140.1 55.9 129.6 45 125.4 49.4 123.2 47.1 120.6 49.8 116.3 45.4 109.6 52.3 114 56.9 107.6 63.3 102.1 57.6 92.9 67.1 90.1 64.2 86.3 68.1 86.5 68.4 75.3 68.4 71 68.4 71.2 68.1 67.4 64.2 63.5 68.1 63.7 68.4 36.9 68.4 33.3 64.5 30.8 67.1 24.4 60.4 17.7 67.3 18.7 68.4 18.3 68.4 18.5 68.1 14.7 64.2 10.8 68.1 11 68.4 10.8 68.4 13.9 71.5 12.1 73.4 14.7 76.1 16.6 74.1 23.8 81.4 21.8 83.6 25.5 87.4 23.8 89.2 34.3 100.1 37 97.4 39.6 100.1 41 98.6 43.9 101.5 40.5 105.1 44.3 109 46.5 106.7 48.8 109 50.1 107.7 51.4 109 46.9 113.6 53.6 120.5 58.2 115.8 60.3 117.9 57.5 120.8 68 131.7 71 128.6 75.3 132.9 78.4 129.8 83.4 135 93.9 124.1 89.1 119.1 90.3 117.9 92.8 120.5 99.5 113.5 97.1 111.1 98.9 109.3 99.9 110.3 103.7 106.3 102.8 105.4 105 103.2 107.9 106.2 111.8 102.2 109.9 100.3 112.4 97.7 117.1 102.6 123.8 95.7 120.4 92.1 123.2 89.2 121.1 87.1 123 85.1 125 87.1 128.8 83.2 127 81.2 136.8 71.4 137.9 72.5"/>
        <rect class="cls-11" x="69" y="100.8" width="3.6" height="3.6" transform="translate(-51.8 80.1) rotate(-45)"/>
        <rect class="cls-11" x="69.4" y="104.7" width="3.6" height="3.6" transform="translate(-54.4 81.5) rotate(-45)"/>
        <rect class="cls-11" x="73.6" y="105.4" width="3.6" height="3.6" transform="translate(-53.7 84.6) rotate(-45)"/>
        <rect class="cls-11" x="69.4" y="96.7" width="2.7" height="2.7" transform="translate(-48.6 78.8) rotate(-45)"/>
        <rect class="cls-11" x="78.6" y="105.9" width="2.7" height="2.7" transform="translate(-52.4 87.9) rotate(-45)"/>
      </g>
      <g id="Layer_6_copy" class="cls-18">
        <rect class="cls-10" x="56.3" y="19.1" width="1.6" height="1.6"/>
        <rect class="cls-10" x="36.4" y="28" width="1.6" height="1.6"/>
        <rect class="cls-19" x="119.2" y="113.2" width="1.6" height="1.6"/>
        <rect class="cls-10" x="99.3" y="122.1" width="1.6" height="1.6"/>
        <rect class="cls-19" x="42.5" y="4.5" width="1.6" height="1.6"/>
        <rect class="cls-19" x="51.4" y="52.8" width="1.2" height="1.2"/>
        <rect class="cls-10" x="121.6" y="14.7" width="1.2" height="1.2"/>
        <rect class="cls-19" x="2.6" y="124.2" width="1.2" height="1.2"/>
        <g>
          <polygon class="cls-10" points="92.1 55.9 103 45 92.1 34.1 85.5 40.8 79.4 34.7 68.5 45.6 72.7 49.7 63.8 58.5 60.8 55.5 42.2 74.1 60.8 92.7 79.4 74.1 74.7 69.4 84.1 60 80 55.9 86 49.8 92.1 55.9"/>
          <rect class="cls-10" x="82" y="16" width="6.2" height="6.2" transform="translate(11.4 65.7) rotate(-45)"/>
        </g>
        <polygon class="cls-5" points="100.2 19.1 98.4 20.9 92.5 15.1 81.6 25.9 87.5 31.8 81.6 37.7 100.2 56.3 118.8 37.7 100.2 19.1"/>
        <polygon class="cls-10" points="100.2 19.1 98.4 20.9 92.5 15.1 81.6 25.9 87.5 31.8 81.6 37.7 100.2 56.3 118.8 37.7 100.2 19.1"/>
        <g>
          <rect class="cls-7" x="69.2" y="58.6" width="26.3" height="26.3" transform="translate(-26.6 79.3) rotate(-45)"/>
          <polygon class="cls-5" points="117.3 40.3 122 35.6 112.8 26.4 111.3 28 107.2 23.8 101.7 29.3 105.8 33.4 103.7 35.6 107.9 39.8 98.6 49.1 94.6 45.1 91 48.7 87.1 44.8 81.6 50.3 85.5 54.2 85.4 54.2 94.6 63.4 98.9 59 112.4 72.5 131 53.9 117.3 40.3"/>
        </g>
        <g>
          <rect class="cls-1" x="69.2" y="58.6" width="26.3" height="26.3" transform="translate(-26.6 79.3) rotate(-45)"/>
          <polygon class="cls-1" points="117.3 40.3 122 35.6 112.8 26.4 111.3 28 107.2 23.8 101.7 29.3 105.8 33.4 103.7 35.6 107.9 39.8 98.6 49.1 94.6 45.1 91 48.7 87.1 44.8 81.6 50.3 85.5 54.2 85.4 54.2 94.6 63.4 98.9 59 112.4 72.5 131 53.9 117.3 40.3"/>
        </g>
        <polygon class="cls-5" points="132.9 70.5 136.8 66.6 132.9 62.6 132.1 63.5 128.9 60.4 135.1 53.9 124.6 43 120.4 47.4 118.2 45.1 115.6 47.8 111.3 43.4 104.6 50.3 109 54.9 102.6 61.3 97.1 55.6 87.9 65.1 85.1 62.2 81.3 66.1 81.5 66.4 70.3 66.4 66 66.4 66.2 66.1 62.4 62.2 58.5 66.1 58.7 66.4 31.9 66.4 28.3 62.5 25.8 65.1 19.4 58.4 12.7 65.3 13.7 66.4 13.3 66.4 13.5 66.1 9.7 62.2 5.8 66.1 6 66.4 5.8 66.4 8.9 69.5 7.1 71.4 9.7 74.1 11.6 72.1 18.8 79.4 16.8 81.6 20.5 85.4 18.8 87.2 29.3 98.1 32 95.4 34.6 98.1 36 96.6 38.9 99.5 35.5 103.1 39.3 107 41.5 104.7 43.8 107 45.1 105.7 46.4 107 41.9 111.6 48.6 118.5 53.2 113.8 55.3 115.9 52.5 118.8 63 129.7 66 126.6 70.3 130.9 73.4 127.8 78.4 133 88.9 122.1 84.1 117.1 85.3 115.9 87.8 118.5 94.5 111.5 92.1 109.1 93.9 107.3 94.9 108.3 98.7 104.3 97.8 103.4 100 101.2 102.9 104.2 106.8 100.2 104.9 98.3 107.4 95.7 112.1 100.6 118.8 93.7 115.4 90.1 118.2 87.2 116.1 85.1 118 83.1 120 85.1 123.8 81.2 122 79.2 131.8 69.4 132.9 70.5"/>
        <polygon class="cls-10" points="132.9 70.5 136.8 66.6 132.9 62.6 132.1 63.5 128.9 60.4 135.1 53.9 124.6 43 120.4 47.4 118.2 45.1 115.6 47.8 111.3 43.4 104.6 50.3 109 54.9 102.6 61.3 97.1 55.6 87.9 65.1 85.1 62.2 81.3 66.1 81.5 66.4 70.3 66.4 66 66.4 66.2 66.1 62.4 62.2 58.5 66.1 58.7 66.4 31.9 66.4 28.3 62.5 25.8 65.1 19.4 58.4 12.7 65.3 13.7 66.4 13.3 66.4 13.5 66.1 9.7 62.2 5.8 66.1 6 66.4 5.8 66.4 8.9 69.5 7.1 71.4 9.7 74.1 11.6 72.1 18.8 79.4 16.8 81.6 20.5 85.4 18.8 87.2 29.3 98.1 32 95.4 34.6 98.1 36 96.6 38.9 99.5 35.5 103.1 39.3 107 41.5 104.7 43.8 107 45.1 105.7 46.4 107 41.9 111.6 48.6 118.5 53.2 113.8 55.3 115.9 52.5 118.8 63 129.7 66 126.6 70.3 130.9 73.4 127.8 78.4 133 88.9 122.1 84.1 117.1 85.3 115.9 87.8 118.5 94.5 111.5 92.1 109.1 93.9 107.3 94.9 108.3 98.7 104.3 97.8 103.4 100 101.2 102.9 104.2 106.8 100.2 104.9 98.3 107.4 95.7 112.1 100.6 118.8 93.7 115.4 90.1 118.2 87.2 116.1 85.1 118 83.1 120 85.1 123.8 81.2 122 79.2 131.8 69.4 132.9 70.5"/>
        <rect class="cls-19" x="64" y="98.8" width="3.6" height="3.6" transform="translate(-51.9 75.9) rotate(-45)"/>
        <rect class="cls-19" x="64.4" y="102.7" width="3.6" height="3.6" transform="translate(-54.5 77.4) rotate(-45)"/>
        <rect class="cls-19" x="68.6" y="103.4" width="3.6" height="3.6" transform="translate(-53.8 80.5) rotate(-45)"/>
        <rect class="cls-19" x="64.4" y="94.7" width="2.7" height="2.7" transform="translate(-48.6 74.6) rotate(-45)"/>
        <rect class="cls-19" x="73.6" y="103.9" width="2.7" height="2.7" transform="translate(-52.5 83.8) rotate(-45)"/>
      </g>
      <g id="dev" class="cls-18">
        <path class="cls-1" d="M211.2,142.9c-.5,0-.9-.2-1.3-.5l-34.3-34.3c-.7-.7-.7-1.8,0-2.5l34.3-34.3c.3-.3.8-.5,1.3-.5s.9.2,1.3.5l3.4,3.4c.7.7.7,1.8,0,2.5l-29.6,29.6,29.6,29.6c.7.7.7,1.8,0,2.5l-3.4,3.4c-.3.3-.8.5-1.3.5Z"/>
        <path class="cls-10" d="M278.8,142.9c.5,0,.9-.2,1.3-.5l34.3-34.3c.7-.7.7-1.8,0-2.5l-34.3-34.3c-.3-.3-.8-.5-1.3-.5s-.9.2-1.3.5l-3.4,3.4c-.7.7-.7,1.8,0,2.5l29.6,29.6-29.6,29.6c-.7.7-.7,1.8,0,2.5l3.4,3.4c.3.3.8.5,1.3.5Z"/>
        <path class="cls-19" d="M223.6,167.8c-.2,0-.4,0-.7-.1l-4.4-1.8c-.9-.4-1.4-1.4-1-2.3l46.4-117.7c.2-.4.5-.8,1-1,.2,0,.5-.1.7-.1s.4,0,.7.1l4.4,1.8c.9.4,1.4,1.4,1,2.3l-46.4,117.7c-.2.4-.5.8-1,1-.2,0-.5.1-.7.1Z"/>
        <path class="cls-19" d="M50.5,256.1c1.1.4,2.3,0,2.7-1.1l40.2-98.7c.4-1.1,0-2.3-1.1-2.7-1.1-.4-2.3,0-2.7,1.1l-40.2,98.7c-.4,1.1,0,2.3,1.1,2.7Z"/>
        <path class="cls-19" d="M-15.5,97.7c1.1,0,2.1-.9,2.1-2.1v-33c0-1.1-.9-2.1-2.1-2.1s-2.1.9-2.1,2.1v33c0,1.1.9,2.1,2.1,2.1Z"/>
        <path class="cls-19" d="M12.1,127.8c1.1,0,2.1-.9,2.1-2.1V27.3c0-1.1-.9-2.1-2.1-2.1s-2.1.9-2.1,2.1v98.4c0,1.1.9,2.1,2.1,2.1Z"/>
        <path class="cls-19" d="M10.1,27.3c0,1.1.9,2.1,2.1,2.1h118.1c1.1,0,2.1-.9,2.1-2.1s-.9-2.1-2.1-2.1H12.1c-1.1,0-2.1.9-2.1,2.1Z"/>
        <path class="cls-19" d="M10.1,41.8c0,1.1.9,2.1,2.1,2.1h118.1c1.1,0,2.1-.9,2.1-2.1s-.9-2.1-2.1-2.1H12.1c-1.1,0-2.1.9-2.1,2.1Z"/>
        <path class="cls-19" d="M10.1,125.7c0,1.1.9,2.1,2.1,2.1h118.1c1.1,0,2.1-.9,2.1-2.1s-.9-2.1-2.1-2.1H12.1c-1.1,0-2.1.9-2.1,2.1Z"/>
        <path class="cls-19" d="M130.3,127.8c1.1,0,2.1-.9,2.1-2.1V27.3c0-1.1-.9-2.1-2.1-2.1s-2.1.9-2.1,2.1v98.4c0,1.1.9,2.1,2.1,2.1Z"/>
        <path class="cls-1" d="M10.8,206.4c.8.8,2.1.8,2.9,0l32-32c.8-.8.8-2.1,0-2.9-.8-.8-2.1-.8-2.9,0l-32,32c-.8.8-.8,2.1,0,2.9Z"/>
        <path class="cls-1" d="M45.7,238.2c.8-.8.8-2.1,0-2.9l-32-32c-.8-.8-2.1-.8-2.9,0-.8.8-.8,2.1,0,2.9l32,32c.8.8,2.1.8,2.9,0Z"/>
        <path class="cls-10" d="M131.6,203.3c-.8-.8-2.1-.8-2.9,0l-32,32c-.8.8-.8,2.1,0,2.9.8.8,2.1.8,2.9,0l32-32c.8-.8.8-2.1,0-2.9Z"/>
        <path class="cls-10" d="M96.7,171.5c-.8.8-.8,2.1,0,2.9l32,32c.8.8,2.1.8,2.9,0s.8-2.1,0-2.9l-32-32c-.8-.8-2.1-.8-2.9,0Z"/>
        <path class="cls-19" d="M58.2,115c.7.3,1.4,0,1.7-.7l25.2-61.9c.3-.7,0-1.4-.7-1.7-.7-.3-1.4,0-1.7.7l-25.2,61.9c-.3.7,0,1.4.7,1.7Z"/>
        <path class="cls-1" d="M33.4,83.8c.5.5,1.3.5,1.8,0l20.1-20.1c.5-.5.5-1.3,0-1.8-.5-.5-1.3-.5-1.8,0l-20.1,20.1c-.5.5-.5,1.3,0,1.8Z"/>
        <path class="cls-1" d="M55.3,103.8c.5-.5.5-1.3,0-1.8l-20.1-20.1c-.5-.5-1.3-.5-1.8,0-.5.5-.5,1.3,0,1.8l20.1,20.1c.5.5,1.3.5,1.8,0Z"/>
        <path class="cls-10" d="M109.1,81.9c-.5-.5-1.3-.5-1.8,0l-20.1,20.1c-.5.5-.5,1.3,0,1.8.5.5,1.3.5,1.8,0l20.1-20.1c.5-.5.5-1.3,0-1.8Z"/>
        <path class="cls-10" d="M87.2,61.9c-.5.5-.5,1.3,0,1.8l20.1,20.1c.5.5,1.3.5,1.8,0,.5-.5.5-1.3,0-1.8l-20.1-20.1c-.5-.5-1.3-.5-1.8,0Z"/>
        <path class="cls-1" d="M-60,82.8h-20.4c-.8,0-1.5.7-1.5,1.5s.7,1.5,1.5,1.5h20.4c.8,0,1.5-.7,1.5-1.5s-.7-1.5-1.5-1.5Z"/>
        <path class="cls-1" d="M-80.4,68.8h14.5c.8,0,1.5-.7,1.5-1.5s-.7-1.5-1.5-1.5h-14.5c-.8,0-1.5.7-1.5,1.5,0,.8.7,1.5,1.5,1.5Z"/>
        <path class="cls-1" d="M-24.8,74.4h-23.5c-.8,0-1.5.7-1.5,1.5s.7,1.5,1.5,1.5h23.5c.8,0,1.5-.7,1.5-1.5s-.7-1.5-1.5-1.5Z"/>
        <path class="cls-1" d="M-32,82.8h-20.4c-.8,0-1.5.7-1.5,1.5s.7,1.5,1.5,1.5h20.4c.8,0,1.5-.7,1.5-1.5,0-.8-.7-1.5-1.5-1.5Z"/>
        <path class="cls-1" d="M-46.5,68.8h14.5c.8,0,1.5-.7,1.5-1.5s-.7-1.5-1.5-1.5h-14.5c-.8,0-1.5.7-1.5,1.5,0,.8.7,1.5,1.5,1.5Z"/>
        <circle class="cls-19" cx="98" cy="34.6" r="3.3"/>
        <circle class="cls-19" cx="109.8" cy="34.6" r="3.3"/>
        <circle class="cls-19" cx="121.6" cy="34.6" r="3.3"/>
        <path class="cls-19" d="M50.5,256.1c1.1.4,2.3,0,2.7-1.1l40.2-98.7c.4-1.1,0-2.3-1.1-2.7-1.1-.4-2.3,0-2.7,1.1l-40.2,98.7c-.4,1.1,0,2.3,1.1,2.7Z"/>
        <path class="cls-1" d="M10.8,206.4c.8.8,2.1.8,2.9,0l32-32c.8-.8.8-2.1,0-2.9-.8-.8-2.1-.8-2.9,0l-32,32c-.8.8-.8,2.1,0,2.9Z"/>
        <path class="cls-1" d="M45.7,238.2c.8-.8.8-2.1,0-2.9l-32-32c-.8-.8-2.1-.8-2.9,0-.8.8-.8,2.1,0,2.9l32,32c.8.8,2.1.8,2.9,0Z"/>
        <path class="cls-10" d="M131.6,203.3c-.8-.8-2.1-.8-2.9,0l-32,32c-.8.8-.8,2.1,0,2.9.8.8,2.1.8,2.9,0l32-32c.8-.8.8-2.1,0-2.9Z"/>
        <path class="cls-10" d="M96.7,171.5c-.8.8-.8,2.1,0,2.9l32,32c.8.8,2.1.8,2.9,0s.8-2.1,0-2.9l-32-32c-.8-.8-2.1-.8-2.9,0Z"/>
      </g>
      <g id="self" class="cls-18">
        <path class="cls-19" d="M10.1,108.7c1.1,0,2.1-.9,2.1-2.1V27.3c0-1.1-.9-2.1-2.1-2.1s-2.1.9-2.1,2.1v79.3c0,1.1.9,2.1,2.1,2.1Z"/>
        <path class="cls-19" d="M23.8,127.8c1.1,0,2.1-.9,2.1-2.1v-19.1c0-1.1-.9-2.1-2.1-2.1s-2.1.9-2.1,2.1v19.1c0,1.1.9,2.1,2.1,2.1Z"/>
        <path class="cls-19" d="M22.4,127.2c.8.8,2.1.8,2.9,0l24.3-18.8c.8-.8.8-2.1,0-2.9-.8-.8-2.1-.8-2.9,0l-24.3,18.8c-.8.8-.8,2.1,0,2.9Z"/>
        <path class="cls-19" d="M132.7,108.7c1.1,0,2.1-.9,2.1-2.1V27.3c0-1.1-.9-2.1-2.1-2.1s-2.1.9-2.1,2.1v79.3c0,1.1.9,2.1,2.1,2.1Z"/>
        <path class="cls-19" d="M134.8,27.3c0-1.1-.9-2.1-2.1-2.1H10.1c-1.1,0-2.1.9-2.1,2.1s.9,2.1,2.1,2.1h122.6c1.1,0,2.1-.9,2.1-2.1Z"/>
        <path class="cls-19" d="M134.8,106.6c0-1.1-.9-2.1-2.1-2.1H10.1c-1.1,0-2.1.9-2.1,2.1s.9,2.1,2.1,2.1h122.6c1.1,0,2.1-.9,2.1-2.1Z"/>
        <path class="cls-1" d="M-30.1,62h-23.5c-.8,0-1.5.7-1.5,1.5s.7,1.5,1.5,1.5h23.5c.8,0,1.5-.7,1.5-1.5,0-.8-.7-1.5-1.5-1.5Z"/>
        <path class="cls-10" d="M119.6,40.8H23.9c-.8,0-1.5.7-1.5,1.5s.7,1.5,1.5,1.5h95.7c.8,0,1.5-.7,1.5-1.5s-.7-1.5-1.5-1.5Z"/>
        <path class="cls-1" d="M119.6,51.7H23.9c-.8,0-1.5.7-1.5,1.5s.7,1.5,1.5,1.5h95.7c.8,0,1.5-.7,1.5-1.5s-.7-1.5-1.5-1.5Z"/>
        <path class="cls-1" d="M119.6,62.6H23.9c-.8,0-1.5.7-1.5,1.5s.7,1.5,1.5,1.5h95.7c.8,0,1.5-.7,1.5-1.5s-.7-1.5-1.5-1.5Z"/>
        <path class="cls-1" d="M87.7,73.4H23.9c-.8,0-1.5.7-1.5,1.5s.7,1.5,1.5,1.5h63.8c.8,0,1.5-.7,1.5-1.5s-.7-1.5-1.5-1.5Z"/>
        <path class="cls-1" d="M-37.3,70.5h-20.4c-.8,0-1.5.7-1.5,1.5s.7,1.5,1.5,1.5h20.4c.8,0,1.5-.7,1.5-1.5,0-.8-.7-1.5-1.5-1.5Z"/>
        <path class="cls-1" d="M-51.8,56.5h14.5c.8,0,1.5-.7,1.5-1.5s-.7-1.5-1.5-1.5h-14.5c-.8,0-1.5.7-1.5,1.5s.7,1.5,1.5,1.5Z"/>
        <path class="cls-19" d="M134.8,27.3c0-1.1-.9-2.1-2.1-2.1H10.1c-1.1,0-2.1.9-2.1,2.1s.9,2.1,2.1,2.1h122.6c1.1,0,2.1-.9,2.1-2.1Z"/>
        <polygon class="cls-13" points="25.9 109.4 25.9 101.4 51.4 101.4 40.2 110.4 25.9 109.4"/>
        <circle class="cls-19" cx="23.8" cy="86.5" r="1.4"/>
        <circle class="cls-19" cx="37.2" cy="86.5" r="1.4"/>
        <circle class="cls-19" cx="50.5" cy="86.5" r="1.4"/>
      </g>
      <g id="illu-post" class="cls-18">
        <polygon class="cls-1" points="37.6 101.5 37.6 124.3 59.5 114.4 38.8 99.7 37.6 101.5"/>
        <rect class="cls-10" x="83" y="28.3" width="15.2" height="26.2" transform="translate(6.9 95.5) rotate(-57.4)"/>
        <path class="cls-19" d="M-10.5,119.3c1.1,0,2.1-.9,2.1-2.1V38c0-1.1-.9-2.1-2.1-2.1s-2.1.9-2.1,2.1v79.3c0,1.1.9,2.1,2.1,2.1Z"/>
        <path class="cls-19" d="M37,101.1c1,.6,2.2.3,2.9-.6L85.8,28.5c.6-1,.3-2.2-.6-2.9-1-.6-2.2-.3-2.8.6l-46,71.9c-.6,1-.3,2.2.6,2.9Z"/>
        <path class="cls-19" d="M59,115.1c1,.6,2.2.3,2.9-.6l46-71.9c.6-1,.3-2.2-.6-2.8-1-.6-2.2-.3-2.8.6l-46,71.9c-.6,1-.3,2.2.6,2.9Z"/>
        <path class="cls-19" d="M73.8,39.7c-.6,1-.3,2.2.6,2.9l22,14.1c1,.6,2.2.3,2.8-.6.6-1,.3-2.2-.6-2.8l-22-14.1c-1-.6-2.2-.3-2.9.6Z"/>
        <path class="cls-19" d="M36.4,98.2c-.6,1-.3,2.2.6,2.9l22,14.1c1,.6,2.2.3,2.8-.6.6-1,.3-2.2-.6-2.8l-22-14.1c-1-.6-2.2-.3-2.9.6Z"/>
        <path class="cls-19" d="M38.2,97.5c-1.1,0-2.1.8-2.2,1.9l-1.5,26.1c0,1.1.8,2.1,1.9,2.2,1.1,0,2.1-.8,2.2-1.9l1.5-26.1c0-1.1-.8-2.1-1.9-2.2Z"/>
        <path class="cls-19" d="M61.8,112.5c.5,1,.2,2.3-.8,2.8l-23,12.4c-1,.5-2.3.2-2.8-.8-.5-1-.2-2.3.8-2.8l23-12.4c1-.5,2.3-.2,2.8.8Z"/>
        <path class="cls-19" d="M82.3,26.3c-.6,1-.3,2.2.6,2.9l22,14.1c1,.6,2.2.3,2.8-.6.6-1,.3-2.2-.6-2.8l-22-14.1c-1-.6-2.2-.3-2.9.6Z"/>
        <path class="cls-1" d="M-50.8,72.7h-23.5c-.8,0-1.5.7-1.5,1.5s.7,1.5,1.5,1.5h23.5c.8,0,1.5-.7,1.5-1.5,0-.8-.7-1.5-1.5-1.5Z"/>
        <path class="cls-1" d="M-58,81.2h-20.4c-.8,0-1.5.7-1.5,1.5s.7,1.5,1.5,1.5h20.4c.8,0,1.5-.7,1.5-1.5s-.7-1.5-1.5-1.5Z"/>
        <path class="cls-1" d="M-72.5,67.1h14.5c.8,0,1.5-.7,1.5-1.5s-.7-1.5-1.5-1.5h-14.5c-.8,0-1.5.7-1.5,1.5s.7,1.5,1.5,1.5Z"/>
        <path class="cls-1" d="M122.6,72.7h-23.5c-.8,0-1.5.7-1.5,1.5s.7,1.5,1.5,1.5h23.5c.8,0,1.5-.7,1.5-1.5s-.7-1.5-1.5-1.5Z"/>
        <path class="cls-1" d="M114.4,81.2h-20.4c-.8,0-1.5.7-1.5,1.5s.7,1.5,1.5,1.5h20.4c.8,0,1.5-.7,1.5-1.5,0-.8-.7-1.5-1.5-1.5Z"/>
        <path class="cls-1" d="M104.5,67.1h14.5c.8,0,1.5-.7,1.5-1.5s-.7-1.5-1.5-1.5h-14.5c-.8,0-1.5.7-1.5,1.5,0,.8.7,1.5,1.5,1.5Z"/>
        <path class="cls-1" d="M41.2,75.6h-23.5c-.8,0-1.5-.7-1.5-1.5s.7-1.5,1.5-1.5h23.5c.8,0,1.5.7,1.5,1.5s-.7,1.5-1.5,1.5Z"/>
        <path class="cls-1" d="M46.7,67.1h-20.4c-.8,0-1.5-.7-1.5-1.5s.7-1.5,1.5-1.5h20.4c.8,0,1.5.7,1.5,1.5,0,.8-.7,1.5-1.5,1.5Z"/>
        <path class="cls-1" d="M21.2,81.2h14.5c.8,0,1.5.7,1.5,1.5s-.7,1.5-1.5,1.5h-14.5c-.8,0-1.5-.7-1.5-1.5,0-.8.7-1.5,1.5-1.5Z"/>
      </g>
      <g id="Layer_7" class="cls-18">
        <rect class="cls-22" x="160.1" y="-43.6" width="50.5" height="19.5"/>
        <rect class="cls-10" x="160.1" y="1.8" width="50.5" height="19.5"/>
        <rect class="cls-1" x="160.1" y="-20.7" width="50.5" height="19.5"/>
        <rect class="cls-19" x="160.1" y="25.2" width="50.5" height="19.5"/>
      </g>
    </g>
  </g>
</svg>