<?xml version="1.0" encoding="utf-8"?>
<!-- Generator: Adobe Illustrator 28.0.0, SVG Export Plug-In . SVG Version: 6.00 Build 0)  -->
<svg version="1.1" id="Layer_1" xmlns="http://www.w3.org/2000/svg" xmlns:xlink="http://www.w3.org/1999/xlink" x="0px" y="0px"
	 viewBox="0 0 200 200" style="enable-background:new 0 0 200 200;" xml:space="preserve">
<style type="text/css">
	.st0{fill:#100F0F;}
	.st1{display:none;}
	.st2{display:inline;fill:#100F0F;}
	.st3{display:inline;fill:#8B7EC8;}
	.st4{fill:#FFFFFF;}
	.st5{fill:#DA702C;}
</style>
<g id="Layer_3">
	<circle class="st0" cx="100.5" cy="100.5" r="98.5"/>
</g>
<g class="st1">
	<path class="st2" d="M99.8,196.8c-52.7,0-95.5-42.8-95.5-95.5c0-52.7,42.8-95.5,95.5-95.5c52.7,0,95.5,42.8,95.5,95.5v95.5H99.8z"
		/>
	<path class="st3" d="M99.8,9.8c50.5,0,91.5,41,91.5,91.5v91.5H99.7c-50.5,0-91.5-41-91.5-91.5C8.2,50.8,49.3,9.8,99.8,9.8
		 M99.8,1.8L99.8,1.8c-55,0-99.5,44.5-99.5,99.5v0c0,55,44.5,99.5,99.5,99.5h99.5v-99.5C199.2,46.3,154.7,1.8,99.8,1.8L99.8,1.8z"/>
</g>
<g id="Layer_1_1_">
	<g>
		<path class="st4" d="M114.2,53.5c-7.9,0.4-13.5,4-16.6,9.9c-3.3-6.7-8.6-10-18.3-10c-5.9,0-12.6,3.5-14.5,8.1v-6.5H48.2v104.8
			h17.3V82.9c0-9.4,3.5-13.8,9.6-13.8c6.3,0,9.6,4.5,9.6,13.8v76.9h17.3V82.9c0-9.4,3.5-13.8,9.6-13.8c1,0,1.9,0.1,2.7,0.3
			L114.2,53.5L114.2,53.5z"/>
	</g>
	<path class="st5" d="M141.3,182.6h-17.2V19h17.2V182.6z"/>
</g>
</svg>
