<?xml version="1.0" encoding="UTF-8"?>
<svg xmlns="http://www.w3.org/2000/svg" version="1.1" viewBox="0 0 382 302.1">
  <defs>
    <style>
      .cls-1 {
        fill: #e6e4d9;
      }

      .cls-2 {
        fill: #3aa99f;
      }

      .cls-3 {
        fill: #100f0f;
      }

      .cls-4 {
        fill: #24837b;
      }

      .cls-5 {
        fill: #878580;
      }

      .cls-6 {
        fill: #cecdc3;
      }
    </style>
  </defs>
  <!-- Generator: Adobe Illustrator 28.6.0, SVG Export Plug-In . SVG Version: 1.2.0 Build 709)  -->
  <g>
    <g id="Layer_1">
      <polygon class="cls-1" points="377.5 301 31.4 203.7 31.4 5.2 377.5 106.3 377.5 301"/>
      <polygon class="cls-5" points="327.3 264.7 72 194.8 72 40.6 327.3 115.4 327.3 264.7"/>
      <polygon class="cls-3" points="5.6 177.7 87.9 131.5 87 77.7 5.6 109.1 5.6 177.7"/>
      <polygon class="cls-3" points="319.7 255.2 77.7 187.2 77.7 50.1 319.7 121.1 319.7 255.2"/>
      <polygon class="cls-4" points="253.1 110.7 233.1 120.3 230.6 119.6 102.4 83.5 102.4 195.6 301.6 251.6 301.6 141.5 301.6 139.6 301.6 125 253.1 110.7"/>
      <polygon class="cls-2" points="241.7 114.5 221.7 124.1 219.2 123.4 91 87.4 91 199.4 290.1 255.4 290.1 145.3 290.1 143.4 290.1 128.8 241.7 114.5"/>
      <polygon class="cls-4" points="231.1 118.3 211.1 127.9 208.6 127.2 80.4 91.2 80.4 203.2 279.5 259.2 279.5 149.1 279.5 147.2 279.5 132.6 231.1 118.3"/>
      <polygon class="cls-2" points="219.7 122.1 199.6 131.7 197.1 131 68.9 95 68.9 207 268.1 263 268.1 152.9 268.1 151 268.1 136.4 219.7 122.1"/>
      <polygon class="cls-4" points="208.9 125 188.8 134.6 186.3 133.9 58.2 97.8 58.2 209.9 257.3 265.9 257.3 155.7 257.3 153.8 257.3 139.3 208.9 125"/>
      <polygon class="cls-2" points="197.4 128.8 177.4 138.4 174.9 137.7 46.7 101.6 46.7 213.7 245.9 269.7 245.9 159.6 245.9 157.7 245.9 143.1 197.4 128.8"/>
      <polygon class="cls-4" points="186.8 132.6 166.8 142.2 164.3 141.5 36.1 105.5 36.1 217.5 235.2 273.5 235.2 163.4 235.2 161.5 235.2 146.9 186.8 132.6"/>
      <polygon class="cls-2" points="175.4 137.2 155.4 146.8 152.9 146.1 24.7 110 24.7 222.1 223.8 278.1 223.8 168 223.8 166.1 223.8 151.5 175.4 137.2"/>
      <polygon class="cls-3" points="4.7 235.4 17.4 228.4 17.4 104.7 4.7 109.7 4.7 235.4"/>
      <polygon class="cls-6" points="228.1 299.2 4.7 236.4 4.7 110.7 228.1 173.5 228.1 299.2"/>
      <polygon class="cls-3" points="136.8 231.8 73.1 213.9 73.1 178 136.8 196 136.8 231.8"/>
      <polygon class="cls-2" points="132.7 227 76.5 211.1 76.5 182.7 132.7 198.5 132.7 227"/>
      <polygon class="cls-3" points="228.1 299.2 240.8 292.2 240.8 168.4 228.1 173.5 228.1 299.2"/>
      <polygon class="cls-3" points="228.1 299.2 310.4 253.1 310.4 223.3 228.1 268.7 228.1 299.2"/>
      <polygon class="cls-3" points="228.1 194.1 310.4 157.4 310.4 139.2 228.1 173.1 228.1 194.1"/>
      <g>
        <path class="cls-3" d="M96.9,206.2l-.4,1.1-7.7-7.8.4-1,10.9-.8-.4,1.1-9.2.7,6.5,6.6Z"/>
        <path class="cls-3" d="M93.8,212.4l17.2-14.6,1.1.4-17.2,14.6-1.1-.4Z"/>
        <path class="cls-3" d="M107.1,210l9.2-.7-6.5-6.6.4-1.1,7.7,7.8-.4,1-10.9.8.4-1.1Z"/>
      </g>
    </g>
  </g>
</svg>